<svg version="1.1" id="Layer_1" xmlns="http://www.w3.org/2000/svg" xmlns:xlink="http://www.w3.org/1999/xlink" x="0px" y="0px"
	 width="100%" viewBox="0 0 1024 1024" enable-background="new 0 0 1024 1024" xml:space="preserve">
<path fill="#000000" opacity="1.000000" stroke="none" 
	d="
M609.982178,362.677307 
	C626.948181,362.677032 627.348877,363.078003 627.346069,379.352448 
	C627.339233,419.000214 627.338074,458.647980 627.332764,498.295746 
	C627.331421,508.311188 625.343933,510.493378 615.439209,510.295349 
	C582.995667,509.646759 553.224792,517.784058 526.721863,536.881714 
	C524.830872,538.244324 523.043091,539.749756 521.156616,541.119080 
	C515.949341,544.898926 510.470459,545.047363 505.561737,541.013184 
	C485.006592,524.120239 461.101959,515.219604 435.085480,511.599945 
	C426.367493,510.387054 417.513062,510.100067 408.664093,510.281219 
	C401.244690,510.433075 398.671356,507.803711 398.668304,500.506683 
	C398.650391,457.693756 398.652771,414.880829 398.678894,372.067902 
	C398.683044,365.291382 401.241486,362.867462 408.034973,362.662689 
	C418.337769,362.352112 428.598938,363.204559 439.582947,364.020752 
	C439.582947,355.415619 439.582947,347.186890 439.582947,339.242340 
	C442.125977,338.246185 443.492859,339.453491 444.928894,340.178406 
	C465.146790,350.384460 485.365326,360.589508 505.546356,370.868164 
	C510.891998,373.590820 516.006897,373.378479 521.283813,370.662476 
	C541.862305,360.070892 562.483948,349.563141 583.095459,339.035767 
	C583.665527,338.744598 584.302368,338.584259 585.837952,338.023193 
	C585.837952,346.755859 585.837952,355.070129 585.837952,363.768616 
	C594.312317,363.377960 601.900818,363.028137 609.982178,362.677307 
M445.890442,495.418060 
	C466.270111,498.498901 485.038788,506.193665 503.714081,516.728027 
	C503.714081,513.651733 503.713715,511.843445 503.714111,510.035126 
	C503.720703,480.388367 503.480072,450.737915 503.920074,421.097565 
	C504.021210,414.283600 501.817596,409.762817 496.680817,405.880829 
	C474.355682,389.009247 449.058899,381.357605 421.272827,381.175140 
	C417.947510,381.153259 416.969604,382.680389 416.974854,385.749695 
	C417.033264,419.892944 417.057617,454.036407 416.989594,488.179596 
	C416.982513,491.734528 418.455719,492.712036 421.792328,492.731354 
	C429.614349,492.776672 437.366333,493.796234 445.890442,495.418060 
M600.484924,381.262177 
	C594.122498,381.082977 587.883118,382.152161 581.686523,383.346405 
	C561.768066,387.185242 543.509460,394.768585 527.574524,407.572540 
	C523.833435,410.578491 522.055237,413.938293 522.099609,419.046356 
	C522.365784,449.694214 522.231140,480.345459 522.290222,510.995453 
	C522.293518,512.693176 521.505615,514.676392 523.456299,516.207336 
	C524.465820,515.724060 525.541138,515.302246 526.524963,514.724670 
	C550.566101,500.610199 576.602783,493.468170 604.391357,492.752472 
	C608.971741,492.634521 608.912964,490.191956 608.908997,486.946564 
	C608.868713,454.131073 608.888611,421.315521 608.896240,388.499969 
	C608.897949,381.152466 608.906311,381.152466 600.484924,381.262177 
z"/>
<path fill="#000000" opacity="1.000000" stroke="none" 
	d="
M549.061157,321.053284 
	C538.598328,316.219788 528.472534,311.553436 518.336609,306.908997 
	C517.132385,306.357208 515.908691,305.667633 514.632080,305.491943 
	C512.056213,305.137451 509.294281,305.329102 508.497864,308.344971 
	C507.757477,311.148651 510.308258,311.872803 512.287231,312.736694 
	C530.590698,320.726837 548.894226,328.716919 567.202637,336.695862 
	C567.956726,337.024536 568.830078,337.151337 569.076294,338.281128 
	C568.660950,340.143646 566.786377,340.388916 565.395325,341.082733 
	C550.348633,348.587280 535.237427,355.963470 520.226074,363.537628 
	C515.689148,365.826813 511.358826,365.914398 506.835541,363.808044 
	C472.587311,347.860107 438.331696,331.928040 404.083771,315.979401 
	C401.117828,314.598236 398.596802,312.944580 398.585236,309.048523 
	C398.573578,305.118011 401.130157,303.598480 404.123199,302.207367 
	C437.633667,286.632507 471.143127,271.055511 504.626617,255.422821 
	C509.639618,253.082382 514.495361,253.019745 519.517395,255.324127 
	C550.076050,269.346039 580.652954,283.328186 611.227966,297.314453 
	C615.314697,299.183899 619.437561,300.974518 623.520508,302.852081 
	C626.090454,304.033844 628.071777,305.861481 628.072632,308.864532 
	C628.073486,311.814209 626.259827,313.861359 623.709961,315.065521 
	C610.467651,321.319244 597.191101,327.500336 583.924377,333.702271 
	C580.923828,335.104950 578.105347,334.334900 575.285156,333.038116 
	C566.666931,329.075317 558.026733,325.160492 549.061157,321.053284 
z"/>
<path fill="#000000" opacity="1.000000" stroke="none" 
	d="
M531.324585,639.000122 
	C531.320740,652.495789 531.159912,665.494324 531.399963,678.485474 
	C531.481506,682.899414 529.986084,684.601807 525.650696,684.175415 
	C523.338989,683.948059 520.989441,684.080322 518.657166,684.092896 
	C514.646606,684.114502 510.920105,683.814148 511.824066,678.467957 
	C509.848694,677.459106 508.897949,678.637390 507.855438,679.341370 
	C489.278961,691.884949 466.104950,684.991516 458.100128,664.081055 
	C452.059845,648.302429 453.116974,632.859619 462.082520,618.127197 
	C471.186310,603.167664 495.366821,595.326233 509.999023,609.567932 
	C510.174774,609.739014 510.601196,609.652588 511.650116,609.767090 
	C511.650116,600.768921 511.572571,591.848572 511.669861,582.930176 
	C511.789764,571.943481 510.335693,574.686401 520.508789,572.770691 
	C533.325745,570.356995 531.233032,571.452942 531.293030,582.019043 
	C531.399963,600.845520 531.323975,619.672974 531.324585,639.000122 
M510.369690,660.579590 
	C510.742462,659.655823 511.429840,658.735474 511.439911,657.807739 
	C511.553314,647.321350 511.565125,636.833740 511.597473,626.346497 
	C511.601318,625.096069 510.976135,624.185791 510.082123,623.336853 
	C500.805908,614.528137 484.663879,617.114746 478.964966,628.498718 
	C475.274017,635.871643 474.424683,643.662415 476.206573,651.796082 
	C477.915009,659.594299 481.320953,666.231506 489.513855,668.299927 
	C497.533508,670.324524 504.681702,668.048279 510.369690,660.579590 
z"/>
<path fill="#000000" opacity="1.000000" stroke="none" 
	d="
M228.745804,607.780762 
	C228.825150,588.008057 240.095093,575.920959 259.563995,573.510010 
	C271.003021,572.093445 281.701904,573.864746 292.095062,578.601807 
	C295.019440,579.934692 296.538391,581.673157 296.391968,585.043640 
	C296.184479,589.819031 296.339325,594.610107 296.339325,599.256958 
	C293.572968,600.014282 292.351379,598.319763 290.849884,597.439575 
	C282.561523,592.581116 273.976685,588.745728 264.048126,589.360596 
	C254.193649,589.970764 248.858185,596.287537 250.200684,605.507263 
	C250.920242,610.449036 254.104431,613.113525 258.355255,614.702820 
	C266.141083,617.614014 274.058441,620.176208 281.823212,623.140015 
	C293.068054,627.432190 300.570435,634.665649 301.401581,647.588074 
	C302.378235,662.773682 297.217041,674.943359 283.135284,681.111328 
	C266.040070,688.599243 248.769318,687.518494 232.409912,677.873230 
	C230.796066,676.921814 229.246124,675.743103 229.135391,673.725281 
	C228.828873,668.139771 228.610107,662.542786 229.187607,657.011536 
	C232.040726,656.466248 233.313477,658.345581 234.912979,659.343384 
	C244.691406,665.443054 254.880859,670.009216 266.834686,668.731934 
	C272.853943,668.088684 277.737122,665.788330 280.342224,659.970520 
	C283.558960,652.786682 281.356110,646.415161 274.411957,642.690491 
	C268.348480,639.438416 261.620544,638.020264 255.202316,635.747681 
	C251.125946,634.304321 247.028046,632.940430 243.261841,630.735413 
	C234.616974,625.674072 229.521759,618.361084 228.745804,607.780762 
z"/>
<path fill="#000000" opacity="1.000000" stroke="none" 
	d="
M658.173889,664.940369 
	C642.554138,690.830750 604.868225,693.266907 589.175354,669.225647 
	C579.347473,654.169373 578.843689,637.766541 587.447388,621.816772 
	C595.058228,607.707703 607.824524,601.698914 623.459167,601.781799 
	C644.274353,601.892151 660.214417,617.074219 662.464661,637.893066 
	C663.479614,647.283447 662.157471,656.076660 658.173889,664.940369 
M641.494507,650.816772 
	C641.699707,644.187134 642.334778,637.560425 639.966858,631.088379 
	C636.723633,622.224121 631.003906,618.177368 621.403992,618.310059 
	C612.938660,618.427124 606.985046,623.103394 604.357056,631.731384 
	C601.863708,639.917236 601.926575,648.115845 604.565796,656.233215 
	C608.101135,667.106995 618.636719,672.222168 629.254456,668.231262 
	C636.861511,665.372009 639.537842,658.824463 641.494507,650.816772 
z"/>
<path fill="#000000" opacity="1.000000" stroke="none" 
	d="
M775.511292,675.959961 
	C773.727234,675.521973 773.229065,677.066162 772.333618,677.901245 
	C763.198120,686.420044 752.583191,687.804138 741.244080,683.833435 
	C732.904480,680.913025 728.603943,674.326294 727.723267,665.658691 
	C726.631165,654.909729 729.356628,645.684998 739.497375,640.173828 
	C747.920837,635.595886 757.220215,634.922729 766.610596,634.602600 
	C769.366089,634.508545 773.375549,636.803650 774.737793,632.293945 
	C776.076111,627.863647 772.862976,621.396240 768.699402,619.687622 
	C762.640015,617.200928 756.582092,618.317017 750.634949,620.238831 
	C745.837219,621.789307 741.520081,624.298584 737.534119,627.378479 
	C736.519165,628.162720 735.688660,629.336853 734.172852,629.096802 
	C730.495605,619.239258 733.309448,611.259888 742.160583,606.906128 
	C752.355774,601.891541 763.055908,600.381287 774.208618,602.950317 
	C787.626709,606.041260 795.193359,616.141541 795.134094,631.321167 
	C795.095764,641.145020 794.454895,650.966614 794.418457,660.790466 
	C794.395630,666.939453 794.900940,673.097595 795.349792,679.238403 
	C795.601074,682.676697 794.262085,684.204041 790.824158,684.054993 
	C788.828979,683.968445 786.825623,684.082764 784.825989,684.081543 
	C776.810913,684.076538 776.810913,684.072937 775.511292,675.959961 
M747.334595,659.682190 
	C747.755615,665.721619 749.697632,668.189331 755.443054,669.197388 
	C761.163025,670.200989 766.270935,668.390137 770.807068,664.936401 
	C774.292603,662.282532 777.031738,653.724426 774.956787,650.003540 
	C772.949280,646.403381 768.940186,648.794556 765.860413,648.334045 
	C762.693054,647.860352 759.572327,648.763977 756.535339,649.585632 
	C751.720276,650.888306 748.138306,653.549255 747.334595,659.682190 
z"/>
<path fill="#000000" opacity="1.000000" stroke="none" 
	d="
M421.942261,638.999268 
	C421.943787,629.008606 422.076294,619.514893 421.874756,610.028259 
	C421.786682,605.880615 423.343262,604.600952 427.433075,604.603638 
	C441.918793,604.613037 441.940002,604.483765 441.964081,619.021606 
	C441.996368,638.502930 442.005402,657.984192 441.995514,677.465515 
	C441.992340,683.679504 441.610352,684.032288 435.588898,684.121582 
	C435.422424,684.124023 435.255859,684.125549 435.089386,684.123413 
	C431.594025,684.079651 427.948212,684.650085 424.640320,683.840088 
	C420.223999,682.758728 424.444611,677.542664 421.139618,675.339050 
	C420.461304,675.248108 419.899200,675.963135 419.424133,676.590576 
	C411.289673,687.334045 395.151459,687.210144 385.555542,682.953735 
	C377.338623,679.308960 372.940735,672.473267 372.779205,663.648926 
	C372.444000,645.339050 372.718048,627.018677 372.583038,608.703735 
	C372.560150,605.602356 373.648285,604.534851 376.622742,604.666626 
	C379.946136,604.813721 383.300842,604.916687 386.606842,604.631836 
	C390.944366,604.258240 392.429169,605.839050 392.362122,610.276367 
	C392.133301,625.425049 392.248962,640.579407 392.296478,655.731384 
	C392.321320,663.658936 396.331482,667.446777 404.193451,667.944397 
	C412.480652,668.468872 423.281433,662.093140 422.048492,650.482422 
	C421.663635,646.858215 421.955505,643.162170 421.942261,638.999268 
z"/>
<path fill="#000000" opacity="1.000000" stroke="none" 
	d="
M342.369507,604.677124 
	C347.153748,604.686035 351.485321,604.791626 355.809540,604.658386 
	C358.860443,604.564453 360.426300,605.479919 360.368622,608.869934 
	C360.138550,622.397644 361.685974,620.012512 349.475067,620.267334 
	C336.641327,620.535156 338.252167,618.061340 338.149963,631.652649 
	C338.079865,640.974609 338.097870,650.298828 338.217194,659.620178 
	C338.317535,667.455566 341.165833,670.191223 348.972656,669.616821 
	C352.527161,669.355286 356.020355,668.260437 359.820923,667.486572 
	C360.298218,671.216553 360.749237,674.640869 361.170319,678.068787 
	C361.430237,680.185120 360.480408,681.541565 358.509552,682.307312 
	C347.750763,686.487610 337.059143,686.878906 326.717224,681.216064 
	C319.761230,677.407227 317.921021,670.627502 317.816742,663.363953 
	C317.637512,650.880737 317.612244,638.389832 317.861176,625.908875 
	C317.947968,621.559387 316.636017,620.012268 312.198853,620.172607 
	C305.696228,620.407654 305.684845,620.137085 305.674164,613.477539 
	C305.671753,611.979248 305.788483,610.472717 305.669342,608.984436 
	C305.407166,605.710144 306.915222,604.557129 310.085236,604.662964 
	C318.265869,604.936096 317.734741,605.198792 317.734100,596.652649 
	C317.733185,584.292969 317.092010,587.132996 327.520874,584.883484 
	C338.068817,582.608337 338.128906,582.885437 338.156830,593.749207 
	C338.162842,596.079895 338.240356,598.413513 338.150085,600.740479 
	C338.046051,603.422424 339.076233,604.875671 342.369507,604.677124 
z"/>
<path fill="#000000" opacity="1.000000" stroke="none" 
	d="
M694.343262,655.001587 
	C694.343811,663.321838 694.173340,671.147827 694.415894,678.960938 
	C694.539917,682.956604 692.945740,684.070557 689.172791,684.163513 
	C674.753601,684.518555 674.750793,684.620605 674.731140,670.233459 
	C674.703857,650.265930 674.794189,630.297302 674.577637,610.331848 
	C674.530823,606.012268 675.755859,604.051086 680.201233,604.670654 
	C681.180420,604.807007 682.195190,604.688660 683.193542,604.687561 
	C694.190002,604.675659 694.190002,604.675659 694.449951,616.264832 
	C698.875549,608.449951 704.790649,603.304260 713.476929,601.941162 
	C721.262756,600.719360 723.383179,602.401550 723.307617,610.175293 
	C723.264343,614.631042 723.782043,619.122925 722.866394,623.578125 
	C720.498474,624.526733 718.536987,623.249390 716.520996,622.810730 
	C704.708923,620.240784 694.712891,627.932312 694.374329,640.026123 
	C694.239380,644.847900 694.346313,649.676514 694.343262,655.001587 
z"/>
<path fill="#000000" opacity="1.000000" stroke="none" 
	d="
M558.072754,684.124878 
	C548.788940,684.087036 548.931030,683.927368 549.237427,675.137939 
	C549.910400,655.828857 549.732117,636.508240 549.334229,617.191345 
	C549.253052,613.247864 549.322510,609.301331 549.322510,605.211914 
	C555.548523,604.301025 561.016357,604.759766 566.462952,604.774048 
	C569.401306,604.781738 569.298096,607.015503 569.301086,609.043884 
	C569.315186,618.538818 569.308716,628.033752 569.307861,637.528687 
	C569.306702,650.521729 569.302246,663.514832 569.302795,676.507874 
	C569.303101,684.115417 569.306213,684.116089 561.550842,684.136230 
	C560.551331,684.138794 559.551880,684.130127 558.072754,684.124878 
z"/>
<path fill="#000000" opacity="1.000000" stroke="none" 
	d="
M495.413269,736.764282 
	C498.363983,737.947693 501.070679,736.333313 503.371429,736.814819 
	C508.297516,737.845947 512.802734,737.709656 517.762939,736.578918 
	C522.190918,735.569519 525.379517,738.778259 525.750977,743.476624 
	C526.116882,748.104797 525.978088,752.778259 525.936035,757.430664 
	C525.920166,759.180176 525.383240,760.845703 523.111633,760.731689 
	C520.788513,760.615173 520.699951,758.857422 520.686951,757.126648 
	C520.661987,753.800110 520.805359,750.463318 520.587646,747.150024 
	C520.415833,744.536133 520.305359,741.334351 516.532288,741.474792 
	C513.165161,741.600159 512.317932,744.243408 512.264404,747.153931 
	C512.200256,750.646057 512.210388,754.139587 512.145691,757.631714 
	C512.116028,759.231384 511.737640,760.690063 509.753174,760.789551 
	C507.645966,760.895264 506.760590,759.693970 506.745117,757.708679 
	C506.715271,753.883240 506.708405,750.057556 506.662048,746.232361 
	C506.634094,743.924866 506.171509,741.679932 503.396240,741.455139 
	C500.361603,741.209290 498.680756,743.204468 498.466949,745.962585 
	C498.159088,749.933167 498.312775,753.939331 498.262756,757.930176 
	C498.240417,759.711731 497.389984,760.776611 495.551697,760.780457 
	C494.052307,760.783569 492.864777,760.112366 492.860138,758.478638 
	C492.841217,751.830505 492.894226,745.181763 492.978027,738.533997 
	C492.993225,737.331848 493.928528,736.896484 495.413269,736.764282 
z"/>
<path fill="#000000" opacity="1.000000" stroke="none" 
	d="
M804.362061,736.890747 
	C804.825378,737.097656 804.967407,737.249756 805.113953,737.254272 
	C812.437927,737.480042 812.427612,737.478638 812.410522,745.445557 
	C812.399475,750.596069 812.531250,755.749451 812.400696,760.896545 
	C812.287109,765.374023 810.027161,768.403625 805.637207,769.688110 
	C801.003296,771.043823 796.714294,770.455078 793.083130,767.129272 
	C791.908752,766.053711 790.480652,764.621033 792.368164,762.947205 
	C793.919556,761.571350 795.283569,761.981995 796.618835,763.524536 
	C798.741333,765.976440 801.524963,766.314270 804.345032,765.081787 
	C806.629028,764.083740 807.324829,762.121460 806.369873,759.351013 
	C801.168274,760.612793 795.670288,761.836609 792.470154,755.837952 
	C789.686584,750.620300 789.841553,745.099548 792.976379,740.132996 
	C795.503174,736.129883 799.630798,735.530640 804.362061,736.890747 
M796.276367,747.609924 
	C796.292114,751.437805 796.488586,755.453613 801.585632,755.499695 
	C805.752075,755.537292 807.057983,752.368225 807.231506,748.677246 
	C807.402222,745.044800 806.682983,741.844666 802.363525,741.333923 
	C798.461060,740.872498 796.469421,742.927917 796.276367,747.609924 
z"/>
<path fill="#000000" opacity="1.000000" stroke="none" 
	d="
M335.267883,736.917847 
	C337.352295,737.977783 337.990143,737.217224 338.032318,735.449463 
	C338.083832,733.292114 338.114258,731.130920 338.277893,728.980835 
	C338.401642,727.354675 339.085785,726.101624 341.009460,726.074524 
	C342.949036,726.047241 343.743073,727.287659 343.750885,728.921570 
	C343.797668,738.715210 343.781097,748.509460 343.709106,758.302917 
	C343.698547,759.736511 342.457428,761.538574 341.357666,760.786255 
	C337.956329,758.459290 335.222839,761.351929 332.179169,761.366394 
	C327.262299,761.389771 324.025879,759.007874 322.415588,753.805847 
	C319.636658,744.828369 324.473206,733.702881 335.267883,736.917847 
M336.906860,754.537292 
	C338.899200,752.117188 338.692108,749.184692 338.428711,746.424500 
	C338.057037,742.529541 334.127991,740.215210 330.756714,741.576294 
	C327.370941,742.943176 325.997192,749.212463 328.254669,753.595337 
	C330.282043,757.531372 333.157471,757.570984 336.906860,754.537292 
z"/>
<path fill="#000000" opacity="1.000000" stroke="none" 
	d="
M480.953156,741.839844 
	C486.074646,743.795166 488.628387,747.125122 488.006317,752.339417 
	C487.444763,757.046570 483.506531,760.651123 478.586182,761.273499 
	C472.427979,762.052429 467.019989,759.911072 465.232208,755.731567 
	C464.492920,754.003174 463.158325,751.653320 465.301910,750.297668 
	C467.864624,748.677002 468.893677,750.844299 469.974976,752.947388 
	C471.862366,756.618408 475.248596,757.333130 478.956635,756.395386 
	C481.001282,755.878296 482.368439,754.391663 482.651245,752.142944 
	C482.916016,750.038330 481.946411,748.465576 480.167633,747.668030 
	C477.450439,746.449951 474.607880,745.502930 471.793121,744.513123 
	C467.551880,743.021606 464.931885,740.043152 465.163849,735.590881 
	C465.414642,730.777832 468.384796,727.760742 473.154022,726.591797 
	C478.910736,725.180908 485.180908,727.682373 486.712067,732.147156 
	C487.245087,733.701416 487.955750,735.568787 485.914948,736.504211 
	C484.169189,737.304443 482.580139,736.593811 481.893860,734.720154 
	C480.948059,732.138123 479.053497,731.158386 476.483978,731.185852 
	C474.057678,731.211731 471.659027,731.504639 470.967316,734.381531 
	C470.274658,737.262573 472.148682,738.691589 474.463440,739.610962 
	C476.468262,740.407227 478.548187,741.014343 480.953156,741.839844 
z"/>
<path fill="#000000" opacity="1.000000" stroke="none" 
	d="
M564.754272,574.749146 
	C570.590576,579.066040 572.142029,585.575256 568.868713,590.595764 
	C565.790894,595.316162 558.441040,596.831360 553.230713,593.819519 
	C548.308228,590.974060 546.452698,584.864807 548.879456,579.492920 
	C551.270508,574.200012 556.760498,572.462036 564.754272,574.749146 
z"/>
<path fill="#000000" opacity="1.000000" stroke="none" 
	d="
M263.481720,756.582275 
	C267.614624,756.992249 270.865143,755.913574 271.332031,751.851074 
	C271.756287,748.159668 268.596039,747.070801 265.568268,746.120605 
	C262.887665,745.279297 260.164093,744.294800 257.782410,742.843506 
	C253.736359,740.378113 252.730530,736.265747 254.653198,731.978516 
	C256.594269,727.650208 261.691437,725.442139 267.356018,726.475708 
	C273.344543,727.568420 275.166992,729.665466 275.431824,735.868286 
	C273.157776,736.837769 271.468079,736.697571 270.265747,734.039856 
	C269.065125,731.386047 266.512634,731.020325 263.870300,731.189697 
	C261.666901,731.330994 259.926697,732.184021 259.488098,734.509705 
	C259.051483,736.825012 260.369934,738.436096 262.314758,739.277527 
	C264.751587,740.331665 267.344849,741.021729 269.863007,741.890808 
	C274.253357,743.406189 277.055908,746.369690 276.804016,751.124329 
	C276.554718,755.829895 274.006409,759.242981 269.380920,760.793701 
	C263.020630,762.926147 255.697433,760.189087 253.562119,754.872314 
	C252.889267,753.196960 251.873199,751.209229 254.315903,750.186829 
	C256.301666,749.355652 257.802856,750.113281 258.485291,752.379272 
	C259.161926,754.626038 260.869781,755.919678 263.481720,756.582275 
z"/>
<path fill="#000000" opacity="1.000000" stroke="none" 
	d="
M216.730743,742.817261 
	C218.501022,738.104492 219.986145,733.686035 221.861832,729.440063 
	C223.344955,726.082642 226.969147,725.673340 228.255829,728.828918 
	C232.429260,739.064148 236.151764,749.483276 240.076981,759.908813 
	C235.901947,762.010620 233.997284,760.300598 233.273758,757.102661 
	C232.133911,752.064514 228.539093,752.170715 224.527588,752.042297 
	C220.497177,751.913391 217.932571,752.876709 216.920746,757.166748 
	C216.267838,759.934937 214.613586,762.047607 210.521973,759.843994 
	C212.553497,754.289062 214.583786,748.737549 216.730743,742.817261 
M221.386826,745.100037 
	C223.191956,749.049194 226.068909,746.916809 229.405563,746.629883 
	C228.021835,742.538879 226.787643,738.890076 225.194427,734.179749 
	C223.699020,738.329346 222.600128,741.378723 221.386826,745.100037 
z"/>
<path fill="#000000" opacity="1.000000" stroke="none" 
	d="
M691.511353,748.451660 
	C695.034363,745.425537 699.304138,746.185913 703.057739,745.166748 
	C701.646057,740.754089 699.073547,739.756653 695.994080,742.627319 
	C694.272522,744.232178 692.817139,744.815430 690.454346,743.812317 
	C690.390991,738.544617 694.092285,736.691956 698.308655,736.148499 
	C702.392151,735.622314 706.603638,736.544067 708.063843,741.141479 
	C709.852539,746.773254 709.055176,752.675659 708.827515,758.476318 
	C708.766479,760.032532 707.534790,761.272949 706.186401,760.723450 
	C703.279297,759.538757 700.763916,760.783020 698.064636,761.215820 
	C694.868103,761.728394 692.091248,760.704529 690.313232,757.855225 
	C688.299561,754.628235 688.711121,751.543701 691.511353,748.451660 
M695.339905,752.771484 
	C694.942810,755.276428 695.995178,756.817627 698.540894,756.499451 
	C701.637573,756.112549 703.623657,754.465454 703.050598,750.440308 
	C700.347046,750.603088 697.680054,749.477722 695.339905,752.771484 
z"/>
<path fill="#000000" opacity="1.000000" stroke="none" 
	d="
M664.651611,752.117920 
	C663.759216,742.652405 666.514099,737.758606 673.333496,736.248108 
	C680.053894,734.759460 686.415955,740.147095 686.259399,747.060852 
	C686.206116,749.416260 685.172607,750.351929 682.935913,750.332031 
	C680.113892,750.306946 677.289001,750.275574 674.470032,750.377563 
	C672.934631,750.433105 670.737366,749.781189 670.514709,752.205688 
	C670.306396,754.473999 671.882263,755.906372 673.950317,756.502197 
	C675.992920,757.090637 677.889160,756.534912 679.481812,755.073547 
	C681.067993,753.618103 682.791748,752.944702 685.276550,754.351562 
	C684.142761,759.023315 680.906616,760.997803 676.449341,761.354431 
	C670.031067,761.867859 666.703125,759.299072 664.651611,752.117920 
M671.139893,745.199951 
	C674.130066,745.972900 677.093994,746.363770 679.984924,744.870728 
	C679.723999,741.936584 677.891479,740.871277 675.628967,740.837158 
	C673.204529,740.800354 671.099731,741.700684 671.139893,745.199951 
z"/>
<path fill="#000000" opacity="1.000000" stroke="none" 
	d="
M598.087158,735.887268 
	C605.653137,737.281494 608.848999,740.411255 609.244202,746.255859 
	C609.420593,748.862854 608.660645,750.424255 605.719849,750.338013 
	C602.897888,750.255249 600.069763,750.281555 597.247375,750.364014 
	C595.841980,750.405090 593.939026,749.919678 593.582581,751.975342 
	C593.221924,754.055847 594.564392,755.502258 596.343079,756.233398 
	C598.655396,757.183899 600.947388,756.938477 602.748230,754.987366 
	C604.277710,753.330261 605.937744,752.691223 608.381104,754.046570 
	C607.883545,758.745667 604.592041,760.538147 600.533264,761.289124 
	C595.284851,762.260254 590.584167,759.800903 588.576599,755.328735 
	C584.773865,746.857605 588.784485,738.303345 598.087158,735.887268 
M598.498474,740.724731 
	C595.895630,741.122742 593.841187,742.036743 593.952637,745.438171 
	C597.233276,745.716553 600.243286,746.367737 603.129761,744.950867 
	C602.917969,742.197998 601.184204,741.361694 598.498474,740.724731 
z"/>
<path fill="#000000" opacity="1.000000" stroke="none" 
	d="
M549.342285,753.872681 
	C548.953796,757.632996 550.943115,763.434875 543.751831,759.532227 
	C543.228821,759.248413 542.024658,760.343689 541.092346,760.669495 
	C536.119690,762.407532 531.436951,760.383362 530.089783,755.952271 
	C528.799011,751.706482 531.372253,747.914124 536.527832,746.494934 
	C537.488953,746.230347 538.474121,746.054016 539.442017,745.812439 
	C540.910522,745.445862 543.079651,746.395569 543.441162,743.947998 
	C543.536438,743.303467 542.972961,742.253113 542.394592,741.876160 
	C540.735046,740.794373 538.935852,740.875183 537.238098,741.970520 
	C533.752808,744.218750 533.754150,744.220825 531.299438,743.962646 
	C531.547058,738.976318 535.145813,735.752563 540.348450,735.856750 
	C545.683716,735.963501 549.100281,738.962891 549.303955,743.900696 
	C549.434204,747.061096 549.337219,750.230957 549.342285,753.872681 
M543.604553,753.506104 
	C544.208557,751.852417 544.233826,750.468628 541.950806,750.385193 
	C539.785217,750.306030 537.545349,750.120483 536.160767,752.357788 
	C535.446899,753.511292 535.633179,754.589478 536.559448,755.528931 
	C537.928894,756.917908 539.566162,756.916199 541.142578,756.078247 
	C541.979736,755.633240 542.599243,754.778687 543.604553,753.506104 
z"/>
<path fill="#000000" opacity="1.000000" stroke="none" 
	d="
M433.773499,753.187744 
	C430.353058,761.064575 423.791321,763.677429 417.090668,760.169617 
	C411.019165,756.991211 408.974701,748.033447 412.791718,741.334045 
	C415.950134,735.790588 423.697693,734.144226 429.318542,738.039917 
	C434.596008,741.697571 434.803284,747.119934 433.773499,753.187744 
M420.457550,741.086609 
	C416.223633,744.806885 415.228851,749.581787 417.872101,753.918152 
	C419.778107,757.044983 422.731079,757.762878 425.574982,755.854980 
	C429.045166,753.526855 429.275482,749.608826 428.358704,745.920227 
	C427.480499,742.387024 425.317352,739.975647 420.457550,741.086609 
z"/>
<path fill="#000000" opacity="1.000000" stroke="none" 
	d="
M380.488739,741.860718 
	C382.532715,746.359497 382.784851,750.577332 380.931915,754.770996 
	C379.091125,758.937378 375.858765,761.189697 371.242493,761.432312 
	C366.470856,761.683105 362.826385,759.939026 360.542908,755.640625 
	C357.260254,749.461243 359.004333,741.063782 364.249695,737.778076 
	C369.889038,734.245544 375.806671,735.622559 380.488739,741.860718 
M376.636322,748.521423 
	C375.451782,742.362061 372.988647,739.752197 369.265503,740.711426 
	C365.554596,741.667480 363.395416,746.728577 364.760742,751.442078 
	C365.077759,752.536621 365.502686,753.670837 366.160461,754.583069 
	C368.484344,757.806091 373.386017,757.531433 375.218689,754.016174 
	C375.962067,752.590332 376.166534,750.883423 376.636322,748.521423 
z"/>
<path fill="#000000" opacity="1.000000" stroke="none" 
	d="
M318.223145,752.894409 
	C318.179657,755.036194 318.192322,756.701172 318.080078,758.357727 
	C317.956970,760.174622 316.506592,761.600708 315.156708,760.806274 
	C312.129913,759.024719 309.620972,760.737244 306.865112,761.086243 
	C302.252594,761.670532 298.402313,758.636963 297.675812,753.913818 
	C296.838013,748.467346 296.661499,742.998413 297.868927,737.335022 
	C301.267181,736.037109 303.204376,736.826843 303.175293,740.852966 
	C303.152466,744.012024 303.167145,747.171692 303.197601,750.330750 
	C303.222260,752.887939 303.176147,755.681091 306.721466,755.796631 
	C310.277405,755.912537 312.355164,753.891846 312.589386,750.384216 
	C312.810547,747.072083 312.648163,743.735718 312.713684,740.411194 
	C312.746521,738.745056 312.674011,736.946228 315.126251,736.849487 
	C317.717316,736.747375 318.101410,738.453430 318.125641,740.442810 
	C318.174225,744.433044 318.193115,748.423523 318.223145,752.894409 
z"/>
<path fill="#000000" opacity="1.000000" stroke="none" 
	d="
M749.825623,760.642578 
	C746.423218,761.131897 745.711853,759.404602 745.740112,756.850464 
	C745.780640,753.190491 745.731323,749.529175 745.682373,745.868835 
	C745.645996,743.149780 744.421143,741.381226 741.536682,741.298218 
	C738.599792,741.213684 736.657532,742.722717 736.435364,745.637634 
	C736.157837,749.279358 736.309448,752.952881 736.246521,756.612183 
	C736.211731,758.635010 736.333984,760.870483 733.363831,760.827332 
	C730.718140,760.788818 730.721741,758.771484 730.714355,756.900818 
	C730.692627,751.409851 730.681824,745.918457 730.732544,740.427795 
	C730.745911,738.981079 730.657471,736.684021 732.577332,736.992188 
	C736.502808,737.622192 740.051331,735.642273 743.776306,735.928894 
	C746.865173,736.166565 749.894897,737.601501 750.515869,740.962952 
	C751.712524,747.441284 752.271301,754.007080 749.825623,760.642578 
z"/>
<path fill="#000000" opacity="1.000000" stroke="none" 
	d="
M786.337280,743.412109 
	C786.359802,748.187317 786.385559,752.510254 786.359314,756.832886 
	C786.348694,758.581787 786.921509,760.792236 784.040100,760.838684 
	C781.217957,760.884094 780.953186,758.833008 780.926758,756.720947 
	C780.885193,753.396057 780.900635,750.070496 780.883179,746.745178 
	C780.868347,743.927551 780.674500,741.155762 776.815125,741.292480 
	C773.465454,741.411011 771.581909,743.331299 771.415161,746.628174 
	C771.238831,750.111694 771.379700,753.610168 771.301941,757.100281 
	C771.265991,758.717285 771.490601,760.700928 769.046814,760.782898 
	C766.640686,760.863708 765.958496,759.224915 765.953064,757.163635 
	C765.938110,751.511169 765.925354,745.858521 765.966675,740.206360 
	C765.976257,738.891296 766.144165,736.776367 767.588745,737.044006 
	C771.816284,737.827087 775.676331,735.355774 779.698364,735.982666 
	C783.426025,736.563721 786.048462,738.798462 786.337280,743.412109 
z"/>
<path fill="#000000" opacity="1.000000" stroke="none" 
	d="
M647.301453,733.133301 
	C647.300659,739.445557 647.473511,745.281982 647.240173,751.102173 
	C647.089478,754.860596 648.573730,756.214539 652.196716,755.994263 
	C654.679382,755.843323 657.189331,756.039551 659.681396,756.180969 
	C661.153137,756.264465 662.242920,756.928589 662.197510,758.642029 
	C662.152649,760.334351 661.062134,761.000916 659.581543,761.011292 
	C654.587585,761.045898 649.591125,761.081055 644.599609,760.956543 
	C641.848389,760.887817 641.654968,758.791443 641.658386,756.659302 
	C641.671997,748.164856 641.644714,739.670227 641.682312,731.175964 
	C641.690979,729.210571 641.436584,726.887268 644.457703,726.882568 
	C647.450073,726.877869 647.205078,729.158203 647.290466,731.151733 
	C647.311829,731.650635 647.299622,732.150940 647.301453,733.133301 
z"/>
<path fill="#000000" opacity="1.000000" stroke="none" 
	d="
M408.057312,741.061646 
	C405.239594,741.684631 405.181213,743.551392 405.176117,745.446716 
	C405.166687,748.945557 405.244293,752.447449 405.120728,755.942139 
	C405.048492,757.984131 405.566956,760.739441 402.208405,760.635437 
	C399.186401,760.541931 399.745178,758.022705 399.695740,756.123230 
	C399.613373,752.959534 399.686554,749.792114 399.654846,746.626648 
	C399.632111,744.355286 400.149078,741.946106 397.035126,740.901611 
	C395.521362,740.393921 395.331207,738.082214 396.390350,737.637634 
	C400.017273,736.115662 399.332184,732.943970 400.050751,730.188171 
	C400.828369,727.206238 403.276123,726.052673 406.165131,726.028992 
	C407.666199,726.016663 409.252716,726.453125 409.744568,728.179077 
	C410.295349,730.111877 408.990295,730.517334 407.440704,731.215820 
	C404.259430,732.649963 404.106567,734.928833 407.210663,736.596680 
	C409.438446,737.793701 409.683746,738.985840 408.057312,741.061646 
z"/>
<path fill="#000000" opacity="1.000000" stroke="none" 
	d="
M288.239563,732.330322 
	C288.188599,734.948730 288.730591,736.655945 291.409180,736.865234 
	C292.565857,736.955627 293.092621,737.809021 293.128632,738.944153 
	C293.164520,740.075378 292.691559,741.049377 291.559357,741.133606 
	C288.142639,741.388000 288.274872,743.765686 288.312744,746.175476 
	C288.344208,748.174072 288.357117,750.174194 288.318481,752.172485 
	C288.272827,754.529602 288.613373,756.562561 291.562500,756.818359 
	C292.933868,756.937317 293.733795,757.619812 293.559753,759.092590 
	C293.395691,760.481018 292.426605,760.953125 291.184387,761.237610 
	C286.953522,762.206787 283.498199,759.921448 282.998352,755.451294 
	C282.685211,752.650879 282.870789,749.795166 282.822510,746.964417 
	C282.802643,745.799438 282.932220,744.596252 282.686554,743.477966 
	C282.118866,740.894104 282.289948,735.004761 283.176147,732.947815 
	C284.362518,730.194031 285.945618,729.385803 288.239563,732.330322 
z"/>
<path fill="#000000" opacity="1.000000" stroke="none" 
	d="
M573.737061,748.149231 
	C573.462646,745.218323 574.768188,742.212097 571.347839,740.783813 
	C571.012146,740.643616 570.812622,739.973938 570.709412,739.514160 
	C570.152222,737.033630 575.922791,730.926025 578.889404,731.087830 
	C579.474731,733.521851 578.968018,736.474609 582.993530,737.228455 
	C585.038452,737.611389 584.600037,740.204224 582.363342,741.134033 
	C576.484253,743.578064 580.239563,748.577576 579.388977,752.327576 
	C578.880737,754.568359 579.497437,756.733215 582.598816,756.742798 
	C583.887573,756.746765 584.257507,757.591431 584.255554,758.727966 
	C584.253174,760.084778 583.589111,760.795471 582.280334,761.183472 
	C578.576843,762.281311 574.730164,760.090210 574.030457,756.058350 
	C573.609070,753.630188 573.814087,751.093384 573.737061,748.149231 
z"/>
<path fill="#000000" opacity="1.000000" stroke="none" 
	d="
M554.762756,743.161377 
	C554.731140,738.600342 554.810974,734.846191 560.788391,737.600708 
	C561.812622,738.072632 563.563660,736.865845 565.005737,736.562134 
	C566.321960,736.284973 567.889526,736.064514 568.449219,737.647766 
	C568.974792,739.134460 568.600525,741.127258 566.975586,741.387634 
	C559.653564,742.560913 560.374512,747.896851 560.172363,753.169861 
	C560.073730,755.744019 562.165710,760.366943 557.790771,760.516418 
	C552.684692,760.690857 555.261719,755.794189 554.894714,753.117188 
	C554.468750,750.009583 554.775024,746.801514 554.762756,743.161377 
z"/>
<path fill="#000000" opacity="1.000000" stroke="none" 
	d="
M613.841431,738.291138 
	C617.775146,737.463928 621.600891,736.972107 625.441406,736.662537 
	C626.581970,736.570435 627.121765,737.531555 627.202698,738.664185 
	C627.312256,740.195740 626.762634,741.393921 625.172058,741.579102 
	C619.313904,742.261230 618.647522,746.263000 618.916199,750.996399 
	C619.019592,752.818176 618.972229,754.657837 618.854309,756.480347 
	C618.730225,758.397827 619.088928,760.845886 616.031860,760.726990 
	C613.318054,760.621643 613.633057,758.406799 613.630127,756.637329 
	C613.620239,750.657043 613.696045,744.676636 613.841431,738.291138 
z"/>
<path fill="#000000" opacity="1.000000" stroke="none" 
	d="
M719.998230,753.856079 
	C719.937012,755.470093 719.930359,756.632263 719.808533,757.782166 
	C719.640747,759.365234 719.153687,760.755005 717.179932,760.734863 
	C715.217041,760.714783 714.689148,759.436951 714.687988,757.756653 
	C714.683716,751.632080 714.683716,745.507446 714.685791,739.382874 
	C714.686340,737.869690 715.789062,736.077759 716.837952,736.902954 
	C720.561340,739.832397 724.638062,733.799072 727.860901,737.599182 
	C728.801453,738.708191 728.366821,741.027161 726.649109,741.274597 
	C718.859497,742.396240 720.061157,748.192017 719.998230,753.856079 
z"/>
<path fill="#000000" opacity="1.000000" stroke="none" 
	d="
M448.000122,736.665161 
	C449.986328,736.514893 451.846191,736.046448 452.191559,738.505371 
	C452.528076,740.901001 451.109375,741.750671 449.015076,742.009277 
	C445.303894,742.467712 444.061646,744.861084 444.075806,748.298584 
	C444.088135,751.291687 444.026886,754.286499 443.928223,757.278198 
	C443.870300,759.034668 443.487061,760.710449 441.252899,760.766663 
	C438.903870,760.825745 438.681458,759.124878 438.680206,757.349792 
	C438.676025,751.528259 438.685577,745.706665 438.685547,739.885132 
	C438.685516,736.776306 440.741669,735.681641 442.814423,737.291260 
	C445.104767,739.069763 446.079651,736.883301 448.000122,736.665161 
z"/>
<path fill="#000000" opacity="1.000000" stroke="none" 
	d="
M761.208557,754.809753 
	C761.175903,756.273804 761.174438,757.268005 761.108154,758.257812 
	C761.005066,759.796753 760.218079,760.735779 758.617310,760.759766 
	C756.839111,760.786438 755.778503,759.893555 755.765259,758.079407 
	C755.720581,751.955017 755.716187,745.830383 755.724792,739.705811 
	C755.727112,738.026062 756.328186,736.841003 758.294373,736.803650 
	C760.487732,736.761902 761.186829,738.006042 761.190186,739.935608 
	C761.198608,744.736389 761.203979,749.537109 761.208557,754.809753 
z"/>
<path fill="#000000" opacity="1.000000" stroke="none" 
	d="
M349.564941,753.545410 
	C349.572113,748.787231 349.654877,744.478088 349.556702,740.173035 
	C349.480469,736.830627 350.932800,736.060120 354.330811,737.401978 
	C354.330811,744.177307 354.339478,751.100525 354.324829,758.023743 
	C354.321075,759.790344 353.556885,760.857727 351.614899,760.719788 
	C349.877136,760.596191 349.458801,759.417725 349.451080,757.969299 
	C349.444031,756.645203 349.522034,755.320618 349.564941,753.545410 
z"/>
<path fill="#000000" opacity="1.000000" stroke="none" 
	d="
M352.031311,726.513428 
	C355.048523,727.362122 355.726440,729.140015 354.273987,731.412964 
	C353.355011,732.851196 351.290039,733.079407 350.397461,731.938171 
	C348.884827,730.004150 348.619507,727.699158 352.031311,726.513428 
z"/>
<path fill="#000000" opacity="1.000000" stroke="none" 
	d="
M755.863159,728.376770 
	C757.267578,726.093811 758.989563,726.123535 760.532959,727.440979 
	C761.588867,728.342407 761.448059,729.855896 760.908691,731.103760 
	C760.368469,732.353333 759.177002,732.456787 757.994385,732.339722 
	C755.710510,732.113770 755.661255,730.474365 755.863159,728.376770 
z"/>
</svg>