<?xml version="1.0" encoding="UTF-8"?>
<svg version="1.1" xmlns="http://www.w3.org/2000/svg" width="1024" height="1024">
<path d="M0 0 C337.92 0 675.84 0 1024 0 C1024 337.92 1024 675.84 1024 1024 C686.08 1024 348.16 1024 0 1024 C0 686.08 0 348.16 0 0 Z " fill="#FBF9F8" transform="translate(0,0)"/>
<path d="M0 0 C9.29713806 4.37044952 18.5712919 8.78193895 27.80859375 13.27734375 C28.58161331 13.65348312 29.35463287 14.0296225 30.15107727 14.41716003 C34.06859014 16.3241614 37.98479151 18.2338128 41.8996582 20.14624023 C43.37579893 20.86575318 44.85195394 21.5852368 46.328125 22.3046875 C46.9973851 22.63254745 47.6666452 22.96040741 48.35618591 23.29820251 C50.23170253 24.21139315 52.11530839 25.10594103 54 26 C54.6127478 26.30730042 55.22549561 26.61460083 55.85681152 26.93121338 C59.69009446 28.75712167 61.96376155 29.40766772 66 28 C67.91008649 27.22412418 69.79703501 26.39005169 71.6640625 25.515625 C72.77394531 24.99846924 73.88382812 24.48131348 75.02734375 23.94848633 C76.80818359 23.1077356 76.80818359 23.1077356 78.625 22.25 C79.86313737 21.66985885 81.10142084 21.09002941 82.33984375 20.51049805 C96.62219814 13.81284872 110.89068982 7.05465509 125 0 C125 10.23 125 20.46 125 31 C125.99 30.505 125.99 30.505 127 30 C152.74660314 28.7490351 152.74660314 28.7490351 162 35 C163.79335354 36.79335354 163.17176612 39.48654808 163.20532227 41.91015625 C163.22524231 43.18956589 163.24516235 44.46897552 163.26568604 45.78715515 C163.28273757 47.21226838 163.2996396 48.6373834 163.31640625 50.0625 C163.33727375 51.54348747 163.35850108 53.02446991 163.38006592 54.50544739 C163.44836148 59.33688096 163.50576472 64.16841914 163.5625 69 C163.58250247 70.65188656 163.60255255 72.30377255 163.62265015 73.95565796 C163.73398809 83.19622568 163.83374506 92.43687431 163.92521954 101.67765903 C163.97941089 107.11283277 164.04132802 112.54786947 164.10742188 117.98291016 C164.188253 124.69142693 164.24592632 131.39974059 164.28610229 138.10864258 C164.3036629 140.57256754 164.3279868 143.03645382 164.35916138 145.50024414 C164.4004362 148.90270481 164.4165568 152.3043544 164.42578125 155.70703125 C164.44324402 156.70152786 164.46070679 157.69602448 164.47869873 158.72065735 C164.45793936 165.26446779 164.45793936 165.26446779 162.36401367 168.62768555 C159.27440473 170.42120944 157.31232413 170.39912054 153.75 170.25 C152.51137207 170.21600098 151.27274414 170.18200195 149.99658203 170.14697266 C148.67770996 170.09847168 147.35883789 170.0499707 146 170 C118.89970495 169.41881041 91.58170892 176.326529 71 195 C69.61973133 196.6280092 68.26438322 198.28043882 67 200 C63.86128812 201.56935594 61.46144178 201.35201103 58 201 C55.625 199 55.625 199 53 196 C37.4157942 179.96256226 13.99945805 171.53146857 -8 170 C-14.02943233 169.94470947 -20.05825115 170.07366576 -26.0859375 170.21484375 C-27.30023438 170.22902344 -28.51453125 170.24320313 -29.765625 170.2578125 C-30.86680664 170.2798877 -31.96798828 170.30196289 -33.10253906 170.32470703 C-36.46823498 169.94752675 -37.61415681 169.36789948 -40 167 C-40.48774719 164.44366455 -40.48774719 164.44366455 -40.4699707 161.32519531 C-40.47283081 160.14512909 -40.47569092 158.96506287 -40.4786377 157.74923706 C-40.46119507 156.45527008 -40.44375244 155.1613031 -40.42578125 153.828125 C-40.42138421 152.45639472 -40.41869805 151.08465803 -40.41760254 149.71292114 C-40.40921034 145.99798212 -40.37534447 142.2836823 -40.3355751 138.5689621 C-40.29705569 134.69790464 -40.27737492 130.82674257 -40.25463867 126.95556641 C-40.21382781 120.5349808 -40.15618946 114.1147041 -40.08984375 107.69433594 C-40.01674955 100.56457649 -39.97733757 93.43528703 -39.9588747 86.30519104 C-39.94301096 80.41775633 -39.90920337 74.53063705 -39.8598814 68.64338684 C-39.83097991 65.16799046 -39.80930459 61.69293023 -39.80581665 58.21740723 C-39.800923 54.36063696 -39.75602195 50.50491244 -39.70703125 46.6484375 C-39.71093872 45.50480743 -39.71484619 44.36117737 -39.71887207 43.18289185 C-39.69925415 42.14204437 -39.67963623 41.1011969 -39.65942383 40.02880859 C-39.65276199 39.12440033 -39.64610016 38.21999207 -39.63923645 37.28817749 C-39 35 -39 35 -36.60014343 33.23135376 C-26.08594344 28.25212857 -11.22315914 28.75536817 0 31 C0 20.77 0 10.54 0 0 Z " fill="#022F5F" transform="translate(178,413)"/>
<path d="M0 0 C4.18812776 2.61860868 8.65284985 4.67037459 13.09436035 6.81933594 C14.92223625 7.73325345 16.74839888 8.65060517 18.57287598 9.57128906 C34.7433478 17.71126543 50.93605516 25.77256121 67.30578613 33.50537109 C72.04846295 35.76675817 76.74134783 38.12877834 81.42248535 40.51464844 C81.42248535 42.49464844 81.42248535 44.47464844 81.42248535 46.51464844 C76.13090047 49.25943441 70.82907592 51.982882 65.51672363 54.68725586 C63.71168037 55.60987314 61.90955276 56.53821828 60.11047363 57.47241211 C57.52144651 58.81553248 54.92257586 60.13759284 52.32092285 61.45605469 C51.52068695 61.87681778 50.72045105 62.29758087 49.89596558 62.73109436 C45.32364688 65.01907055 42.4972207 66.19033286 37.42248535 64.51464844 C34.87806499 63.47107545 32.43271019 62.39073981 29.96154785 61.19824219 C29.25331879 60.8634938 28.54508972 60.52874542 27.81539917 60.18385315 C25.55604358 59.11358233 23.30185248 58.03288014 21.04748535 56.95214844 C19.57253236 56.25293188 18.09727409 55.55435887 16.6217041 54.85644531 C15.15142539 54.15835472 13.68137291 53.45978745 12.21154785 52.76074219 C11.48485901 52.41562592 10.75817017 52.07050964 10.00946045 51.7149353 C6.28837346 49.93442518 2.60811006 48.10201529 -1.03552246 46.16748047 C-1.75325836 45.79140152 -2.47099426 45.41532257 -3.21047974 45.02784729 C-4.5669812 44.31315453 -5.91667665 43.58532912 -7.25778198 42.84214783 C-11.44292932 40.64779321 -14.01844144 40.23735582 -18.57751465 41.51464844 C-18.57751465 42.83464844 -18.57751465 44.15464844 -18.57751465 45.51464844 C-7.2149854 51.69159387 4.32000745 57.41045464 16.0123291 62.93652344 C21.18788061 65.38637799 26.3123482 67.93148694 31.42248535 70.51464844 C28.20890086 73.12016516 24.87073161 74.87350032 21.1451416 76.65917969 C20.53794785 76.95144943 19.93075409 77.24371918 19.30516052 77.54484558 C17.367031 78.47636351 15.42603058 79.40172423 13.48498535 80.32714844 C12.21592384 80.93679722 10.94704203 81.54682022 9.67834473 82.15722656 C7.16647243 83.36445823 4.65010418 84.5615101 2.13000488 85.75146484 C-0.34159526 86.91942263 -2.7958257 88.11630507 -5.24206543 89.33642578 C-6.38530273 89.89410645 -7.52854004 90.45178711 -8.7064209 91.02636719 C-9.71906006 91.52998779 -10.73169922 92.0336084 -11.77502441 92.55249023 C-16.94542631 94.327606 -20.44562723 92.25485674 -25.19786072 89.93788147 C-25.90838089 89.58423019 -26.61890106 89.23057892 -27.35095215 88.86621094 C-28.47890953 88.31367897 -28.47890953 88.31367897 -29.62965393 87.74998474 C-32.073211 86.55175945 -34.51280966 85.34569465 -36.95251465 84.13964844 C-39.48535661 82.8953611 -42.01917259 81.65307247 -44.55302429 80.4108429 C-46.23094138 79.58802979 -47.90852443 78.76453517 -49.58576965 77.94035339 C-56.03948424 74.7703906 -62.51832995 71.65818796 -69.01501465 68.57714844 C-79.15454573 63.75445287 -89.19812908 58.74889935 -99.22497559 53.69677734 C-101.34177658 52.63310462 -103.46208374 51.57710605 -105.58532715 50.52636719 C-107.22114746 49.71619141 -107.22114746 49.71619141 -108.89001465 48.88964844 C-110.24546387 48.220625 -110.24546387 48.220625 -111.6282959 47.53808594 C-113.57751465 46.51464844 -113.57751465 46.51464844 -114.57751465 45.51464844 C-114.61815297 43.84847729 -114.62023565 42.18076749 -114.57751465 40.51464844 C-111.01249741 38.71931318 -107.44588164 36.92719057 -103.87805176 35.13745117 C-102.10198517 34.24581035 -100.32702556 33.35196555 -98.55212402 32.45800781 C-92.83407784 29.58770837 -87.10445476 26.75268079 -81.31530762 24.02783203 C-72.31877116 19.78845817 -63.40302124 15.49440922 -54.67918396 10.71305847 C-50.74140778 8.55830523 -46.77489085 6.45966401 -42.80554199 4.36376953 C-40.79955406 3.28660762 -38.80702197 2.18404907 -36.82800293 1.05810547 C-22.20659301 -7.21632123 -14.34992575 -9.34032079 0 0 Z " fill="#013163" transform="translate(256.5775146484375,340.4853515625)"/>
<path d="M0 0 C0 36.63 0 73.26 0 111 C-6.27 111.33 -12.54 111.66 -19 112 C-23.23065899 112.58155961 -27.27890203 113.19359682 -31.4375 114.0625 C-32.48607178 114.27946533 -33.53464355 114.49643066 -34.61499023 114.7199707 C-50.22601587 118.15976844 -63.84208032 124.24164185 -77.10546875 133.09375 C-80 135 -80 135 -81 135 C-81.31796632 121.22596963 -81.58341416 107.45210333 -81.79205322 93.67596436 C-81.91653995 85.85481082 -82.10653597 78.03837405 -82.34326172 70.21984863 C-82.48702237 65.1273673 -82.58424333 60.03464709 -82.67163086 54.94091797 C-82.72365255 52.49087453 -82.79526476 50.04116461 -82.88696289 47.59228516 C-83.62678933 27.35561213 -83.62678933 27.35561213 -79.74194336 22.58886719 C-76.9317803 20.22539871 -74.29597502 18.59698978 -71 17 C-69.75524269 16.19218404 -68.51567319 15.37622139 -67.28515625 14.546875 C-44.54923967 1.86987909 -27.31139063 0 0 0 Z " fill="#FAF9F8" transform="translate(328,457)"/>
<path d="M0 0 C31.83762018 0 54.46571755 4.08870631 79 24 C81 26 81 26 81.24609566 27.94838905 C81.24333028 29.1513289 81.24333028 29.1513289 81.24050903 30.37857056 C81.24325836 31.29846268 81.24600769 32.2183548 81.24884033 33.16612244 C81.2380545 34.68418236 81.2380545 34.68418236 81.22705078 36.23291016 C81.22734283 37.2963414 81.22763489 38.35977264 81.22793579 39.45542908 C81.22653835 42.98338884 81.21095756 46.51113947 81.1953125 50.0390625 C81.19158385 52.48000981 81.18873618 54.92095862 81.18673706 57.36190796 C81.17908899 63.7965099 81.15943041 70.23102201 81.1373291 76.66558838 C81.11689594 83.22756739 81.10774076 89.78956087 81.09765625 96.3515625 C81.07618564 109.2344134 81.04241826 122.11720193 81 135 C79.76969055 134.28071068 79.76969055 134.28071068 78.51452637 133.54689026 C77.43658813 132.91725876 76.3586499 132.28762726 75.24804688 131.63891602 C73.64648743 130.70306419 73.64648743 130.70306419 72.01257324 129.74830627 C48.64706893 116.18845079 27.10192174 112.2905677 0 111 C0 74.37 0 37.74 0 0 Z " fill="#FAF9F8" transform="translate(152,457)"/>
<path d="M0 0 C0.69416016 -0.01224609 1.38832031 -0.02449219 2.10351562 -0.03710938 C3.92470901 -0.04239842 5.7453692 0.06580793 7.5625 0.1875 C9.5625 2.1875 9.5625 2.1875 9.81138897 4.05500889 C9.8108442 4.81879825 9.81029943 5.5825876 9.80973816 6.36952209 C9.81393265 7.24589828 9.81812714 8.12227448 9.82244873 9.02520752 C9.81682922 9.98892273 9.81120972 10.95263794 9.80541992 11.94555664 C9.80731827 12.95861374 9.80921661 13.97167084 9.81117249 15.01542664 C9.81488828 18.37624765 9.80416529 21.73685433 9.79296875 25.09765625 C9.79177738 27.42410761 9.7913237 29.75055946 9.7915802 32.07701111 C9.79001399 36.95705162 9.78171325 41.83701892 9.76831055 46.71704102 C9.75131111 52.98779553 9.74749639 59.25846956 9.74825573 65.52924442 C9.74798446 70.33402787 9.74251035 75.13879354 9.73525429 79.94357109 C9.73206127 82.25655419 9.73009875 84.56953931 9.72936058 86.88252449 C9.72720423 90.10799756 9.71847563 93.3333834 9.70776367 96.55883789 C9.70821686 97.52457733 9.70867004 98.49031677 9.70913696 99.48532104 C9.70487198 100.35887741 9.70060699 101.23243378 9.69621277 102.13246155 C9.69453692 102.89587388 9.69286108 103.65928621 9.69113445 104.44583225 C9.5625 106.1875 9.5625 106.1875 8.5625 107.1875 C6.05113896 107.28725032 3.57346585 107.32632183 1.0625 107.3125 C0.35996094 107.31636719 -0.34257813 107.32023438 -1.06640625 107.32421875 C-6.31088622 107.31411378 -6.31088622 107.31411378 -7.4375 106.1875 C-7.47842937 103.85452567 -7.47991723 101.52044775 -7.4375 99.1875 C-7.994375 99.65800781 -8.55125 100.12851562 -9.125 100.61328125 C-17.62263012 107.54631394 -23.74051868 109.87865246 -34.83984375 109.59375 C-44.62654422 108.48862856 -53.16065449 103.76685298 -59.4375 96.1875 C-66.80924804 84.07232759 -68.68029597 70.87602479 -65.75390625 56.9296875 C-62.00166228 46.99636115 -54.59732058 38.41021137 -45 33.8125 C-36.96073275 30.92472668 -27.86881738 30.62125851 -19.8125 33.46875 C-15.94869846 35.36349883 -12.49237981 37.13262019 -9.4375 40.1875 C-9.39991577 38.42321655 -9.39991577 38.42321655 -9.36157227 36.62329102 C-9.26767194 32.27535378 -9.16740952 27.92758284 -9.06518555 23.57983398 C-9.02177067 21.69510782 -8.98010057 19.81034064 -8.94018555 17.92553711 C-8.88264107 15.22236751 -8.81890196 12.51940564 -8.75390625 9.81640625 C-8.73719376 8.96849014 -8.72048126 8.12057404 -8.70326233 7.2469635 C-8.5055472 -0.49237838 -7.17286991 0.00662315 0 0 Z " fill="#013E74" transform="translate(653.4375,434.8125)"/>
<path d="M0 0 C9.18744467 7.53069235 14.73536957 16.25979272 15.953125 28.25 C16.23712379 40.36728159 13.02201647 50.63544402 4.67578125 59.4375 C-4.83312843 68.46515596 -14.49221838 70.76681297 -27.37890625 70.53515625 C-35.26826608 69.9540026 -41.99008535 67.05412055 -48.25 62.25 C-49.260625 61.5075 -50.27125 60.765 -51.3125 60 C-58.52211886 53.79066858 -61.80329704 44.92251571 -62.53515625 35.62890625 C-62.83006407 22.89658148 -60.45327344 13.01823606 -51.65625 3.53125 C-37.56506877 -9.49644586 -15.6929914 -10.94025686 0 0 Z " fill="#023D73" transform="translate(771.25,473.75)"/>
<path d="M0 0 C5.3528089 4.38153309 8.37242304 9.38151932 9.625 16.1875 C9.89881731 20.1971176 9.88175642 24.19336295 9.85546875 28.2109375 C9.85501053 29.35285553 9.85455231 30.49477356 9.8540802 31.67129517 C9.85106948 34.07335455 9.84321872 36.47541218 9.83081055 38.87744141 C9.81245922 42.57070754 9.81030167 46.26372411 9.81054688 49.95703125 C9.8056349 52.29166885 9.79980799 54.62630475 9.79296875 56.9609375 C9.79185593 58.07125336 9.7907431 59.18156921 9.78959656 60.32553101 C9.78321671 61.34394073 9.77683685 62.36235046 9.77026367 63.41162109 C9.76645187 64.31206146 9.76264008 65.21250183 9.75871277 66.14022827 C9.625 68.1875 9.625 68.1875 8.625 69.1875 C6.09450598 69.26063567 3.59195163 69.27997527 1.0625 69.25 C-0.00387695 69.24323242 -0.00387695 69.24323242 -1.09179688 69.23632812 C-2.85290013 69.22450864 -4.61396036 69.20657263 -6.375 69.1875 C-7.035 66.8775 -7.695 64.5675 -8.375 62.1875 C-8.7875 62.58582031 -9.2 62.98414063 -9.625 63.39453125 C-17.39597294 70.52370509 -24.25606657 71.83611738 -34.67578125 71.59765625 C-41.79358123 70.80845984 -47.02847361 67.98006445 -51.875 62.75 C-56.84291833 56.18224357 -57.21838998 49.21024722 -56.375 41.1875 C-54.7533558 35.57624252 -51.52024156 31.09135951 -46.375 28.1875 C-34.28226688 23.18721762 -21.19115271 24.06185144 -8.375 24.1875 C-9.25120337 17.8567879 -9.25120337 17.8567879 -12.75 12.6875 C-19.28278393 8.95448061 -27.07755979 9.62000216 -34.375 10.1875 C-37.46789508 11.05249298 -40.27805995 12.09387698 -43.203125 13.41015625 C-45.375 14.1875 -45.375 14.1875 -48.375 13.1875 C-48.375 8.5675 -48.375 3.9475 -48.375 -0.8125 C-33.33444867 -7.02926122 -14.2211494 -9.86932226 0 0 Z " fill="#013E75" transform="translate(899.375,472.8125)"/>
<path d="M0 0 C0.70253906 0.00386719 1.40507813 0.00773437 2.12890625 0.01171875 C2.83144531 0.00785156 3.53398438 0.00398438 4.2578125 0 C9.50229247 0.01010497 9.50229247 0.01010497 10.62890625 1.13671875 C10.73539594 2.50076618 10.77508029 3.87013205 10.78662109 5.23828125 C10.79688324 6.11009033 10.80714539 6.98189941 10.81771851 7.88012695 C10.82501984 8.83105225 10.83232117 9.78197754 10.83984375 10.76171875 C10.86793749 12.76823697 10.89660208 14.77474727 10.92578125 16.78125 C10.96687281 19.94970263 11.00374965 23.11801126 11.03027344 26.28662109 C11.05807224 29.34113458 11.10397231 32.39497064 11.15234375 35.44921875 C11.15559662 36.3839502 11.15884949 37.31868164 11.16220093 38.28173828 C11.27209538 44.23220562 11.96128782 49.73791232 14.62890625 55.13671875 C19.24671981 58.8309696 23.80378634 59.69149208 29.62890625 59.13671875 C34.66916713 57.4311373 38.60827545 56.00168394 41.23876953 51.19506836 C43.19308163 46.36945953 43.08816822 41.56843219 43.10546875 36.42578125 C43.12104828 35.41703949 43.13662781 34.40829773 43.15267944 33.36898804 C43.19998959 30.166572 43.22791146 26.96437262 43.25390625 23.76171875 C43.29037275 20.53779211 43.33090383 17.31398904 43.3765564 14.09017944 C43.40383431 12.08815771 43.42516317 10.08604471 43.44009399 8.08389282 C43.45548721 6.736465 43.45548721 6.736465 43.47119141 5.36181641 C43.47768707 4.56796539 43.48418274 3.77411438 43.49087524 2.95620728 C43.62890625 1.13671875 43.62890625 1.13671875 44.62890625 0.13671875 C47.30622005 0.03690661 49.951948 -0.00208 52.62890625 0.01171875 C53.37914062 0.00785156 54.129375 0.00398438 54.90234375 0 C60.50229572 0.01010822 60.50229572 0.01010822 61.62890625 1.13671875 C61.72854545 3.37059081 61.7569042 5.60765734 61.75830078 7.84375 C61.76092926 8.89494522 61.76092926 8.89494522 61.76361084 9.96737671 C61.76802891 12.29468224 61.76509154 14.62191239 61.76171875 16.94921875 C61.7623918 18.55965184 61.76336184 20.17008484 61.76461792 21.78051758 C61.76609483 25.1600033 61.76394056 28.53946265 61.75927734 31.91894531 C61.75358005 36.2604838 61.7568591 40.60196048 61.76284981 44.9434967 C61.76645561 48.27022776 61.76531675 51.59694405 61.76272202 54.92367554 C61.7620528 56.52493293 61.76288099 58.12619165 61.76520157 59.72744751 C61.76772841 61.96156386 61.7638871 64.19557875 61.75830078 66.4296875 C61.75750519 67.70352295 61.75670959 68.9773584 61.75588989 70.28979492 C61.62890625 73.13671875 61.62890625 73.13671875 60.62890625 74.13671875 C57.95159245 74.23653089 55.3058645 74.2755175 52.62890625 74.26171875 C51.50355469 74.26751953 51.50355469 74.26751953 50.35546875 74.2734375 C44.75551678 74.26332928 44.75551678 74.26332928 43.62890625 73.13671875 C43.26129894 70.80853911 42.92649044 68.47488025 42.62890625 66.13671875 C42.13261719 66.60722656 41.63632812 67.07773437 41.125 67.5625 C33.77142347 74.30211569 27.98183775 76.76553423 17.9140625 76.4765625 C10.854023 75.74621359 5.59194474 73.58394954 0.69140625 68.38671875 C-4.48520224 61.84592167 -6.49296002 54.26647923 -6.50048828 45.99511719 C-6.50364044 44.99768494 -6.5067926 44.00025269 -6.51004028 42.97259521 C-6.50801605 41.90784973 -6.50599182 40.84310425 -6.50390625 39.74609375 C-6.50486298 38.64573792 -6.5058197 37.54538208 -6.50680542 36.41168213 C-6.50748476 34.09183698 -6.50564764 31.77198991 -6.50146484 29.45214844 C-6.4960927 25.88602484 -6.50142864 22.32002604 -6.5078125 18.75390625 C-6.50715208 16.5013018 -6.50587166 14.24869744 -6.50390625 11.99609375 C-6.50593048 10.92325134 -6.50795471 9.85040894 -6.51004028 8.74505615 C-6.50688812 7.76023254 -6.50373596 6.77540894 -6.50048828 5.76074219 C-6.49969269 4.88979919 -6.49889709 4.0188562 -6.49807739 3.121521 C-6.23463203 -0.99622935 -3.49472804 0.00673358 0 0 Z " fill="#013C72" transform="translate(514.37109375,467.86328125)"/>
<path d="M0 0 C0.96164062 -0.00515625 1.92328125 -0.0103125 2.9140625 -0.015625 C5.375 0.25 5.375 0.25 7.375 2.25 C7.60205078 4.31298828 7.60205078 4.31298828 7.5703125 6.8203125 C7.56386719 7.71621094 7.55742187 8.61210937 7.55078125 9.53515625 C7.53402344 10.47230469 7.51726562 11.40945313 7.5 12.375 C7.49097656 13.31988281 7.48195313 14.26476562 7.47265625 15.23828125 C7.44904522 17.57577292 7.41611516 19.91276123 7.375 22.25 C8.00591553 22.24476318 8.63683105 22.23952637 9.28686523 22.23413086 C12.12873347 22.21342174 14.97058588 22.20035934 17.8125 22.1875 C19.30233398 22.17493164 19.30233398 22.17493164 20.82226562 22.16210938 C22.23862305 22.15727539 22.23862305 22.15727539 23.68359375 22.15234375 C24.99541626 22.14448853 24.99541626 22.14448853 26.33374023 22.13647461 C28.375 22.25 28.375 22.25 29.375 23.25 C29.47373816 25.24799572 29.50471799 27.24957158 29.5 29.25 C29.50386719 30.8896875 29.50386719 30.8896875 29.5078125 32.5625 C29.375 35.25 29.375 35.25 28.375 36.25 C26.81327255 36.33685603 25.24770656 36.35702219 23.68359375 36.34765625 C22.73935547 36.34443359 21.79511719 36.34121094 20.82226562 36.33789062 C19.82904297 36.32951172 18.83582031 36.32113281 17.8125 36.3125 C16.81541016 36.30798828 15.81832031 36.30347656 14.79101562 36.29882812 C12.31895151 36.28700007 9.84700482 36.27051849 7.375 36.25 C7.44406932 41.40997451 7.53212862 46.56915352 7.63745117 51.72851562 C7.6706122 53.48200627 7.69867142 55.23560138 7.72143555 56.98925781 C7.7551447 59.51672698 7.80746692 62.04324638 7.86328125 64.5703125 C7.86967117 65.34867462 7.8760611 66.12703674 7.88264465 66.9289856 C8.01091051 71.72621354 8.7430758 75.08651776 11.375 79.25 C14.54835782 80.83667891 17.91186405 80.5363747 21.375 80.25 C24.11274618 79.32254351 24.11274618 79.32254351 26.375 78.25 C27.365 78.25 28.355 78.25 29.375 78.25 C29.48294277 80.51979665 29.56056176 82.79105196 29.625 85.0625 C29.67140625 86.32707031 29.7178125 87.59164062 29.765625 88.89453125 C29.375 92.25 29.375 92.25 27.734375 94.07421875 C20.44201054 97.70832753 13.41323351 98.14925443 5.375 97.25 C0.20426728 95.33080166 -3.74265187 91.94715992 -6.625 87.25 C-9.37829116 80.85394704 -10.04056149 75.08957156 -9.91796875 68.18359375 C-9.91372391 67.26409439 -9.90947906 66.34459503 -9.90510559 65.39723206 C-9.88846776 62.49367541 -9.85084467 59.59084274 -9.8125 56.6875 C-9.79743386 54.70508823 -9.78374886 52.72266546 -9.77148438 50.74023438 C-9.73861326 45.90988222 -9.68693611 41.08006336 -9.625 36.25 C-11.01525391 36.26740234 -11.01525391 36.26740234 -12.43359375 36.28515625 C-13.63113281 36.29417969 -14.82867187 36.30320312 -16.0625 36.3125 C-17.25746094 36.32410156 -18.45242188 36.33570313 -19.68359375 36.34765625 C-22.625 36.25 -22.625 36.25 -23.625 35.25 C-23.74987758 33.44072719 -23.80070846 31.62603893 -23.8125 29.8125 C-23.82667969 28.82378906 -23.84085937 27.83507812 -23.85546875 26.81640625 C-23.625 24.25 -23.625 24.25 -21.625 22.25 C-17.61305634 21.97216457 -13.65052638 22.1643505 -9.625 22.25 C-9.625 15.65 -9.625 9.05 -9.625 2.25 C-5.71972775 0.29736387 -4.19157882 -0.02259611 0 0 Z " fill="#013E76" transform="translate(465.625,446.75)"/>
<path d="M0 0 C1.24704712 0.01087646 1.24704712 0.01087646 2.51928711 0.02197266 C18.82279073 0.38529073 18.82279073 0.38529073 23.8125 5.375 C24.0078125 8.1953125 24.0078125 8.1953125 23.9375 11.5 C23.91945313 12.59570312 23.90140625 13.69140625 23.8828125 14.8203125 C23.85960937 15.66335938 23.83640625 16.50640625 23.8125 17.375 C20.48674363 18.50365035 18.69046829 18.2441177 15.4375 17 C8.45544018 14.50559364 1.00019102 12.89185943 -6.1875 15.4375 C-8.54509384 17.3255684 -8.54509384 17.3255684 -8.6875 20.875 C-8.15684695 24.58957132 -7.95346451 25.14458851 -5.1875 27.375 C-2.4831562 28.42128946 0.18294438 29.36199684 2.9375 30.25 C12.53105078 33.51174673 20.98312886 36.58930492 26.8125 45.375 C28.72811899 51.12185698 29.02896949 58.1546368 26.87109375 63.8671875 C22.84437695 70.55734395 17.55452661 74.11058077 10.234375 76.61328125 C-0.58086057 79.02078232 -12.81667778 78.23968247 -23.1875 74.375 C-24.1775 73.715 -25.1675 73.055 -26.1875 72.375 C-26.48046875 69.5546875 -26.48046875 69.5546875 -26.375 66.25 C-26.34792969 65.15429688 -26.32085937 64.05859375 -26.29296875 62.9296875 C-26.25816406 62.08664062 -26.22335937 61.24359375 -26.1875 60.375 C-21.72936071 58.91171577 -19.39192614 60.45719158 -15.1875 62.375 C-8.15636289 64.15053967 -0.37959834 64.3326295 6.5625 62.25 C9.03572542 60.50584034 9.03572542 60.50584034 9.875 57.5 C9.79604783 53.55239171 9.36557949 52.42029481 6.8125 49.375 C3.35532934 47.54403263 -0.26973369 46.2230232 -3.9375 44.875 C-21.52596248 38.30833129 -21.52596248 38.30833129 -25.1875 30.375 C-26.98404508 24.32280914 -27.21842022 17.87025914 -24.5625 12.0625 C-19.10186718 2.55908288 -10.24396362 -0.17542801 0 0 Z " fill="#03396E" transform="translate(410.1875,466.625)"/>
<path d="M0 0 C1 1 1 1 1.09765625 4.37890625 C1.09098369 5.77347077 1.07902532 7.16801743 1.0625 8.5625 C1.05798828 9.27341797 1.05347656 9.98433594 1.04882812 10.71679688 C1.03700864 12.47790013 1.01907263 14.23896036 1 16 C-0.50240234 16.22042969 -0.50240234 16.22042969 -2.03515625 16.4453125 C-11.61464442 17.94830042 -11.61464442 17.94830042 -19.703125 23.01171875 C-23.79607177 29.28674859 -24.44878705 35.43642986 -24.4765625 42.71484375 C-24.49993179 44.05936363 -24.49993179 44.05936363 -24.52377319 45.43104553 C-24.5709448 48.2665228 -24.5989641 51.10175684 -24.625 53.9375 C-24.66148623 56.79806863 -24.70200779 59.65849902 -24.74765015 62.51893616 C-24.77489896 64.29280961 -24.7962406 66.0667853 -24.81118774 67.84080505 C-24.88926802 73.88926802 -24.88926802 73.88926802 -26 75 C-28.6773138 75.09981214 -31.32304175 75.13879875 -34 75.125 C-35.12535156 75.13080078 -35.12535156 75.13080078 -36.2734375 75.13671875 C-41.87338947 75.12661053 -41.87338947 75.12661053 -43 74 C-43.1048724 71.80217939 -43.13857031 69.60094585 -43.14526367 67.40063477 C-43.15030159 66.36647934 -43.15030159 66.36647934 -43.15544128 65.31143188 C-43.1649777 63.02140525 -43.16689574 60.73145153 -43.16796875 58.44140625 C-43.17117949 56.85578887 -43.17454342 55.2701718 -43.17805481 53.68455505 C-43.18405283 50.35634677 -43.18589402 47.02816448 -43.18530273 43.69995117 C-43.18520108 39.42796629 -43.19885374 35.15614749 -43.21607494 30.884202 C-43.2271748 27.60803965 -43.22922257 24.33191769 -43.22869301 21.05573845 C-43.22987616 19.4804216 -43.23431656 17.90510381 -43.24202538 16.32980537 C-43.2517848 14.12933738 -43.2489635 11.92923318 -43.24291992 9.72875977 C-43.24505745 7.84798485 -43.24505745 7.84798485 -43.24723816 5.92921448 C-43 3 -43 3 -41 1 C-37.77734375 0.76953125 -37.77734375 0.76953125 -33.9375 0.8125 C-32.03291016 0.82216797 -32.03291016 0.82216797 -30.08984375 0.83203125 C-27 1 -27 1 -26 2 C-25.63239269 4.32817964 -25.29758419 6.6618385 -25 9 C-24.49210938 8.60167969 -23.98421875 8.20335937 -23.4609375 7.79296875 C-15.59330685 1.73754516 -10.10652554 -0.89529698 0 0 Z " fill="#013D72" transform="translate(840,467)"/>
<path d="M0 0 C0.66 0.33 1.32 0.66 2 1 C3.51071536 8.2049502 3.51071536 8.2049502 1.8984375 10.71484375 C-0.77315793 12.52339292 -2.98991158 12.51558664 -6.1875 12.6875 C-7.81751953 12.78611328 -7.81751953 12.78611328 -9.48046875 12.88671875 C-10.72763672 12.94279297 -10.72763672 12.94279297 -12 13 C-12.33 13.99 -12.66 14.98 -13 16 C-13.66 16 -14.32 16 -15 16 C-15 16.99 -15 17.98 -15 19 C-9.39 19.33 -3.78 19.66 2 20 C2.86230099 32.64708112 2.86230099 32.64708112 -2.06640625 38.30859375 C-5.36398149 41.19313936 -9.03912734 43.16919664 -13 45 C-13 46.32 -13 47.64 -13 49 C-13 49.99 -13 50.98 -13 52 C-12.01 52.495 -12.01 52.495 -11 53 C-9.07451361 51.99942587 -9.07451361 51.99942587 -7.0625 50.5625 C-3.32697548 48 -3.32697548 48 0 48 C-7.79596904 55.21127136 -14.7672525 56.65122208 -25.30078125 56.41015625 C-32.41858123 55.62095984 -37.65347361 52.79256445 -42.5 47.5625 C-47.46791833 40.99474357 -47.84338998 34.02274722 -47 26 C-45.3783558 20.38874252 -42.14524156 15.90385951 -37 13 C-24.90726688 7.99971762 -11.81615271 8.87435144 1 9 C0.505 4.545 0.505 4.545 0 0 Z " fill="#043769" transform="translate(890,488)"/>
<path d="M0 0 C5.54692791 3.15455061 9.28855087 7.99838641 11.21875 14.0859375 C12.69418834 21.93526947 12.15951771 29.45858903 7.609375 36.1640625 C3.7707541 40.27300882 0.20039798 43.77498186 -5.58984375 44.40234375 C-13.48858537 44.63794201 -18.4157449 42.94061726 -24.203125 37.5390625 C-28.96224862 31.10214614 -30.05051058 23.56270759 -29.02734375 15.7734375 C-27.33251858 8.82777361 -23.07212261 4.23991948 -17.390625 0.1640625 C-11.88664166 -1.67059861 -5.5194015 -1.9299868 0 0 Z " fill="#FAF9F8" transform="translate(756.390625,483.8359375)"/>
<path d="M0 0 C4.38436817 3.17354043 7.06769219 7.12917825 8.75390625 12.26953125 C9.49608474 19.79734169 9.25372247 26.51126545 5.75390625 33.26953125 C1.81895781 37.80985637 -2.26508574 41.83819646 -8.4453125 42.5078125 C-15.3943632 42.71508403 -20.48795326 41.58778761 -25.78125 36.9140625 C-31.25196799 30.96485606 -31.71314165 23.99117322 -31.55859375 16.2734375 C-30.93565544 10.28544297 -28.84440462 5.36386314 -24.30859375 1.33203125 C-16.62984995 -3.83936763 -8.22611764 -4.70301271 0 0 Z " fill="#FAF9F8" transform="translate(636.24609375,485.73046875)"/>
<path d="M0 0 C0.69416016 -0.01224609 1.38832031 -0.02449219 2.10351562 -0.03710938 C3.92470901 -0.04239842 5.7453692 0.06580793 7.5625 0.1875 C9.5625 2.1875 9.5625 2.1875 9.80973816 5.11671448 C9.80831314 6.37056442 9.80688812 7.62441437 9.80541992 8.91625977 C9.80731827 9.60744904 9.80921661 10.29863831 9.81117249 11.01077271 C9.81488366 13.30026516 9.80417237 15.5894419 9.79296875 17.87890625 C9.79177714 19.46548933 9.79132375 21.05207311 9.7915802 22.63865662 C9.7900148 25.96512258 9.7817202 29.29148101 9.76831055 32.61791992 C9.75130679 36.89105655 9.74749656 41.16407506 9.74825573 45.43724155 C9.7479844 48.71336504 9.74250934 51.98946247 9.73525429 55.26557732 C9.73206275 56.84171285 9.73009909 58.41785135 9.72936058 59.99398994 C9.72720291 62.19208986 9.71847165 64.39006208 9.70776367 66.58813477 C9.70204597 68.46771629 9.70204597 68.46771629 9.69621277 70.38526917 C9.5625 73.1875 9.5625 73.1875 8.5625 74.1875 C5.8851862 74.28731214 3.23945825 74.32629875 0.5625 74.3125 C-0.56285156 74.31830078 -0.56285156 74.31830078 -1.7109375 74.32421875 C-7.31088947 74.31411053 -7.31088947 74.31411053 -8.4375 73.1875 C-8.5371392 70.95362794 -8.56549795 68.71656141 -8.56689453 66.48046875 C-8.56864685 65.77967194 -8.57039917 65.07887512 -8.57220459 64.35684204 C-8.57662266 62.02953651 -8.57368529 59.70230636 -8.5703125 57.375 C-8.57098555 55.76456691 -8.57195559 54.15413391 -8.57321167 52.54370117 C-8.57468858 49.16421545 -8.57253431 45.7847561 -8.56787109 42.40527344 C-8.5621738 38.06373495 -8.56545285 33.72225827 -8.57144356 29.38072205 C-8.57504936 26.05399099 -8.5739105 22.7272747 -8.57131577 19.40054321 C-8.57064655 17.79928582 -8.57147474 16.1980271 -8.57379532 14.59677124 C-8.57632216 12.36265489 -8.57248085 10.12864 -8.56689453 7.89453125 C-8.56609894 6.6206958 -8.56530334 5.34686035 -8.56448364 4.03442383 C-8.31956921 -1.45646247 -4.48768359 0.00414375 0 0 Z " fill="#063F71" transform="translate(689.4375,467.8125)"/>
<path d="M0 0 C1.23363281 0.01353516 1.23363281 0.01353516 2.4921875 0.02734375 C4.49492083 0.05063135 6.49750154 0.08649041 8.5 0.125 C8.52714297 1.55848817 8.5464607 2.99212585 8.5625 4.42578125 C8.57410156 5.22411377 8.58570313 6.02244629 8.59765625 6.8449707 C8.44782975 10.34304482 7.52642246 12.27534341 5.5 15.125 C-0.20519515 20.28511281 -4.65507474 22.50152901 -12.46875 22.4140625 C-15.83048218 21.93566215 -17.94201858 20.25665119 -20.5 18.125 C-23.01250583 14.35624125 -23.03016086 12.59349866 -22.5 8.125 C-19.90590548 3.82853096 -18.69920144 2.51213351 -13.90625 0.96484375 C-9.25693998 -0.08199609 -4.7447845 -0.10045961 0 0 Z " fill="#F9F9F8" transform="translate(882.5,508.875)"/>
<path d="M0 0 C0.66 0.33 1.32 0.66 2 1 C2 1.66 2 2.32 2 3 C2.66 3 3.32 3 4 3 C4 2.01 4 1.02 4 0 C4.99 0 5.98 0 7 0 C7.08708752 4.2498709 7.14042181 8.49951239 7.1875 12.75 C7.21263672 13.9565625 7.23777344 15.163125 7.26367188 16.40625 C7.27333984 17.56640625 7.28300781 18.7265625 7.29296875 19.921875 C7.3086792 20.99018555 7.32438965 22.05849609 7.34057617 23.15917969 C6.95396812 26.38396195 6.27031201 27.71142455 4 30 C-0.0511522 31.35038407 -3.76417708 31.55636904 -8 31 C-11.0625 29.125 -11.0625 29.125 -13 27 C-13 26.34 -13 25.68 -13 25 C-8.25 25.875 -8.25 25.875 -6 27 C-3.04230823 27.50010524 -3.04230823 27.50010524 0 27 C1.9354148 24.60943058 1.9354148 24.60943058 3 22 C2.67 21.67 2.34 21.34 2 21 C1.67 21.33 1.34 21.66 1 22 C-3.6378716 22.51531907 -7.66834365 22.94190327 -11.5625 20.1875 C-14.24505844 16.10534586 -14.82853478 11.77308081 -14 7 C-10.41443437 0.76539708 -6.9167428 -0.24702653 0 0 Z " fill="#07264F" transform="translate(559,636)"/>
<path d="M0 0 C1.32 0 2.64 0 4 0 C4 9.9 4 19.8 4 30 C2.35 29.67 0.7 29.34 -1 29 C-1.99 29.66 -2.98 30.32 -4 31 C-7.29298055 31.43492196 -9.80334957 31.69293789 -12.75390625 29.984375 C-15.45601856 27.82268515 -16.8966607 26.31001789 -18 23 C-18.50149463 16.88176547 -18.06790897 13.90541964 -14 9 C-10.87293041 7.4364652 -7.42017557 7.60041513 -4 8 C-3.01 8.66 -2.02 9.32 -1 10 C-0.67 6.7 -0.34 3.4 0 0 Z " fill="#092A53" transform="translate(519,579)"/>
<path d="M0 0 C2.93423195 1.79646854 4.47205355 2.9441071 6 6 C6.51512617 10.09157355 6.94367269 14.23589546 4.953125 17.95703125 C2.07759619 21.43303814 0.21622514 22.88305528 -4.25 23.3125 C-8.68062166 22.94328153 -10.61779734 21.83161153 -14 19 C-16.59076756 15.58489731 -16.35933413 12.16827596 -16 8 C-12.7835181 -0.11778765 -8.14316246 -1.09095 0 0 Z " fill="#0A2043" transform="translate(557,587)"/>
<path d="M0 0 C2.93423195 1.79646854 4.47205355 2.9441071 6 6 C6.60217655 10.78300232 6.94928228 15.48529203 4.0625 19.5625 C0.09999804 22.71632809 -2.9887734 23.39178681 -8 23 C-11.26790683 21.72125385 -12.62644486 20.46372362 -14.8125 17.75 C-16.85001239 13.03155026 -16.56297121 9.4208321 -14.6875 4.6875 C-11.08214439 -1.05436263 -6.18014864 -0.8279625 0 0 Z " fill="#0A315E" transform="translate(615,587)"/>
<path d="M0 0 C2.31288371 2.1201434 3.12631954 3.01222988 3.48828125 6.0859375 C3.68995749 12.47589001 3.68995749 12.47589001 1.375 15.5625 C-2.8661311 18.5562396 -6.65288661 18.8283875 -11.75 18.0625 C-15.45219508 15.51724088 -16.5181855 13.87385075 -17.75 9.5625 C-17.75 4.85871745 -16.20495979 2.8337554 -13.3125 -0.6875 C-8.89236219 -4.22361025 -4.35108739 -3.06553884 0 0 Z " fill="#043869" transform="translate(696.75,437.9375)"/>
<path d="M0 0 C2.39526367 0.06665039 2.39526367 0.06665039 5 1 C6.4855957 3.56030273 6.4855957 3.56030273 7.67578125 6.93359375 C8.32836914 8.7424707 8.32836914 8.7424707 8.99414062 10.58789062 C9.43375434 11.87103874 9.87320558 13.15424253 10.3125 14.4375 C10.7696802 15.71744274 11.22864473 16.99674964 11.68945312 18.27539062 C15 27.5996828 15 27.5996828 15 30 C13.35 29.67 11.7 29.34 10 29 C9.34 26.69 8.68 24.38 8 22 C3.71 22 -0.58 22 -5 22 C-5.33 23.98 -5.66 25.96 -6 28 C-6.33 28.66 -6.66 29.32 -7 30 C-8.32 30 -9.64 30 -11 30 C-10.34760417 26.25128575 -9.30592394 22.85677635 -7.96875 19.296875 C-7.57042969 18.2346875 -7.17210937 17.1725 -6.76171875 16.078125 C-6.34535156 14.97984375 -5.92898438 13.8815625 -5.5 12.75 C-5.08363281 11.63625 -4.66726563 10.5225 -4.23828125 9.375 C-1.13212451 1.13212451 -1.13212451 1.13212451 0 0 Z " fill="#092C55" transform="translate(395,579)"/>
<path d="M0 0 C2.70567626 1.82339052 4.53728718 3.07457436 6 6 C6 7.98 6 9.96 6 12 C0.39 12 -5.22 12 -11 12 C-9.54711014 16.5841963 -9.54711014 16.5841963 -8 18 C-3.98342857 18.22918242 -3.98342857 18.22918242 0 18 C0.66 17.34 1.32 16.68 2 16 C2.99 16 3.98 16 5 16 C4.7041325 18.86005251 4.15920836 19.85571743 2 21.8125 C-2.20110278 23.47543652 -5.67485322 23.21265798 -10 22 C-12.45243461 20.09936318 -13.62927427 18.74145145 -15 16 C-15.52137294 11.17089 -15.73402673 7.25833154 -13.25 3 C-8.66052253 -1.07953553 -6.11911051 -1.50293942 0 0 Z " fill="#062146" transform="translate(804,587)"/>
<path d="M0 0 C0.33 0.99 0.66 1.98 1 3 C1.66 3 2.32 3 3 3 C3 2.34 3 1.68 3 1 C5.58295732 -0.68885671 6.92857394 -1.00291535 10.0625 -0.875 C13 0 13 0 14.671875 1.4765625 C16.69680695 5.32393321 16.31770992 8.97644352 16.1875 13.25 C16.16719727 14.51070312 16.16719727 14.51070312 16.14648438 15.796875 C16.11123464 17.86485938 16.0574302 19.93251271 16 22 C14.68 22 13.36 22 12 22 C11.505 12.595 11.505 12.595 11 3 C8.69 3.66 6.38 4.32 4 5 C2.47893366 8.04213267 2.62570662 11.28047572 2.4375 14.625 C2.39431641 15.33140625 2.35113281 16.0378125 2.30664062 16.765625 C2.20055249 18.51018537 2.09977111 20.25506697 2 22 C0.68 22 -0.64 22 -2 22 C-2.33 16.06 -2.66 10.12 -3 4 C-4.98 4 -6.96 4 -9 4 C-11.26849666 7.65172633 -11.3895951 11.0127118 -11.625 15.25 C-11.69976563 16.51328125 -11.77453125 17.7765625 -11.8515625 19.078125 C-11.90054688 20.04234375 -11.94953125 21.0065625 -12 22 C-12.99 22 -13.98 22 -15 22 C-15 14.74 -15 7.48 -15 0 C-14.01 0 -13.02 0 -12 0 C-11.67 0.66 -11.34 1.32 -11 2 C-10.484375 1.484375 -9.96875 0.96875 -9.4375 0.4375 C-6.0289729 -1.57265701 -3.76893143 -0.79727396 0 0 Z " fill="#052144" transform="translate(703,587)"/>
<path d="M0 0 C2.8100346 1.79363911 4.50940468 3.01880935 6 6 C6 7.98 6 9.96 6 12 C0.39 12 -5.22 12 -11 12 C-10.01 13.98 -9.02 15.96 -8 18 C-4.36814051 19.15910409 -1.60268416 19.24708298 2 18 C2 17.34 2 16.68 2 16 C3.32 16 4.64 16 6 16 C4.60478153 19.37177797 3.23717239 21.25017709 0 23 C-5.1733931 23.57482146 -8.66738416 22.92199673 -13 20 C-15.48574601 16.04540407 -15.59826962 11.54684909 -15 7 C-13.76467542 4.15875347 -12.7444561 2.57902141 -10.3125 0.6875 C-6.84767407 -0.34258338 -3.54883321 -0.5914722 0 0 Z " fill="#09214C" transform="translate(424,636)"/>
<path d="M0 0 C3.0625 1.875 3.0625 1.875 5 4 C5 4.99 5 5.98 5 7 C0.25 6.25 0.25 6.25 -2 4 C-4.21072977 3.75746187 -4.21072977 3.75746187 -6.625 3.875 C-7.85089844 3.90207031 -7.85089844 3.90207031 -9.1015625 3.9296875 C-10.04128906 3.96449219 -10.04128906 3.96449219 -11 4 C-11.41780879 6.37305578 -11.41780879 6.37305578 -11 9 C-7.71820726 11.6664566 -3.84231526 12.85698645 0.1328125 14.15625 C2.32767291 15.14806977 3.52093799 16.09834885 5 18 C5.77333333 24.96 5.77333333 24.96 3.1875 28.4375 C-0.79242496 31.28030354 -4.22289602 31.32387146 -9 31 C-12.98066095 29.42275698 -14.60667274 28.58999089 -17 25 C-17 24.01 -17 23.02 -17 22 C-12.30731707 22.63414634 -12.30731707 22.63414634 -10.6875 24.5625 C-7.79918231 27.02291877 -4.6761004 26.23716777 -1 26 C0.29633621 24.93354885 0.29633621 24.93354885 0.0625 22.4375 C0.041875 21.633125 0.02125 20.82875 0 20 C-0.87011719 19.61908203 -0.87011719 19.61908203 -1.7578125 19.23046875 C-14.74603175 13.50793651 -14.74603175 13.50793651 -16 11 C-16.42576871 7.16808162 -16.30321315 5.47050317 -14.1875 2.1875 C-9.99916836 -2.00083164 -5.40419243 -1.239841 0 0 Z " fill="#091D3C" transform="translate(675,579)"/>
<path d="M0 0 C3.0625 2.4375 3.0625 2.4375 5 5 C5 5.66 5 6.32 5 7 C1.62537285 6.45276317 -0.08235 5.9451 -3 4 C-6.58357241 3.74984127 -6.58357241 3.74984127 -10 4 C-11.29633621 5.06645115 -11.29633621 5.06645115 -11.0625 7.5625 C-11.041875 8.366875 -11.02125 9.17125 -11 10 C-10.09636719 10.31453125 -9.19273437 10.6290625 -8.26171875 10.953125 C-7.08222656 11.38109375 -5.90273438 11.8090625 -4.6875 12.25 C-2.92986328 12.87648438 -2.92986328 12.87648438 -1.13671875 13.515625 C2.05557564 15.0262998 3.31799315 15.94988194 5 19 C5.57927796 22.88943774 5.33348129 24.48252903 3.1875 27.8125 C0.20999904 30.79000096 -1.62557402 30.96930935 -5.8125 31.3125 C-10.18067282 31.24802512 -12.71698042 29.96272499 -16 27 C-16.875 24.25 -16.875 24.25 -17 22 C-15.68 22 -14.36 22 -13 22 C-12.52949219 22.65484375 -12.05898438 23.3096875 -11.57421875 23.984375 C-10.16346278 26.26352268 -10.16346278 26.26352268 -7.51953125 26.390625 C-6.62621094 26.34421875 -5.73289062 26.2978125 -4.8125 26.25 C-3.46091797 26.19585938 -3.46091797 26.19585938 -2.08203125 26.140625 C-1.39496094 26.09421875 -0.70789063 26.0478125 0 26 C0 24.02 0 22.04 0 20 C-0.81984375 19.67386719 -1.6396875 19.34773437 -2.484375 19.01171875 C-3.56203125 18.57472656 -4.6396875 18.13773438 -5.75 17.6875 C-6.81734375 17.25824219 -7.8846875 16.82898438 -8.984375 16.38671875 C-11.71585719 15.13066153 -13.83761199 14.08001132 -16 12 C-16.86769518 5.16690042 -16.86769518 5.16690042 -14.1875 1.5625 C-9.63648849 -1.68822251 -5.22359382 -1.36307439 0 0 Z " fill="#0A142E" transform="translate(445,579)"/>
<path d="M0 0 C2.19921875 1.48046875 2.19921875 1.48046875 4 4 C4.48717342 7.09845301 4.37701585 10.123456 4.25 13.25 C4.23195313 14.09046875 4.21390625 14.9309375 4.1953125 15.796875 C4.14830798 17.86507395 4.07656724 19.93268441 4 22 C3.01 22 2.02 22 1 22 C0.67 21.34 0.34 20.68 0 20 C-0.53625 20.495 -1.0725 20.99 -1.625 21.5 C-4.68245535 23.43102443 -6.438173 23.44522837 -10 23 C-12.375 21.9375 -12.375 21.9375 -14 20 C-14.5625 16.5 -14.5625 16.5 -14 13 C-10.23367906 9.47666751 -4.93542179 8.913967 0 8 C-0.66 6.68 -1.32 5.36 -2 4 C-5.94727588 3.82057837 -8.5980513 3.90649311 -12 6 C-12 4.68 -12 3.36 -12 2 C-8.02440416 -1.49370544 -4.97377518 -1.35648414 0 0 Z " fill="#155193" transform="translate(740,587)"/>
<path d="M0 0 C2.850716 2.01824195 4.72764237 3.55749464 5.39624023 7.09863281 C5.49209277 9.52215106 5.43675588 11.89046622 5.3125 14.3125 C5.28994141 15.14845703 5.26738281 15.98441406 5.24414062 16.84570312 C5.1855061 18.89791149 5.09583215 20.94919202 5 23 C4.01 23 3.02 23 2 23 C2 22.01 2 21.02 2 20 C1.319375 20.495 0.63875 20.99 -0.0625 21.5 C-3.67208369 23.34319167 -5.99449813 23.44505576 -10 23 C-11.9375 21.875 -11.9375 21.875 -13 20 C-13.5 17.0625 -13.5 17.0625 -13 14 C-10.10182904 10.54089272 -7.51821011 9.74864643 -3.1875 9.25 C-1.7927696 9.14988885 -0.39699314 9.06087116 1 9 C0.34 7.35 -0.32 5.7 -1 4 C-2.0725 4.165 -3.145 4.33 -4.25 4.5 C-8 5 -8 5 -12 5 C-9.59871432 -0.31713258 -5.69996588 -1.37620798 0 0 Z " fill="#0B1636" transform="translate(449,636)"/>
<path d="M0 0 C1.32 0 2.64 0 4 0 C4.06058594 1.13179687 4.12117188 2.26359375 4.18359375 3.4296875 C4.26799917 4.91147145 4.35264717 6.3932416 4.4375 7.875 C4.47681641 8.62136719 4.51613281 9.36773438 4.55664062 10.13671875 C4.71573624 14.19986864 4.71573624 14.19986864 6 18 C9.41656024 18.16677282 9.41656024 18.16677282 13 18 C15.93447357 15.06552643 15.46158423 11.81740544 15.625 7.875 C15.68300781 6.74384766 15.68300781 6.74384766 15.7421875 5.58984375 C15.83651031 3.72696816 15.91934662 1.86351745 16 0 C17.32 0 18.64 0 20 0 C20 7.26 20 14.52 20 22 C18.35 21.67 16.7 21.34 15 21 C14.01 21.66 13.02 22.32 12 23 C5.87547998 23.66812946 5.87547998 23.66812946 2.625 21.1875 C-0.50208972 16.97795615 -0.11940353 12.82438741 -0.0625 7.8125 C-0.05798828 7.06291016 -0.05347656 6.31332031 -0.04882812 5.54101562 C-0.03706354 3.69397617 -0.01912865 1.84697787 0 0 Z " fill="#031D3D" transform="translate(475,587)"/>
<path d="M0 0 C1.32 0.33 2.64 0.66 4 1 C6.0745356 1.1490712 6.0745356 1.1490712 8 0 C11.375 -0.375 11.375 -0.375 15 0 C17.43674326 2.13968445 18.82468616 3.83539588 19.31591797 7.09863281 C19.39350691 9.51555371 19.34915722 11.89649629 19.25 14.3125 C19.23195313 15.14845703 19.21390625 15.98441406 19.1953125 16.84570312 C19.14841126 18.89763228 19.07667411 20.94896756 19 23 C17.68 22.67 16.36 22.34 15 22 C14.67 16.06 14.34 10.12 14 4 C8.23112508 3.4452998 8.23112508 3.4452998 5 6 C4.61605333 8.77262255 4.39657752 11.34323528 4.3125 14.125 C4.27833984 14.87910156 4.24417969 15.63320313 4.20898438 16.41015625 C4.12645722 18.27291201 4.06155289 20.13643326 4 22 C2.68 22.33 1.36 22.66 0 23 C0 15.41 0 7.82 0 0 Z " fill="#0B2F59" transform="translate(481,636)"/>
<path d="M0 0 C4.62 0 9.24 0 14 0 C15 1 15 1 15.12025452 3.70179749 C15.1169236 5.51048561 15.1169236 5.51048561 15.11352539 7.35571289 C15.11367142 8.01910172 15.11381744 8.68249054 15.1139679 9.36598206 C15.11326881 11.56823956 15.10547665 13.77041345 15.09765625 15.97265625 C15.09579206 17.49580336 15.09436816 19.01895107 15.09336853 20.542099 C15.08954346 24.55837651 15.07971328 28.57461808 15.06866455 32.59088135 C15.05845019 36.68623366 15.05387086 40.78159176 15.04882812 44.87695312 C15.038091 52.91798528 15.02101472 60.95898817 15 69 C14.34 69 13.68 69 13 69 C13 46.89 13 24.78 13 2 C9.04 2 5.08 2 1 2 C1 15.53 1 29.06 1 43 C0.67 43 0.34 43 0 43 C0 28.81 0 14.62 0 0 Z " fill="#004B8F" transform="translate(560,469)"/>
<path d="M0 0 C1.32 0.33 2.64 0.66 4 1 C6.0745356 1.1490712 6.0745356 1.1490712 8 0 C11.89507048 -0.51934273 13.47365296 -0.38747122 16.6796875 1.97265625 C19.80173244 6.04603139 19.58322449 8.84366441 19.3125 13.8125 C19.28994141 14.60076172 19.26738281 15.38902344 19.24414062 16.20117188 C19.18554161 18.13493929 19.09586827 20.06772167 19 22 C17.68 22 16.36 22 15 22 C14.92652344 20.30230469 14.92652344 20.30230469 14.8515625 18.5703125 C14.77653486 17.08851661 14.70098703 15.606747 14.625 14.125 C14.5940625 13.37863281 14.563125 12.63226562 14.53125 11.86328125 C14.44356169 7.46526812 14.44356169 7.46526812 12 4 C8.96003468 4.0065611 8.96003468 4.0065611 6 5 C3.53325739 8.4400152 3.60393659 12.12914132 3.375 16.25 C3.30023437 17.51328125 3.22546875 18.7765625 3.1484375 20.078125 C3.09945312 21.04234375 3.05046875 22.0065625 3 23 C2.01 23 1.02 23 0 23 C0 15.41 0 7.82 0 0 Z " fill="#061E42" transform="translate(520,636)"/>
<path d="M0 0 C3.12212113 2.71131572 3.90584108 4.41412226 4.5625 8.5 C4 12 4 12 1.875 15 C-1 17 -1 17 -4.125 17.0625 C-7.49548101 15.81688745 -8.49633631 15.25793799 -10 12 C-10.67946095 7.91484588 -10.66211898 5.01864459 -8.375 1.5 C-5.25673949 -0.46942769 -3.62279473 -0.67927401 0 0 Z " fill="#F8F8F7" transform="translate(515,590)"/>
<path d="M0 0 C18.08109513 8.49966011 36.03766238 17.25305706 54 26 C50.25860403 27.24713199 49.60823103 26.62053622 46.16137695 24.91040039 C45.1805867 24.42982681 44.19979645 23.94925323 43.18928528 23.45411682 C42.13295395 22.92398483 41.07662262 22.39385284 39.98828125 21.84765625 C38.90491989 21.31353622 37.82155853 20.7794162 36.70536804 20.22911072 C33.23640443 18.51617212 29.77446709 16.78952852 26.3125 15.0625 C23.96594366 13.9007856 21.61894384 12.73996651 19.27148438 11.58007812 C13.50821277 8.73208009 7.75463953 5.8656707 2 3 C2 12.57 2 22.14 2 32 C-9.22 32.33 -20.44 32.66 -32 33 C-28.05359616 29.05359616 -21.5589705 29.87223672 -16.23046875 29.86328125 C-15.45316406 29.86714844 -14.67585938 29.87101562 -13.875 29.875 C-13.08996094 29.87113281 -12.30492187 29.86726563 -11.49609375 29.86328125 C-10.34947266 29.86521484 -10.34947266 29.86521484 -9.1796875 29.8671875 C-8.15464111 29.86887939 -8.15464111 29.86887939 -7.10888672 29.87060547 C-5 30 -5 30 0 31 C0 20.77 0 10.54 0 0 Z " fill="#060A17" transform="translate(178,413)"/>
<path d="M0 0 C3 0.5625 3 0.5625 5.375 2.0625 C7.24158881 4.93417509 7.63247737 7.16543161 7.453125 10.5859375 C6.65468906 14.06877011 4.86142685 15.59129484 2 17.5625 C-1.05337361 17.5625 -2.40189428 17.05380113 -4.75 15.125 C-7.28880374 11.95149532 -7.39329368 9.57409554 -7 5.5625 C-5.00082867 2.02550457 -4.03889466 0.75729275 0 0 Z " fill="#F9F7F7" transform="translate(552,589.4375)"/>
<path d="M0 0 C3 0.5625 3 0.5625 5.375 2.0625 C7.66553108 5.58639397 7.67045833 8.47270416 7 12.5625 C5.9375 15.0625 5.9375 15.0625 4 16.5625 C-1.98058252 17.31007282 -1.98058252 17.31007282 -4.875 15.1875 C-7.17223813 11.86926715 -7.39514029 9.59293096 -7 5.5625 C-5.00082867 2.02550457 -4.03889466 0.75729275 0 0 Z " fill="#F9F8F8" transform="translate(610,589.4375)"/>
<path d="M0 0 C2.8125 0.9375 2.8125 0.9375 4.8125 2.9375 C5.78626682 6.90747243 6.22551948 9.07391382 4.4375 12.8125 C2.8125 14.9375 2.8125 14.9375 1.8125 15.9375 C-4.46656977 16.51889535 -4.46656977 16.51889535 -7.125 14.375 C-8.62189043 10.94095726 -8.70831077 8.64827676 -8.1875 4.9375 C-5.62433083 1.31890823 -4.52096595 -0.08864639 0 0 Z " fill="#F6F5F5" transform="translate(557.1875,639.0625)"/>
<path d="M0 0 C0 0.99 0 1.98 0 3 C-1.98 3.33 -3.96 3.66 -6 4 C-6.33 5.32 -6.66 6.64 -7 8 C-4.69 8 -2.38 8 0 8 C0 8.99 0 9.98 0 11 C-2.31 11 -4.62 11 -7 11 C-7 17.27 -7 23.54 -7 30 C-8.32 30 -9.64 30 -11 30 C-11 23.73 -11 17.46 -11 11 C-12.32 11 -13.64 11 -15 11 C-15 10.01 -15 9.02 -15 8 C-13.68 8 -12.36 8 -11 8 C-11.061875 7.236875 -11.12375 6.47375 -11.1875 5.6875 C-11 3 -11 3 -10 1.1875 C-6.76011038 -0.73618446 -3.7174181 -0.18282384 0 0 Z " fill="#10203D" transform="translate(596,579)"/>
<path d="M0 0 C1.32 0 2.64 0 4 0 C4 8.91 4 17.82 4 27 C8.95 27 13.9 27 19 27 C19 27.99 19 28.98 19 30 C12.73 30 6.46 30 0 30 C0 20.1 0 10.2 0 0 Z " fill="#03294F" transform="translate(386,628)"/>
<path d="M0 0 C0.99 0 1.98 0 3 0 C3 1.98 3 3.96 3 6 C4.98 6 6.96 6 9 6 C9 6.99 9 7.98 9 9 C7.02 9 5.04 9 3 9 C3.33 13.95 3.66 18.9 4 24 C5.65 24.33 7.3 24.66 9 25 C8.67 26.32 8.34 27.64 8 29 C4.625 28.6875 4.625 28.6875 1 28 C-1.52775351 24.20836973 -1.22443035 21.19125969 -1.125 16.8125 C-1.11597656 16.06291016 -1.10695313 15.31332031 -1.09765625 14.54101562 C-1.07412578 12.69387346 -1.03825561 10.84689588 -1 9 C-2.65 9 -4.3 9 -6 9 C-6 8.01 -6 7.02 -6 6 C-4.35 6 -2.7 6 -1 6 C-1.020625 5.195625 -1.04125 4.39125 -1.0625 3.5625 C-1 1 -1 1 0 0 Z " fill="#041735" transform="translate(460,581)"/>
<path d="M0 0 C0.99 0 1.98 0 3 0 C3 1.98 3 3.96 3 6 C4.98 6 6.96 6 9 6 C9 6.99 9 7.98 9 9 C7.02 9 5.04 9 3 9 C3.33 13.95 3.66 18.9 4 24 C5.65 24.33 7.3 24.66 9 25 C8.67 26.32 8.34 27.64 8 29 C4.625 28.6875 4.625 28.6875 1 28 C-1.52775351 24.20836973 -1.22443035 21.19125969 -1.125 16.8125 C-1.11597656 16.06291016 -1.10695313 15.31332031 -1.09765625 14.54101562 C-1.07412578 12.69387346 -1.03825561 10.84689588 -1 9 C-2.65 9 -4.3 9 -6 9 C-6 8.01 -6 7.02 -6 6 C-4.35 6 -2.7 6 -1 6 C-1.020625 5.195625 -1.04125 4.39125 -1.0625 3.5625 C-1 1 -1 1 0 0 Z " fill="#04264B" transform="translate(775,581)"/>
<path d="M0 0 C0.99 0 1.98 0 3 0 C3.08708752 4.2498709 3.14042181 8.49951239 3.1875 12.75 C3.21263672 13.9565625 3.23777344 15.163125 3.26367188 16.40625 C3.27333984 17.56640625 3.28300781 18.7265625 3.29296875 19.921875 C3.3086792 20.99018555 3.32438965 22.05849609 3.34057617 23.15917969 C2.95396812 26.38396195 2.27031201 27.71142455 0 30 C-4.0511522 31.35038407 -7.76417708 31.55636904 -12 31 C-15.0625 29.125 -15.0625 29.125 -17 27 C-17 26.34 -17 25.68 -17 25 C-12.25 25.875 -12.25 25.875 -10 27 C-7.04230823 27.50010524 -7.04230823 27.50010524 -4 27 C-2.0645852 24.60943058 -2.0645852 24.60943058 -1 22 C-1.33 21.67 -1.66 21.34 -2 21 C-2.33 21.33 -2.66 21.66 -3 22 C-4.68608966 22.07205511 -6.37500659 22.08386068 -8.0625 22.0625 C-8.98160156 22.05347656 -9.90070312 22.04445313 -10.84765625 22.03515625 C-11.55792969 22.02355469 -12.26820313 22.01195312 -13 22 C-13.33 21.34 -13.66 20.68 -14 20 C-13.31292969 19.91363281 -12.62585938 19.82726562 -11.91796875 19.73828125 C-6.31865587 18.98594505 -6.31865587 18.98594505 -1.875 15.8125 C-0.8207846 12.42395049 -0.79245774 9.5282185 -1 6 C-0.34 6.33 0.32 6.66 1 7 C1.05404449 9.75026417 1.09369306 12.49946203 1.125 15.25 C1.15013672 16.41595703 1.15013672 16.41595703 1.17578125 17.60546875 C1.23662606 24.72431144 1.23662606 24.72431144 -1 28 C-0.34 27.01 0.32 26.02 1 25 C1.29111548 22.74385664 1.29111548 22.74385664 1.23046875 20.25390625 C1.22756836 18.87428711 1.22756836 18.87428711 1.22460938 17.46679688 C1.21236328 16.50837891 1.20011719 15.54996094 1.1875 14.5625 C1.18685547 13.60794922 1.18621094 12.65339844 1.18554688 11.66992188 C1.15993756 7.60373163 1.13450765 3.92862176 0 0 Z " fill="#0C1A34" transform="translate(563,636)"/>
<path d="M0 0 C3 6 3 6 2.8203125 7.92578125 C1.18190792 12.06860427 -3.19425301 14.02687596 -7 16 C-9.44794721 16.68862399 -11.44088815 16.89110162 -14 17 C-13.505 16.1028125 -13.505 16.1028125 -13 15.1875 C-11.79212012 12.94613529 -11.79212012 12.94613529 -12 10 C-11.67 9.34 -11.34 8.68 -11 8 C-14.3 8 -17.6 8 -21 8 C-21 7.67 -21 7.34 -21 7 C-20.29875 6.97421875 -19.5975 6.9484375 -18.875 6.921875 C-11.54339265 6.48357239 -5.34128164 5.34128164 0 0 Z " fill="#014A8B" transform="translate(888,525)"/>
<path d="M0 0 C0.99 0 1.98 0 3 0 C3.33 0.66 3.66 1.32 4 2 C4.99 1.34 5.98 0.68 7 0 C8.32 0 9.64 0 11 0 C11 1.32 11 2.64 11 4 C10.030625 4.28875 9.06125 4.5775 8.0625 4.875 C4.89335797 5.64214682 4.89335797 5.64214682 4 8 C3.76827173 10.54615009 3.58105471 13.07396225 3.4375 15.625 C3.39431641 16.33140625 3.35113281 17.0378125 3.30664062 17.765625 C3.20055249 19.51018537 3.09977111 21.25506697 3 23 C1.68 22.67 0.36 22.34 -1 22 C-1.02887814 18.52085059 -1.04675687 15.04173169 -1.0625 11.5625 C-1.07087891 10.56927734 -1.07925781 9.57605469 -1.08789062 8.55273438 C-1.09111328 7.60849609 -1.09433594 6.66425781 -1.09765625 5.69140625 C-1.10289307 4.81685791 -1.10812988 3.94230957 -1.11352539 3.04125977 C-1 1 -1 1 0 0 Z " fill="#08183A" transform="translate(463,636)"/>
<path d="M0 0 C2.19921875 1.48046875 2.19921875 1.48046875 4 4 C4.48717342 7.09845301 4.37701585 10.123456 4.25 13.25 C4.23195313 14.09046875 4.21390625 14.9309375 4.1953125 15.796875 C4.14830798 17.86507395 4.07656724 19.93268441 4 22 C3.01 22 2.02 22 1 22 C0.67 21.34 0.34 20.68 0 20 C-0.556875 20.495 -1.11375 20.99 -1.6875 21.5 C-4.38162983 23.24754367 -5.85375007 23.26218749 -9 23 C-8.67 22.01 -8.34 21.02 -8 20 C-6.865625 19.566875 -5.73125 19.13375 -4.5625 18.6875 C-0.74341933 17.34942866 -0.74341933 17.34942866 0.4375 13.8125 C0.623125 12.884375 0.80875 11.95625 1 11 C1.33 11 1.66 11 2 11 C2.04254356 9.00045254 2.04080783 6.99958364 2 5 C1.67 4.67 1.34 4.34 1 4 C1.185625 4.804375 1.37125 5.60875 1.5625 6.4375 C1.706875 7.283125 1.85125 8.12875 2 9 C1 10 1 10 -1.5625 10.0625 C-2.366875 10.041875 -3.17125 10.02125 -4 10 C-2.68 9.01 -1.36 8.02 0 7 C-0.66 6.01 -1.32 5.02 -2 4 C-5.94726562 3.57094939 -8.61242079 3.91533587 -12 6 C-12 4.68 -12 3.36 -12 2 C-8.02440416 -1.49370544 -4.97377518 -1.35648414 0 0 Z " fill="#132646" transform="translate(740,587)"/>
<path d="M0 0 C1.32 0 2.64 0 4 0 C4.33 0.66 4.66 1.32 5 2 C5.66 1.34 6.32 0.68 7 0 C9.625 -0.125 9.625 -0.125 12 0 C12 1.32 12 2.64 12 4 C11.030625 4.12375 10.06125 4.2475 9.0625 4.375 C7.5465625 4.684375 7.5465625 4.684375 6 5 C4.47893366 8.04213267 4.62570662 11.28047572 4.4375 14.625 C4.39431641 15.33140625 4.35113281 16.0378125 4.30664062 16.765625 C4.20055249 18.51018537 4.09977111 20.25506697 4 22 C2.68 22 1.36 22 0 22 C0 14.74 0 7.48 0 0 Z " fill="#03264E" transform="translate(817,587)"/>
<path d="M0 0 C1.32 0 2.64 0 4 0 C4.33 0.66 4.66 1.32 5 2 C5.66 1.34 6.32 0.68 7 0 C9.625 -0.125 9.625 -0.125 12 0 C12 1.32 12 2.64 12 4 C9.69 4.66 7.38 5.32 5 6 C4.67 11.28 4.34 16.56 4 22 C2.68 22 1.36 22 0 22 C0 14.74 0 7.48 0 0 Z " fill="#02274D" transform="translate(628,587)"/>
<path d="M0 0 C1.04449911 3.13349732 0.93423645 3.98968256 0 7 C0.66 6.01 1.32 5.02 2 4 C2 5.32 2 6.64 2 8 C4.97 8.33 7.94 8.66 11 9 C10.67 9.66 10.34 10.32 10 11 C10.99 11.33 11.98 11.66 13 12 C14.60769874 14.33116317 15.09530596 15.42816426 14.625 18.25 C14.315625 19.11625 14.315625 19.11625 14 20 C13.34 17.69 12.68 15.38 12 13 C7.71 13 3.42 13 -1 13 C-1.33 14.98 -1.66 16.96 -2 19 C-2.33 19.66 -2.66 20.32 -3 21 C-4.32 21 -5.64 21 -7 21 C-6.26951699 16.31196344 -4.63363115 12.09114445 -2.9375 7.6875 C-2.51500977 6.57665039 -2.51500977 6.57665039 -2.08398438 5.44335938 C-1.39281425 3.62757345 -0.69688311 1.81360101 0 0 Z " fill="#091B38" transform="translate(391,588)"/>
<path d="M0 0 C2.850716 2.01824195 4.72764237 3.55749464 5.39624023 7.09863281 C5.49209277 9.52215106 5.43675588 11.89046622 5.3125 14.3125 C5.28994141 15.14845703 5.26738281 15.98441406 5.24414062 16.84570312 C5.1855061 18.89791149 5.09583215 20.94919202 5 23 C4.01 23 3.02 23 2 23 C1.13820516 19.8400856 1.02006909 17.89162689 1.625 14.625 C2.10005895 10.03276346 1.06731244 8.05193239 -1 4 C-2.0725 4.165 -3.145 4.33 -4.25 4.5 C-8 5 -8 5 -12 5 C-9.59871432 -0.31713258 -5.69996588 -1.37620798 0 0 Z " fill="#0D3765" transform="translate(449,636)"/>
<path d="M0 0 C1.69962891 0.04640625 1.69962891 0.04640625 3.43359375 0.09375 C5.13708984 0.10921875 5.13708984 0.10921875 6.875 0.125 C9.87109375 0.59375 9.87109375 0.59375 11.7734375 1.9375 C12.87109375 3.59375 12.87109375 3.59375 12.87109375 6.59375 C8.12109375 5.84375 8.12109375 5.84375 5.87109375 3.59375 C3.66036398 3.35121187 3.66036398 3.35121187 1.24609375 3.46875 C0.02019531 3.49582031 0.02019531 3.49582031 -1.23046875 3.5234375 C-2.17019531 3.55824219 -2.17019531 3.55824219 -3.12890625 3.59375 C-3.45890625 5.57375 -3.78890625 7.55375 -4.12890625 9.59375 C-0.28806739 12.07171055 3.68074119 13.87039237 7.8828125 15.62890625 C9.87109375 16.59375 9.87109375 16.59375 11.87109375 18.59375 C11.99609375 21.71875 11.99609375 21.71875 11.87109375 24.59375 C11.21109375 24.92375 10.55109375 25.25375 9.87109375 25.59375 C9.89171875 24.52125 9.91234375 23.44875 9.93359375 22.34375 C9.3084041 18.59690105 9.3084041 18.59690105 7.01171875 17.34375 C4.65620851 16.33198721 2.2927677 15.43433104 -0.12890625 14.59375 C-3.62890625 13.21875 -3.62890625 13.21875 -6.12890625 11.59375 C-7.25390625 8.71875 -7.25390625 8.71875 -7.12890625 5.59375 C-5.04614698 2.1207871 -4.0452841 0.76764442 0 0 Z " fill="#064C8F" transform="translate(667.12890625,579.40625)"/>
<path d="M0 0 C0.99 0.33 1.98 0.66 3 1 C3 3.31 3 5.62 3 8 C3.66 5.69 4.32 3.38 5 1 C5.33 1 5.66 1 6 1 C6.35288435 4.7935068 6.28393415 6.55941253 4.1875 9.8125 C1.20999904 12.79000096 -0.62557402 12.96930935 -4.8125 13.3125 C-9.18067282 13.24802512 -11.71698042 11.96272499 -15 9 C-15.875 6.25 -15.875 6.25 -16 4 C-14.68 4 -13.36 4 -12 4 C-11.29423828 4.98226562 -11.29423828 4.98226562 -10.57421875 5.984375 C-9.16346278 8.26352268 -9.16346278 8.26352268 -6.51953125 8.390625 C-5.62621094 8.34421875 -4.73289062 8.2978125 -3.8125 8.25 C-2.91144531 8.21390625 -2.01039063 8.1778125 -1.08203125 8.140625 C-0.39496094 8.09421875 0.29210937 8.0478125 1 8 C1.20970559 3.85906302 1.20970559 3.85906302 0 0 Z " fill="#071C3B" transform="translate(444,597)"/>
<path d="M0 0 C0.99 0 1.98 0 3 0 C3.33 0.66 3.66 1.32 4 2 C4.99 1.34 5.98 0.68 7 0 C9.6875 -0.125 9.6875 -0.125 12 0 C11.875 1.875 11.875 1.875 11 4 C8 5.125 8 5.125 5 6 C3.5192152 8.9615696 3.64685963 11.83506295 3.4375 15.125 C3.35371094 16.40632812 3.26992188 17.68765625 3.18359375 19.0078125 C3.09271484 20.48894531 3.09271484 20.48894531 3 22 C2.01 22 1.02 22 0 22 C0 14.74 0 7.48 0 0 Z " fill="#08284C" transform="translate(753,587)"/>
<path d="M0 0 C0.33 0 0.66 0 1 0 C1.01981934 1.13429443 1.03963867 2.26858887 1.06005859 3.43725586 C1.13663829 7.68111846 1.22527121 11.92466136 1.31738281 16.16821289 C1.35545768 17.9982264 1.39034638 19.82830927 1.421875 21.65844727 C1.46799633 24.30249685 1.52590831 26.94607758 1.5859375 29.58984375 C1.59748871 30.39646957 1.60903992 31.2030954 1.62094116 32.03416443 C1.8263861 40.10040319 2.66834454 47.63163376 8 54 C12.40116157 57.71653644 15.27956317 58.45763495 21 58 C21 58.66 21 59.32 21 60 C22.65 60 24.3 60 26 60 C26 60.33 26 60.66 26 61 C19.227439 61.56023023 14.25144764 61.51521878 8.6484375 57.41015625 C3.12875613 52.68834352 0.51457976 46.76894343 -0.26156616 39.57589722 C-0.34378864 37.02306231 -0.33830156 34.4873124 -0.29296875 31.93359375 C-0.28872391 31.01409439 -0.28447906 30.09459503 -0.28010559 29.14723206 C-0.26346776 26.24367541 -0.22584467 23.34084274 -0.1875 20.4375 C-0.17243386 18.45508823 -0.15874886 16.47266546 -0.14648438 14.49023438 C-0.11361326 9.65988222 -0.06193611 4.83006336 0 0 Z " fill="#05040B" transform="translate(456,483)"/>
<path d="M0 0 C1.32 0 2.64 0 4 0 C4 9.9 4 19.8 4 30 C2.68 30 1.36 30 0 30 C0.33 29.01 0.66 28.02 1 27 C1 27.66 1 28.32 1 29 C1.66 29 2.32 29 3 29 C3 19.76 3 10.52 3 1 C2.34 1 1.68 1 1 1 C1 1.75925781 1 2.51851562 1 3.30078125 C1 10.20052083 1 17.10026042 1 24 C0.34 24.33 -0.32 24.66 -1 25 C-0.96519531 24.39671875 -0.93039062 23.7934375 -0.89453125 23.171875 C-0.77468501 19.63355749 -0.70270613 16.76181555 -2 13.4375 C-5.21683865 11.12539722 -8.11107127 11.74498828 -12 12 C-12 10.66666667 -12 9.33333333 -12 8 C-10.741875 7.95875 -9.48375 7.9175 -8.1875 7.875 C-7.47980469 7.85179687 -6.77210938 7.82859375 -6.04296875 7.8046875 C-4 8 -4 8 -1 10 C-0.67 6.7 -0.34 3.4 0 0 Z " fill="#02000A" transform="translate(519,579)"/>
<path d="M0 0 C1.32 0.33 2.64 0.66 4 1 C4 7.93 4 14.86 4 22 C2.68 22.33 1.36 22.66 0 23 C0 15.41 0 7.82 0 0 Z " fill="#1D3659" transform="translate(508,636)"/>
<path d="M0 0 C1.32 0 2.64 0 4 0 C4 7.26 4 14.52 4 22 C2.68 22 1.36 22 0 22 C0 14.74 0 7.48 0 0 Z " fill="#072C52" transform="translate(531,587)"/>
<path d="M0 0 C0.33 0 0.66 0 1 0 C1.02578125 0.62648438 1.0515625 1.25296875 1.078125 1.8984375 C1.13484375 2.71570313 1.1915625 3.53296875 1.25 4.375 C1.29640625 5.18710937 1.3428125 5.99921875 1.390625 6.8359375 C1.79393423 9.13501068 1.79393423 9.13501068 3.7890625 10.2734375 C7.36245397 11.44773222 10.24129447 11.24249713 14 11 C14.66 10.34 15.32 9.68 16 9 C16.99 9 17.98 9 19 9 C18.7041325 11.86005251 18.15920836 12.85571743 16 14.8125 C11.85415437 16.4535639 8.29122343 16.06878786 4 15 C1 13 1 13 0.3125 10.875 C-0.08477078 7.22010878 -0.06231163 3.67638613 0 0 Z " fill="#0B2145" transform="translate(790,594)"/>
<path d="M0 0 C0.99 0.33 1.98 0.66 3 1 C2.773125 1.763125 2.54625 2.52625 2.3125 3.3125 C1.69564494 5.95422441 1.69564494 5.95422441 3.13671875 7.54296875 C5.47068653 9.36806305 7.68458898 10.0918029 10.5 11 C16.90286299 13.06543967 16.90286299 13.06543967 19 16 C18.8125 19.625 18.8125 19.625 18 23 C17.34 23.33 16.68 23.66 16 24 C16 21.36 16 18.72 16 16 C15.10796875 15.74605469 14.2159375 15.49210938 13.296875 15.23046875 C11.54117187 14.71419922 11.54117187 14.71419922 9.75 14.1875 C8.00976562 13.68283203 8.00976562 13.68283203 6.234375 13.16796875 C3.22735946 12.08210203 1.23541861 11.26821204 -1 9 C-1.59309515 6.20320268 -1.23329216 3.89282278 -1 1 C-0.67 0.67 -0.34 0.34 0 0 Z " fill="#063F77" transform="translate(430,582)"/>
<path d="M0 0 C0.33 0 0.66 0 1 0 C1.13277344 0.63808594 1.26554687 1.27617188 1.40234375 1.93359375 C1.57894531 2.75988281 1.75554687 3.58617187 1.9375 4.4375 C2.19853516 5.67306641 2.19853516 5.67306641 2.46484375 6.93359375 C2.80752994 8.97661204 2.80752994 8.97661204 4 10 C3.67 8.35 3.34 6.7 3 5 C3.804375 6.2065625 3.804375 6.2065625 4.625 7.4375 C7.47643874 10.51405232 8.8754681 10.8281445 13 11 C15.27650745 10.6422386 15.27650745 10.6422386 17 10 C17 9.34 17 8.68 17 8 C18.32 8 19.64 8 21 8 C19.60478153 11.37177797 18.23717239 13.25017709 15 15 C9.8266069 15.57482146 6.33261584 14.92199673 2 12 C-0.37140579 8.1195178 -0.17496818 4.4616887 0 0 Z " fill="#081129" transform="translate(409,644)"/>
<path d="M0 0 C0.33 0 0.66 0 1 0 C3.59415759 33.50178301 3.59415759 33.50178301 2 48 C1.34 47.67 0.68 47.34 0 47 C0 31.49 0 15.98 0 0 Z " fill="#004A8D" transform="translate(682,472)"/>
<path d="M0 0 C0.66 0.33 1.32 0.66 2 1 C1.67 1.99 1.34 2.98 1 4 C1.33 4.66 1.66 5.32 2 6 C2 8 2 10 2 12 C2.33 13.32 2.66 14.64 3 16 C6.3 16.66 9.6 17.32 13 18 C11 20 11 20 8.7578125 20.1875 C1.68370607 19.68370607 1.68370607 19.68370607 -1.625 16.375 C-3.20066439 12.50746013 -3.51747785 10.13982282 -3 6 C-1.5 2.5625 -1.5 2.5625 0 0 Z " fill="#0C2449" transform="translate(544,589)"/>
<path d="M0 0 C2.18614424 2.18614424 2.68256535 3.53879949 3.625 6.4375 C3.88539063 7.21996094 4.14578125 8.00242187 4.4140625 8.80859375 C5 11 5 11 5 14 C2.03 14 -0.94 14 -4 14 C-2.68 9.38 -1.36 4.76 0 0 Z " fill="#F5F6F8" transform="translate(396,583)"/>
<path d="M0 0 C3.5625 0.3125 3.5625 0.3125 5.5 1.625 C6.5625 3.3125 6.5625 3.3125 6.5625 6.3125 C2.2725 6.3125 -2.0175 6.3125 -6.4375 6.3125 C-4.97238372 0.45203488 -4.97238372 0.45203488 0 0 Z " fill="#F9F8F8" transform="translate(799.4375,589.6875)"/>
<path d="M0 0 C-0.32773371 3.03153686 -0.64134897 4.61573103 -2.75 6.875 C-5.59474935 8.29737468 -7.01616624 7.91172698 -10 7 C-10.33 5.68 -10.66 4.36 -11 3 C-4.5 0 -4.5 0 0 0 Z " fill="#FAFAFA" transform="translate(451,648)"/>
<path d="M0 0 C6.46153846 0.46153846 6.46153846 0.46153846 9 3 C9 3.99 9 4.98 9 6 C4.71 6 0.42 6 -4 6 C-2 2 -2 2 0 0 Z " fill="#F8F8F8" transform="translate(417,639)"/>
<path d="M0 0 C0.66 0 1.32 0 2 0 C3.32229189 2.64458379 3.09677194 4.67761301 3.0625 7.625 C3.05347656 8.62789062 3.04445313 9.63078125 3.03515625 10.6640625 C3.02355469 11.43492187 3.01195312 12.20578125 3 13 C3.66 9.7 4.32 6.4 5 3 C5.33 3 5.66 3 6 3 C6.45481136 7.54811362 6.81363846 11.6371001 4.0625 15.5 C0.11685024 18.72093858 -2.96066757 19.41007226 -8 19 C-11.0625 17.75 -11.0625 17.75 -13 16 C-13 15.01 -13 14.02 -13 13 C-12.4740625 13.7115625 -12.4740625 13.7115625 -11.9375 14.4375 C-9.11492366 16.71377124 -6.55725845 16.74591011 -3 17 C-2.01 16.67 -1.02 16.34 0 16 C0 15.01 0 14.02 0 13 C0.33 12.34 0.66 11.68 1 11 C1.21377721 5.39296787 1.21377721 5.39296787 0 0 Z " fill="#0A1125" transform="translate(615,591)"/>
<path d="M0 0 C0.25 2.3125 0.25 2.3125 0 5 C-1.6875 6.875 -1.6875 6.875 -4 8 C-6.75 7.6875 -6.75 7.6875 -9 7 C-9.625 5.125 -9.625 5.125 -10 3 C-6.84916414 -0.15083586 -4.41812253 0 0 0 Z " fill="#F7F7F9" transform="translate(740,599)"/>
<path d="M0 0 C3.68809988 0.03165751 5.05393884 0.1964638 8.3125 2.125 C10.25 4.3125 10.25 4.3125 11.25 7.3125 C10.98046875 9.7578125 10.98046875 9.7578125 10.4375 12.4375 C10.26605469 13.32695313 10.09460938 14.21640625 9.91796875 15.1328125 C9.69753906 15.85210938 9.47710938 16.57140625 9.25 17.3125 C8.59 17.6425 7.93 17.9725 7.25 18.3125 C7.25 13.6925 7.25 9.0725 7.25 4.3125 C4.8678125 4.126875 4.8678125 4.126875 2.4375 3.9375 C-1.24342531 3.65067465 -2.58759418 3.42077055 -5.75 1.3125 C-4.10962605 -0.32787395 -2.25523159 0.06338669 0 0 Z " fill="#082D5A" transform="translate(609.75,586.6875)"/>
<path d="M0 0 C0.66 0 1.32 0 2 0 C2 9.24 2 18.48 2 28 C1.34 28 0.68 28 0 28 C-0.06058594 27.02417969 -0.12117187 26.04835938 -0.18359375 25.04296875 C-0.26738281 23.77066406 -0.35117187 22.49835937 -0.4375 21.1875 C-0.51871094 19.92292969 -0.59992187 18.65835938 -0.68359375 17.35546875 C-0.87184547 14.00818107 -0.87184547 14.00818107 -2 11 C-1.34 11 -0.68 11 0 11 C0 7.37 0 3.74 0 0 Z " fill="#04549C" transform="translate(520,580)"/>
<path d="M0 0 C3.25 -0.3125 3.25 -0.3125 7 0 C9.25 2 9.25 2 11 5 C11.1272233 7.95215895 11.07580985 10.41899822 10.75 13.3125 C10.68425781 14.05306641 10.61851562 14.79363281 10.55078125 15.55664062 C10.38672618 17.37296459 10.19601656 19.18684686 10 21 C9.34 21 8.68 21 8 21 C7.67 15.06 7.34 9.12 7 3 C4.69 2.67 2.38 2.34 0 2 C0 1.34 0 0.68 0 0 Z " fill="#06427F" transform="translate(489,636)"/>
<path d="M0 0 C1.48117801 0.28127421 2.95993249 0.57533732 4.4375 0.875 C5.67306641 1.11863281 5.67306641 1.11863281 6.93359375 1.3671875 C7.61550781 1.57601562 8.29742187 1.78484375 9 2 C10.59412284 5.18824568 10.10174735 8.62896662 10.0625 12.125 C10.05798828 12.87910156 10.05347656 13.63320313 10.04882812 14.41015625 C10.03703499 16.27347127 10.01909942 18.13674555 10 20 C10.66 20 11.32 20 12 20 C12 15.05 12 10.1 12 5 C12.33 5 12.66 5 13 5 C13 10.61 13 16.22 13 22 C11.68 21.67 10.36 21.34 9 21 C8.67 15.06 8.34 9.12 8 3 C2.42163702 2.68377223 2.42163702 2.68377223 -1 4 C-0.67 2.68 -0.34 1.36 0 0 Z " fill="#090810" transform="translate(487,637)"/>
<path d="M0 0 C0.66 0.33 1.32 0.66 2 1 C-0.45570175 2.33838733 -2.91429916 3.67086232 -5.375 5 C-6.42300781 5.57234375 -6.42300781 5.57234375 -7.4921875 6.15625 C-12.7734375 9 -12.7734375 9 -15 9 C-14.67 10.32 -14.34 11.64 -14 13 C-14.99 13 -15.98 13 -17 13 C-13.7 14.65 -10.4 16.3 -7 18 C-10 19 -10 19 -12.26171875 18.00390625 C-13.06222656 17.52824219 -13.86273438 17.05257813 -14.6875 16.5625 C-15.49574219 16.08941406 -16.30398437 15.61632812 -17.13671875 15.12890625 C-17.75160156 14.75636719 -18.36648437 14.38382812 -19 14 C-19.05859375 11.8046875 -19.05859375 11.8046875 -18 9 C-15.22247904 6.96622095 -12.17511536 5.57516869 -9.0625 4.125 C-8.22525391 3.70992188 -7.38800781 3.29484375 -6.52539062 2.8671875 C-1.9783925 0.67233724 -1.9783925 0.67233724 0 0 Z " fill="#043F7D" transform="translate(163,372)"/>
<path d="M0 0 C0.33 0 0.66 0 1 0 C1 5.61 1 11.22 1 17 C0.01 17 -0.98 17 -2 17 C-2.33 16.34 -2.66 15.68 -3 15 C-3.556875 15.495 -4.11375 15.99 -4.6875 16.5 C-7.38162983 18.24754367 -8.85375007 18.26218749 -12 18 C-11.505 16.515 -11.505 16.515 -11 15 C-9.865625 14.566875 -8.73125 14.13375 -7.5625 13.6875 C-3.74341933 12.34942866 -3.74341933 12.34942866 -2.5625 8.8125 C-2.376875 7.884375 -2.19125 6.95625 -2 6 C-1.67 6 -1.34 6 -1 6 C-1 7.98 -1 9.96 -1 12 C-0.67 8.04 -0.34 4.08 0 0 Z " fill="#050A20" transform="translate(743,592)"/>
<path d="M0 0 C1.32 0 2.64 0 4 0 C4.47050781 0.65484375 4.94101562 1.3096875 5.42578125 1.984375 C6.83653722 4.26352268 6.83653722 4.26352268 9.48046875 4.390625 C10.37378906 4.34421875 11.26710938 4.2978125 12.1875 4.25 C13.08855469 4.21390625 13.98960937 4.1778125 14.91796875 4.140625 C15.60503906 4.09421875 16.29210937 4.0478125 17 4 C16.67 4.66 16.34 5.32 16 6 C13.09458095 6.96847302 11.03362546 7.19582812 8 7.25 C7.13375 7.27578125 6.2675 7.3015625 5.375 7.328125 C3 7 3 7 1.1875 5.734375 C0 4 0 4 0 0 Z " fill="#0D284F" transform="translate(428,601)"/>
<path d="M0 0 C3.3125 -0.3125 3.3125 -0.3125 7 0 C9.59873716 3.01639135 9.9953744 4.76506814 10.07421875 8.76953125 C9.96233585 10.11870745 9.83304411 11.46653897 9.6875 12.8125 C9.62626953 13.50537109 9.56503906 14.19824219 9.50195312 14.91210938 C9.34977344 16.60949822 9.17696065 18.30501549 9 20 C8.01 20.33 7.02 20.66 6 21 C5.67 14.4 5.34 7.8 5 1 C3.35 1 1.7 1 0 1 C0 0.67 0 0.34 0 0 Z " fill="#2E6CA5" transform="translate(695,588)"/>
<path d="M0 0 C0 1.32 0 2.64 0 4 C-1.134375 4.12375 -2.26875 4.2475 -3.4375 4.375 C-5.2009375 4.684375 -5.2009375 4.684375 -7 5 C-8.4807848 7.9615696 -8.35314037 10.83506295 -8.5625 14.125 C-8.64628906 15.40632812 -8.73007812 16.68765625 -8.81640625 18.0078125 C-8.90728516 19.48894531 -8.90728516 19.48894531 -9 21 C-9.33 21 -9.66 21 -10 21 C-10 14.73 -10 8.46 -10 2 C-9.01 2 -8.02 2 -7 2 C-4 0 -4 0 0 0 Z " fill="#0C64AF" transform="translate(474,636)"/>
<path d="M0 0 C0.66 0.99 1.32 1.98 2 3 C5.06556598 3.73343428 5.06556598 3.73343428 8 4 C8 4.33 8 4.66 8 5 C6.02 5.33 4.04 5.66 2 6 C1.67 11.94 1.34 17.88 1 24 C0.67 24 0.34 24 0 24 C0 18.06 0 12.12 0 6 C-1.65 6 -3.3 6 -5 6 C-5 5.01 -5 4.02 -5 3 C-3.35 3 -1.7 3 0 3 C0 2.01 0 1.02 0 0 Z " fill="#0E5797" transform="translate(586,584)"/>
<path d="M0 0 C0.33 0.99 0.66 1.98 1 3 C-0.15661157 5.20807663 -1.22677434 7.22677434 -3 9 C-4.99958364 9.04080783 -7.00045254 9.04254356 -9 9 C-8.34 7.68 -7.68 6.36 -7 5 C-7.66 4.34 -8.32 3.68 -9 3 C-7.88625 2.87625 -6.7725 2.7525 -5.625 2.625 C-1.96896323 2.3534187 -1.96896323 2.3534187 0 0 Z " fill="#DFE3E9" transform="translate(562,655)"/>
<path d="M0 0 C0.66 0 1.32 0 2 0 C2 6.6 2 13.2 2 20 C0.68 19.67 -0.64 19.34 -2 19 C-1.505 17.515 -1.505 17.515 -1 16 C-0.77202438 13.26710707 -0.58331813 10.54957796 -0.4375 7.8125 C-0.39431641 7.06291016 -0.35113281 6.31332031 -0.30664062 5.54101562 C-0.20077315 3.69421625 -0.0999024 1.84713166 0 0 Z " fill="#045299" transform="translate(492,588)"/>
<path d="M0 0 C4.92127034 -0.16682272 8.50343896 -0.24828052 13 2 C12.67 2.99 12.34 3.98 12 5 C12.33 5.66 12.66 6.32 13 7 C13.06950541 8.54023996 13.08452357 10.08334988 13.0625 11.625 C13.05347656 12.44226563 13.04445313 13.25953125 13.03515625 14.1015625 C13.02355469 14.72804688 13.01195312 15.35453125 13 16 C12.34 16.33 11.68 16.66 11 17 C11.03480469 16.39671875 11.06960938 15.7934375 11.10546875 15.171875 C11.22531499 11.63355749 11.29729387 8.76181555 10 5.4375 C6.78316135 3.12539722 3.88892873 3.74498828 0 4 C0 2.66666667 0 1.33333333 0 0 Z " fill="#050D26" transform="translate(507,587)"/>
<path d="M0 0 C1.35445256 2.70890512 1 4.99005875 1 8 C1.33 9.32 1.66 10.64 2 12 C5.63 12.33 9.26 12.66 13 13 C12.67 13.66 12.34 14.32 12 15 C8.63810737 15.76118324 6.03100189 16.30651407 2.6875 15.3125 C0.61821174 13.70305358 -0.00790748 12.42036365 -1 10 C-1.23046875 7.67578125 -1.23046875 7.67578125 -1.1875 5.3125 C-1.18105469 4.52488281 -1.17460938 3.73726562 -1.16796875 2.92578125 C-1 1 -1 1 0 0 Z " fill="#112D54" transform="translate(603,593)"/>
<path d="M0 0 C0.99 0.33 1.98 0.66 3 1 C2.36248638 2.27502723 1.7174183 3.54632463 1.0625 4.8125 C-0.08126997 7.16732053 -1.05142964 9.56081908 -2 12 C-2.66 12 -3.32 12 -4 12 C-4.12375 12.94875 -4.2475 13.8975 -4.375 14.875 C-5 18 -5 18 -7 20 C-6.74273307 18.10227809 -6.46856661 16.20684323 -6.1875 14.3125 C-6.03667969 13.25675781 -5.88585937 12.20101562 -5.73046875 11.11328125 C-4.96732043 7.86071861 -3.8609972 5.75165078 -2 3 C-1.34 2.01 -0.68 1.02 0 0 Z " fill="#094684" transform="translate(396,580)"/>
<path d="M0 0 C0.33 0 0.66 0 1 0 C1.08714316 3.91652632 1.14043985 7.83280311 1.1875 11.75 C1.22520508 13.41675781 1.22520508 13.41675781 1.26367188 15.1171875 C1.27333984 16.18710937 1.28300781 17.25703125 1.29296875 18.359375 C1.3086792 19.34389648 1.32438965 20.32841797 1.34057617 21.34277344 C0.94965182 24.39282409 0.03157056 25.74113723 -2 28 C-2.66 27.67 -3.32 27.34 -4 27 C-3.51015625 26.5153125 -3.0203125 26.030625 -2.515625 25.53125 C-0.36681526 21.94251621 -0.63992023 18.55231139 -0.75 14.5 C-0.75515625 13.74074219 -0.7603125 12.98148438 -0.765625 12.19921875 C-0.80671804 7.98520619 -0.80671804 7.98520619 -1.63769531 3.87695312 C-1.81703613 2.94786133 -1.81703613 2.94786133 -2 2 C-1.34 1.34 -0.68 0.68 0 0 Z " fill="#0E68B7" transform="translate(564,637)"/>
<path d="M0 0 C0.66 0.33 1.32 0.66 2 1 C-0.75 5.875 -0.75 5.875 -3 7 C-9.47058824 7.35294118 -9.47058824 7.35294118 -13 5 C-12.67 4.34 -12.34 3.68 -12 3 C-10.68 3.66 -9.36 4.32 -8 5 C-7.67 4.34 -7.34 3.68 -7 3 C-5.01276732 2.29618843 -3.01222047 1.6288189 -1 1 C-0.67 0.67 -0.34 0.34 0 0 Z " fill="#0F1C3E" transform="translate(490,603)"/>
<path d="M0 0 C0.66 0 1.32 0 2 0 C2 1.65 2 3.3 2 5 C3.98 5 5.96 5 8 5 C8 5.33 8 5.66 8 6 C5.69 6 3.38 6 1 6 C1 10.62 1 15.24 1 20 C0.67 20 0.34 20 0 20 C0 15.38 0 10.76 0 6 C-1.65 6 -3.3 6 -5 6 C-4.360625 5.7525 -3.72125 5.505 -3.0625 5.25 C-0.81258459 4.18437567 -0.81258459 4.18437567 -0.25 1.875 C-0.1675 1.25625 -0.085 0.6375 0 0 Z " fill="#065BA2" transform="translate(460,583)"/>
<path d="M0 0 C1.93681161 -0.08107583 3.8745934 -0.13922475 5.8125 -0.1875 C6.89144531 -0.22230469 7.97039063 -0.25710938 9.08203125 -0.29296875 C12 0 12 0 13.88671875 1.32421875 C15 3 15 3 15 6 C12.625 5.75 12.625 5.75 10 5 C8.6875 2.9375 8.6875 2.9375 8 1 C5.36 1 2.72 1 0 1 C0 0.67 0 0.34 0 0 Z " fill="#063467" transform="translate(665,580)"/>
<path d="M0 0 C0.391875 0.639375 0.78375 1.27875 1.1875 1.9375 C3.40464248 4.46045523 4.76866073 4.48978854 8 5 C8.33 5.66 8.66 6.32 9 7 C8.67 7.66 8.34 8.32 8 9 C5.69 9 3.38 9 1 9 C-0.61949011 6.42786866 -1.04408751 5.32330841 -0.625 2.25 C-0.41875 1.5075 -0.2125 0.765 0 0 Z " fill="#103869" transform="translate(438,650)"/>
<path d="M0 0 C0 1.32 0 2.64 0 4 C-2.97 4.66 -5.94 5.32 -9 6 C-9.33 4.35 -9.66 2.7 -10 1 C-9.67 1.66 -9.34 2.32 -9 3 C-8.443125 2.505 -7.88625 2.01 -7.3125 1.5 C-4.61837017 -0.24754367 -3.14624993 -0.26218749 0 0 Z " fill="#0B284F" transform="translate(640,587)"/>
<path d="M0 0 C1.58246707 -0.08153933 3.16616273 -0.13943557 4.75 -0.1875 C6.07257813 -0.23970703 6.07257813 -0.23970703 7.421875 -0.29296875 C10.47610949 0.05410335 11.80564299 0.88254802 14 3 C14 3.66 14 4.32 14 5 C11.83125748 4.49396008 10.00032373 4.00016187 8 3 C6.46331135 2.77532169 4.92031946 2.59203195 3.375 2.4375 C2.55773437 2.35371094 1.74046875 2.26992188 0.8984375 2.18359375 C0.27195312 2.12300781 -0.35453125 2.06242188 -1 2 C-0.67 1.34 -0.34 0.68 0 0 Z " fill="#063F75" transform="translate(434,580)"/>
<path d="M0 0 C-3.65464013 2.43642676 -5.70168967 2.07959834 -10 2 C-11.26221698 3.04579619 -11.26221698 3.04579619 -11.1875 5.375 C-11.20048548 8.23444863 -11.20048548 8.23444863 -9 11 C-10.32 10.34 -11.64 9.68 -13 9 C-13.3125 5.6875 -13.3125 5.6875 -13 2 C-8.97564938 -2.02435062 -5.15724557 -0.96152036 0 0 Z " fill="#0D1328" transform="translate(739,598)"/>
<path d="M0 0 C0 1.32 0 2.64 0 4 C-0.94875 4.12375 -1.8975 4.2475 -2.875 4.375 C-6.08667191 4.71687177 -6.08667191 4.71687177 -8 7 C-8.33 5.35 -8.66 3.7 -9 2 C-5.86501708 0.14223235 -3.62528568 -0.20140476 0 0 Z " fill="#182C4B" transform="translate(829,587)"/>
<path d="M0 0 C-0.33 0.99 -0.66 1.98 -1 3 C-4.87862084 4.39044898 -7.86462003 5 -12 5 C-9.28085049 -1.02097391 -6.0998139 -0.0983841 0 0 Z " fill="#08142B" transform="translate(449,636)"/>
<path d="M0 0 C2.475 0.495 2.475 0.495 5 1 C5.33 1.99 5.66 2.98 6 4 C5.34 4 4.68 4 4 4 C4 3.34 4 2.68 4 2 C3.34 2 2.68 2 2 2 C5.52127761 6.5929708 9.57747597 7.11941917 15 8 C15 8.33 15 8.66 15 9 C9.76109914 9.31433405 6.47166327 8.80778856 2 6 C0 3 0 3 0 0 Z " fill="#0E1224" transform="translate(658,601)"/>
<path d="M0 0 C0.33 1.32 0.66 2.64 1 4 C3.97 4.33 6.94 4.66 10 5 C9.67 5.66 9.34 6.32 9 7 C6.49609375 7.4140625 6.49609375 7.4140625 3.4375 7.625 C2.42558594 7.69976563 1.41367187 7.77453125 0.37109375 7.8515625 C-0.41136719 7.90054688 -1.19382812 7.94953125 -2 8 C-1.34 5.36 -0.68 2.72 0 0 Z " fill="#072753" transform="translate(392,592)"/>
<path d="M0 0 C0 0.33 0 0.66 0 1 C-2.31 1 -4.62 1 -7 1 C-7.28875 1.639375 -7.5775 2.27875 -7.875 2.9375 C-9 5 -9 5 -11 6 C-11.46651207 8.12576782 -11.46651207 8.12576782 -11.625 10.5625 C-11.69976563 11.38878906 -11.77453125 12.21507812 -11.8515625 13.06640625 C-11.90054688 13.70449219 -11.94953125 14.34257813 -12 15 C-12.33 15 -12.66 15 -13 15 C-13.76882007 6.20128137 -13.76882007 6.20128137 -11 1.875 C-6.97259374 -0.64212891 -4.67942502 -0.39656144 0 0 Z " fill="#055299" transform="translate(556,588)"/>
<path d="M0 0 C0.66 0 1.32 0 2 0 C3.76462683 3.08809695 4 4.23312136 4 8 C-1.28 7.67 -6.56 7.34 -12 7 C-12 6.67 -12 6.34 -12 6 C-7.71 6 -3.42 6 1 6 C0.67 4.02 0.34 2.04 0 0 Z " fill="#325C89" transform="translate(425,639)"/>
<path d="M0 0 C3.375 -0.1875 3.375 -0.1875 7 0 C7.66 0.99 8.32 1.98 9 3 C9.99 3 10.98 3 12 3 C13.5625 4.375 13.5625 4.375 15 6 C15.66 6.66 16.32 7.32 17 8 C12.76677156 7.37954537 9.47709705 5.89476441 5.6875 3.9375 C4.61886719 3.38964844 3.55023438 2.84179688 2.44921875 2.27734375 C1.64097656 1.85582031 0.83273437 1.43429687 0 1 C0 0.67 0 0.34 0 0 Z " fill="#033F7B" transform="translate(272,392)"/>
<path d="M0 0 C0.99 0 1.98 0 3 0 C2.855625 0.886875 2.71125 1.77375 2.5625 2.6875 C1.73256094 8.42593581 1.40854359 14.21954276 1 20 C0.67 20 0.34 20 0 20 C0 13.4 0 6.8 0 0 Z " fill="#0B68B1" transform="translate(521,637)"/>
<path d="M0 0 C1.98 0.495 1.98 0.495 4 1 C4.625 3.375 4.625 3.375 5 6 C4.34 6.66 3.68 7.32 3 8 C1.68 7.01 0.36 6.02 -1 5 C-0.67 3.35 -0.34 1.7 0 0 Z " fill="#F1F3F5" transform="translate(441,597)"/>
<path d="M0 0 C1.9375 1.5 1.9375 1.5 3 3 C2.67 3.99 2.34 4.98 2 6 C0.906875 5.505 -0.18625 5.01 -1.3125 4.5 C-4.79966245 2.81160094 -4.79966245 2.81160094 -8 3 C-8.66 2.67 -9.32 2.34 -10 2 C-6.30513897 -0.46324069 -4.36706908 -0.38991688 0 0 Z " fill="#0C1229" transform="translate(559,636)"/>
<path d="M0 0 C0.99 0.33 1.98 0.66 3 1 C2.34 3.31 1.68 5.62 1 8 C0.34 6.68 -0.32 5.36 -1 4 C-0.34414811 7.60992379 -0.34414811 7.60992379 1 11 C-0.32 10.34 -1.64 9.68 -3 9 C-3.36923077 3.46153846 -3.36923077 3.46153846 -1.5 1.125 C-1.005 0.75375 -0.51 0.3825 0 0 Z " fill="#080F26" transform="translate(439,647)"/>
<path d="M0 0 C0.33 0.66 0.66 1.32 1 2 C-2.47325181 3.1577506 -5.36067448 3.06866652 -9 3 C-9.33 2.34 -9.66 1.68 -10 1 C-6.44020218 -1.32756011 -4.04793886 -1.07945036 0 0 Z " fill="#0B1E44" transform="translate(716,587)"/>
<path d="M0 0 C5.75 1.875 5.75 1.875 8 3 C8 4.32 8 5.64 8 7 C6.68 7.33 5.36 7.66 4 8 C3.896875 7.236875 3.79375 6.47375 3.6875 5.6875 C2.95635961 2.82940576 2.23048087 1.84257115 0 0 Z " fill="#043F7C" transform="translate(329,379)"/>
<path d="M0 0 C1.32 0 2.64 0 4 0 C2.9802352 2.78117672 2.33608762 3.81833102 -0.3125 5.25 C-3.01833686 6.00511726 -5.20707882 6.1595955 -8 6 C-6.68 5.67 -5.36 5.34 -4 5 C-4 4.34 -4 3.68 -4 3 C-2.68 2.67 -1.36 2.34 0 2 C0 1.34 0 0.68 0 0 Z " fill="#113562" transform="translate(426,652)"/>
<path d="M0 0 C2 2 2 2 2.4375 4 C2.87458708 6.38640738 2.87458708 6.38640738 6 8 C6 8.66 6 9.32 6 10 C8.31 10 10.62 10 13 10 C13 10.33 13 10.66 13 11 C5.75362319 11.48309179 5.75362319 11.48309179 2.5625 9.4375 C0.56343786 6.31896306 0.28139524 3.65813817 0 0 Z " fill="#024A90" transform="translate(546,646)"/>
<path d="M0 0 C7.50769231 -0.36923077 7.50769231 -0.36923077 10 1.5 C10.495 2.2425 10.495 2.2425 11 3 C10.01 4.485 10.01 4.485 9 6 C8.01 5.34 7.02 4.68 6 4 C4.34450469 3.61500109 2.6777567 3.27206865 1 3 C0.67 2.01 0.34 1.02 0 0 Z " fill="#0B1324" transform="translate(416,636)"/>
<path d="M0 0 C0.33 0 0.66 0 1 0 C1.12117187 0.59167969 1.24234375 1.18335938 1.3671875 1.79296875 C2.66096888 8.0635983 2.66096888 8.0635983 5 14 C5.66 14.33 6.32 14.66 7 15 C5.35 14.67 3.7 14.34 2 14 C0.02905192 9.07262981 -0.1799928 5.21979128 0 0 Z " fill="#0B467F" transform="translate(790,594)"/>
<path d="M0 0 C0.99 0 1.98 0 3 0 C3 2.31 3 4.62 3 7 C1.68 7 0.36 7 -1 7 C-1.04254356 5.00045254 -1.04080783 2.99958364 -1 1 C-0.67 0.67 -0.34 0.34 0 0 Z " fill="#062756" transform="translate(775,581)"/>
<path d="M0 0 C0 0.33 0 0.66 0 1 C-2.31 1 -4.62 1 -7 1 C-7.2475 1.598125 -7.495 2.19625 -7.75 2.8125 C-9.16370012 5.28647521 -10.65055383 6.43370255 -13 8 C-12.68762196 5.11050316 -12.35661121 3.41366901 -10.4375 1.1875 C-6.8580787 -0.55632063 -3.95820158 -0.19791008 0 0 Z " fill="#074D92" transform="translate(614,588)"/>
<path d="M0 0 C-2 2 -2 2 -4.3828125 2.1953125 C-5.28773438 2.17210937 -6.19265625 2.14890625 -7.125 2.125 C-8.49011719 2.09792969 -8.49011719 2.09792969 -9.8828125 2.0703125 C-10.58148437 2.04710937 -11.28015625 2.02390625 -12 2 C-12.33 1.34 -12.66 0.68 -13 0 C-11.39950296 -0.39036513 -9.79437629 -0.76178619 -8.1875 -1.125 C-7.29417969 -1.33382812 -6.40085937 -1.54265625 -5.48046875 -1.7578125 C-3 -2 -3 -2 0 0 Z " fill="#080D21" transform="translate(562,656)"/>
<path d="M0 0 C0.33 0.99 0.66 1.98 1 3 C-1.1875 5.0625 -1.1875 5.0625 -4 7 C-6.8125 6.75 -6.8125 6.75 -9 6 C-7.68 5.67 -6.36 5.34 -5 5 C-5 4.34 -5 3.68 -5 3 C-2.5 1.375 -2.5 1.375 0 0 Z " fill="#0A3062" transform="translate(519,603)"/>
<path d="M0 0 C2.12199561 3.44824286 2 6.02242497 2 10 C2.89831016 12.30230766 2.89831016 12.30230766 4 14 C1 13 1 13 -0.25 10.9375 C-1.26453601 6.96390064 -0.68366939 4.03364941 0 0 Z " fill="#0557A2" transform="translate(411,642)"/>
<path d="M0 0 C-2.3773161 2.3773161 -3.70285207 2.67028521 -7 3 C-7.66 2.34 -8.32 1.68 -9 1 C-8 -1 -8 -1 -6.1875 -1.75 C-3.50171361 -2.05694702 -2.2747813 -1.38111722 0 0 Z " fill="#1E3A67" transform="translate(449,647)"/>
<path d="M0 0 C0 1.32 0 2.64 0 4 C-2.31 3.67 -4.62 3.34 -7 3 C-4.49955934 -0.00052879 -4.2621484 0 0 0 Z " fill="#081E42" transform="translate(474,636)"/>
<path d="M0 0 C0.33 0.99 0.66 1.98 1 3 C-0.4375 5.6875 -0.4375 5.6875 -2 8 C-2.99 7.67 -3.98 7.34 -5 7 C-4.34 7 -3.68 7 -3 7 C-3.33 6.01 -3.66 5.02 -4 4 C-2.68 2.68 -1.36 1.36 0 0 Z " fill="#F8F8F9" transform="translate(562,655)"/>
<path d="M0 0 C1.48206495 0.254496 2.96068615 0.52911762 4.4375 0.8125 C5.67306641 1.03873047 5.67306641 1.03873047 6.93359375 1.26953125 C7.61550781 1.51058594 8.29742187 1.75164063 9 2 C9.33 2.99 9.66 3.98 10 5 C9.34 5 8.68 5 8 5 C8 4.34 8 3.68 8 3 C4.65747276 2.92572162 2.1964086 2.93453047 -1 4 C-0.67 2.68 -0.34 1.36 0 0 Z " fill="#040C28" transform="translate(487,637)"/>
<path d="M0 0 C3 1 3 1 6 3 C5.05125 3.12375 4.1025 3.2475 3.125 3.375 C-0.08667191 3.71687177 -0.08667191 3.71687177 -2 6 C-2 5.34 -2 4.68 -2 4 C-2.66 4 -3.32 4 -4 4 C-3 2 -3 2 0 0 Z " fill="#08132F" transform="translate(694,587)"/>
<path d="M0 0 C0.66 0.33 1.32 0.66 2 1 C-3.14285714 7.57142857 -3.14285714 7.57142857 -7 9 C-5.44499019 5.18315774 -2.96404505 2.80804268 0 0 Z " fill="#04529B" transform="translate(724,475)"/>
<path d="M0 0 C1.67542976 0.28604898 3.34385343 0.61781233 5 1 C2.42910583 3.11180592 0.36939433 4.66306057 -3 5 C-3.66 4.34 -4.32 3.68 -5 3 C-4.360625 2.690625 -3.72125 2.38125 -3.0625 2.0625 C-1.06389179 1.1654837 -1.06389179 1.1654837 0 0 Z " fill="#064382" transform="translate(300,400)"/>
<path d="M0 0 C-1.75 3.875 -1.75 3.875 -4 5 C-4.65772428 8.02934491 -4.65772428 8.02934491 -5 11 C-5.33 11 -5.66 11 -6 11 C-6.48951049 4.63636364 -6.48951049 4.63636364 -4.125 1.5625 C-2 0 -2 0 0 0 Z " fill="#035299" transform="translate(687,438)"/>
<path d="M0 0 C1.65 0 3.3 0 5 0 C4.67 1.32 4.34 2.64 4 4 C2.68 3.67 1.36 3.34 0 3 C0 2.01 0 1.02 0 0 Z " fill="#091D3B" transform="translate(507,628)"/>
<path d="M0 0 C0.66 0.33 1.32 0.66 2 1 C1.01 1.33 0.02 1.66 -1 2 C-1 2.66 -1 3.32 -1 4 C-1.66 4 -2.32 4 -3 4 C-3.33 4.66 -3.66 5.32 -4 6 C-4.99 5.67 -5.98 5.34 -7 5 C-2.25 1.125 -2.25 1.125 0 0 Z " fill="#045095" transform="translate(607,471)"/>
<path d="M0 0 C1.32 0 2.64 0 4 0 C3.67 1.32 3.34 2.64 3 4 C1.68 3.67 0.36 3.34 -1 3 C-0.67 2.01 -0.34 1.02 0 0 Z " fill="#061934" transform="translate(531,579)"/>
<path d="M0 0 C0 0.66 0 1.32 0 2 C1.65 2 3.3 2 5 2 C5 2.33 5 2.66 5 3 C1.37 3 -2.26 3 -6 3 C-2 0 -2 0 0 0 Z " fill="#13263B" transform="translate(477,541)"/>
</svg>
