<svg version="1.1" id="Layer_1" xmlns="http://www.w3.org/2000/svg" xmlns:xlink="http://www.w3.org/1999/xlink" x="0px" y="0px"
	 width="100%" viewBox="0 0 496 496" enable-background="new 0 0 496 496" xml:space="preserve">
<path fill="#000000" opacity="1.000000" stroke="none" 
	d="
M163.371490,239.433945 
	C166.396301,236.446960 169.866455,237.872681 173.043915,237.743912 
	C179.595825,237.478409 179.606628,237.646179 179.607681,230.913071 
	C179.611359,207.444366 179.581146,183.975586 179.634781,160.507004 
	C179.648849,154.344879 182.691208,150.251953 188.012680,149.094543 
	C189.841721,148.696747 192.338699,147.787689 193.054382,150.532410 
	C193.762619,153.248566 191.323318,153.041443 189.575729,153.491867 
	C186.096817,154.388535 184.198273,156.765717 184.192719,160.373550 
	C184.155075,184.866272 184.192993,209.359161 184.128937,233.851791 
	C184.119324,237.523178 186.322144,237.701797 189.070114,237.691681 
	C202.066284,237.643875 215.062698,237.669510 228.059036,237.669159 
	C255.717896,237.668411 283.377380,237.574493 311.035004,237.759842 
	C315.591156,237.790375 317.169037,236.440613 317.162720,231.839828 
	C317.131683,209.185776 317.379517,186.531464 317.497314,163.877060 
	C317.539154,155.834244 315.115753,153.394608 307.195129,153.338165 
	C304.029602,153.315598 300.863739,153.328720 297.698425,153.292282 
	C296.108459,153.273972 294.609344,153.040268 294.644501,150.922409 
	C294.674500,149.117035 295.950439,148.761826 297.381317,148.761261 
	C302.211792,148.759308 307.083893,148.419144 311.861359,148.936066 
	C316.911987,149.482544 320.472107,152.419418 321.366669,157.739990 
	C321.778076,160.187103 322.074463,162.686844 322.080719,165.163589 
	C322.136139,187.157181 322.234802,209.152145 322.022186,231.143799 
	C321.975616,235.960861 323.033600,237.920273 328.343597,237.803833 
	C339.716248,237.554428 338.307495,236.080093 338.303925,247.836182 
	C338.301910,254.551468 333.763519,258.827911 326.336212,259.135895 
	C321.013306,259.356689 315.673859,259.150024 310.343140,259.227112 
	C308.568146,259.252777 306.682709,258.753265 304.758575,260.091766 
	C304.980621,263.242493 307.197388,264.428101 309.887909,265.063538 
	C314.335052,266.113861 318.799866,265.690125 323.289581,265.221649 
	C332.955048,264.213165 338.597260,268.997742 338.331360,277.804047 
	C338.163177,283.373260 334.566223,287.346375 328.780304,288.149384 
	C326.977753,288.399567 325.122009,288.302765 323.290619,288.303101 
	C275.304169,288.312012 227.317688,288.312408 179.331223,288.316528 
	C177.665146,288.316681 175.990707,288.237579 174.334671,288.372925 
	C170.298981,288.702820 167.035751,291.929962 167.471909,295.475861 
	C167.960220,299.445740 170.287262,301.766296 174.499557,301.773499 
	C180.664413,301.784027 186.829269,301.791321 192.994125,301.791809 
	C223.652145,301.794312 254.310165,301.778046 284.968140,301.818268 
	C288.219360,301.822540 290.818268,301.667725 292.779053,298.133026 
	C294.886719,294.333557 307.801117,293.391846 310.714050,296.642059 
	C312.170044,298.266571 313.528625,298.649170 315.388733,298.732483 
	C317.031860,298.806122 319.086151,298.716095 319.021576,301.094299 
	C318.957611,303.451569 316.887085,303.159637 315.263794,303.341888 
	C314.341705,303.445435 313.262878,303.009796 312.551300,304.001160 
	C312.708282,304.931061 313.472992,304.765808 314.065643,304.866608 
	C316.078400,305.208923 319.033264,304.541901 318.983154,307.673645 
	C318.939667,310.391052 315.768738,309.342682 314.406189,310.338104 
	C309.460266,313.951447 303.947601,313.317841 298.444061,313.356964 
	C295.662720,313.376770 293.188782,312.409668 292.336975,309.893433 
	C291.109070,306.266357 288.561035,306.314819 285.625549,306.317200 
	C248.969284,306.347198 212.312943,306.348541 175.656631,306.328247 
	C166.440735,306.323120 162.114487,301.237427 163.622314,292.321075 
	C164.452332,287.413025 168.215210,284.166656 173.826431,283.770325 
	C176.645782,283.571167 179.488800,283.693604 182.321121,283.693665 
	C229.141251,283.695007 275.961365,283.701477 322.781494,283.698547 
	C324.612488,283.698456 326.510834,283.911530 328.260468,283.511749 
	C331.930511,282.673096 334.040588,280.277039 333.859222,276.360474 
	C333.687958,272.661713 331.666870,270.369385 327.950684,270.200958 
	C322.633087,269.960022 317.300201,270.070587 311.974487,269.989655 
	C306.282410,269.903229 301.827301,267.639435 299.944366,262.042023 
	C298.788208,258.605164 296.245758,259.218536 293.864624,259.216400 
	C263.706512,259.189178 233.548370,259.208466 203.390228,259.208923 
	C195.392502,259.209045 187.394791,259.180450 179.397064,259.173889 
	C166.538437,259.163361 162.713669,255.243805 163.013580,242.349930 
	C163.032867,241.520935 163.153488,240.694321 163.371490,239.433945 
z"/>
<path fill="#000000" opacity="1.000000" stroke="none" 
	d="
M249.554062,120.255638 
	C248.942398,119.224365 248.307068,118.537994 248.169510,117.763237 
	C247.180786,112.194901 243.707947,110.525757 238.487137,111.296700 
	C237.587234,111.429596 236.466660,111.497437 235.897766,110.371262 
	C235.970078,109.303520 236.780991,108.837097 237.589310,108.961922 
	C243.481812,109.871872 245.777054,107.224236 247.241119,101.524467 
	C249.247604,93.713028 254.982086,88.777809 263.228149,87.665009 
	C271.868164,86.499039 279.118286,89.217339 283.853149,96.785240 
	C285.533112,99.470345 287.242310,100.386879 290.265076,99.805466 
	C291.783203,99.513466 293.574860,99.112236 295.050629,100.381721 
	C294.599884,102.475189 292.854492,102.166321 291.468933,102.238449 
	C289.108612,102.361320 287.152679,102.593521 287.318115,105.781174 
	C287.491119,109.115280 289.820892,108.693375 291.959473,108.802162 
	C293.532745,108.882187 295.263489,108.547028 296.461731,110.056496 
	C296.154541,110.511169 295.971039,110.978348 295.828064,110.966248 
	C289.935394,110.467484 286.412598,112.830933 284.540375,118.711555 
	C283.644958,121.524094 280.718231,123.664391 278.826813,126.195282 
	C277.749115,127.637314 276.701447,129.187363 277.113770,131.171585 
	C285.305298,133.148041 285.294128,133.148041 285.293152,141.972580 
	C285.291016,160.629059 285.149170,179.287689 285.409760,197.940598 
	C285.478790,202.880829 283.729858,204.366898 279.051086,204.153305 
	C272.567566,203.857346 266.061432,204.034271 259.565094,204.051468 
	C255.284943,204.062790 251.210480,203.914566 247.186386,206.609756 
	C243.463211,209.103363 238.767670,208.642899 234.898315,206.031647 
	C232.520996,204.427292 230.104736,203.986221 227.379211,204.005737 
	C219.384033,204.062973 211.386017,203.914078 203.393417,204.068436 
	C199.326889,204.146988 197.812637,202.552368 197.841766,198.448776 
	C197.984818,178.294357 198.032135,158.137497 197.849777,137.983871 
	C197.807404,133.301376 199.653000,131.909698 204.032959,131.920761 
	C210.644485,131.937469 210.645721,131.732941 210.674194,125.137733 
	C210.679230,123.971718 210.674240,122.805672 210.675842,121.639641 
	C210.687302,113.312485 211.501404,112.620781 219.944046,113.834717 
	C227.636520,114.940788 233.845627,118.400131 237.566193,125.446640 
	C239.711624,129.509964 242.041504,131.731750 246.864273,128.838821 
	C248.861191,127.640976 251.586105,127.656792 254.276749,127.054176 
	C253.723694,124.057587 251.206436,122.658325 249.554062,120.255638 
M244.200012,164.499969 
	C244.200012,173.913803 244.200012,183.327637 244.200012,193.748917 
	C254.545746,189.519867 263.302216,193.025253 272.144287,195.957001 
	C273.381592,196.367249 274.742340,196.437241 276.055115,196.581284 
	C279.146484,196.920441 280.674774,195.701508 280.661407,192.389893 
	C280.593964,175.675354 280.630402,158.960388 280.630402,142.245590 
	C280.375519,145.435699 278.366669,148.440033 279.871552,151.843430 
	C280.449768,153.151138 279.512177,154.928619 277.625702,155.054535 
	C275.677399,155.184570 275.103180,153.647568 275.035095,152.072144 
	C274.989777,151.024307 275.363708,149.958328 275.578827,148.736786 
	C262.931000,154.233658 257.324799,150.894821 256.932495,137.930405 
	C256.902313,136.932907 256.899170,135.932663 256.817932,134.939041 
	C256.669250,133.120575 255.562958,132.476837 253.827835,132.279694 
	C248.040649,131.622177 244.223236,134.812241 244.200546,140.534042 
	C244.170166,148.189240 244.197403,155.844650 244.200012,164.499969 
M202.937531,162.500000 
	C202.942307,171.990372 202.973572,181.480835 202.942093,190.971085 
	C202.922760,196.802032 203.726974,197.626053 209.604904,196.335419 
	C217.300613,194.645691 224.452606,190.633438 233.525757,191.727982 
	C229.502014,184.100876 223.622955,181.444733 216.683746,181.482269 
	C211.745392,181.509003 210.464981,179.738892 210.586716,175.071960 
	C210.873199,164.090469 210.705948,153.096146 210.642456,142.107498 
	C210.632370,140.362381 211.253922,138.426651 209.782471,136.922546 
	C203.160278,136.993118 202.926025,137.199249 202.907547,143.518204 
	C202.890015,149.512070 202.923172,155.506088 202.937531,162.500000 
M271.641205,144.566467 
	C274.476593,142.659805 275.073517,140.424072 271.282654,139.549072 
	C268.146027,138.825073 264.709351,139.401062 260.237061,139.401062 
	C263.242188,141.648911 266.022980,139.932922 267.679260,142.043945 
	C265.978821,144.141449 263.151184,142.336746 260.731262,144.682678 
	C264.652985,144.682678 267.739899,144.682678 271.641205,144.566467 
M234.941895,198.115540 
	C230.249252,195.300812 225.691650,196.659943 219.715378,198.592148 
	C225.718933,198.963440 230.286560,199.280945 234.941895,198.115540 
M257.289581,198.911453 
	C259.058624,198.911453 260.827667,198.911453 262.596710,198.911453 
	C257.960022,196.680908 253.386856,195.892990 248.739929,198.938431 
	C251.299606,198.938431 253.859268,198.938431 257.289581,198.911453 
M265.786255,147.331894 
	C264.773254,147.556656 263.561066,146.834229 262.427612,148.278687 
	C265.253448,148.760391 267.752808,148.939682 270.250122,147.524292 
	C268.996094,147.460678 267.742096,147.397064 265.786255,147.331894 
z"/>
<path fill="#000000" opacity="1.000000" stroke="none" 
	d="
M338.318787,325.375793 
	C341.996399,321.098907 344.649292,320.826660 347.047668,325.147461 
	C351.563965,333.283844 355.437378,341.777313 359.568024,350.127319 
	C360.616058,352.245850 359.564301,353.650208 357.841553,354.692963 
	C355.618805,356.038300 353.787506,355.175690 351.962311,353.661041 
	C350.228912,352.222534 349.816711,349.310059 346.955048,349.155243 
	C343.000275,348.941315 338.759308,347.987793 336.958618,353.193970 
	C336.758514,353.772522 336.194061,354.299438 335.674286,354.680939 
	C332.430725,357.061859 329.621704,352.045380 325.832611,354.441193 
	C321.856842,356.955017 319.551788,353.390656 317.854462,350.148010 
	C317.060791,348.631714 316.388794,347.079285 314.270966,347.299591 
	C312.204834,347.514557 312.202667,349.147247 312.043732,350.633911 
	C311.769470,353.199249 310.889923,355.343781 307.853210,355.140015 
	C304.757446,354.932373 302.438019,353.273376 301.822388,350.141235 
	C301.445251,348.222412 301.752655,346.169037 301.752655,342.671173 
	C298.591125,351.032227 293.874451,355.934845 286.015625,355.807251 
	C278.504028,355.685272 273.696899,350.733002 269.379822,343.878082 
	C269.217163,346.505920 269.105743,348.231567 269.004517,349.957794 
	C268.849243,352.605408 268.416412,355.250214 265.005646,355.128204 
	C261.970337,355.019623 259.061493,353.475983 258.921326,350.313751 
	C258.553162,342.007050 258.754974,333.673767 258.794189,325.351379 
	C258.802155,323.661102 259.882904,322.580444 261.463776,322.128418 
	C263.384186,321.579376 265.050262,322.136749 266.504547,323.491852 
	C269.160950,325.967194 269.250977,329.228119 269.133636,332.601288 
	C272.060883,325.988312 276.612762,321.838867 283.961578,321.715118 
	C293.487640,321.554688 298.024628,327.886627 301.672821,336.538544 
	C301.672821,332.937775 301.816803,330.314789 301.639557,327.713623 
	C301.363281,323.658752 303.267426,321.942596 307.166290,321.787170 
	C314.908234,321.478455 322.336060,321.738129 326.439575,329.983887 
	C328.335052,333.792755 328.946869,337.557587 326.480408,341.349609 
	C325.246979,343.245911 325.150848,345.058044 327.492859,347.595490 
	C331.147125,340.076080 334.640045,332.888641 338.318787,325.375793 
M290.346008,334.101105 
	C287.706238,331.291321 284.676544,331.559113 281.884033,333.522369 
	C278.982788,335.562042 278.511536,338.768127 279.439331,341.978455 
	C280.156860,344.460999 282.289215,345.763336 284.789581,345.477173 
	C288.242889,345.081940 290.290283,342.715240 291.360352,339.514618 
	C291.915375,337.854614 291.560364,336.257629 290.346008,334.101105 
M315.674683,336.218140 
	C316.831787,335.475189 318.022186,334.621887 317.073944,333.086487 
	C316.368439,331.944122 315.036255,332.204865 313.906189,332.398682 
	C312.763489,332.594696 312.243530,333.419739 312.286896,334.529114 
	C312.356995,336.321045 313.523193,336.651031 315.674683,336.218140 
z"/>
<path fill="#000000" opacity="1.000000" stroke="none" 
	d="
M215.717377,344.576721 
	C219.577682,341.255615 218.503372,337.048523 218.660843,333.140930 
	C218.714432,331.810913 218.606262,330.472961 218.688004,329.145782 
	C218.844864,326.598846 217.857071,323.532471 221.148483,322.195618 
	C224.122635,320.987610 226.190445,322.875275 227.938736,324.896973 
	C233.823242,320.254364 245.271667,320.652802 251.316345,325.502777 
	C258.005188,330.869537 260.149078,340.162903 256.293640,347.522400 
	C253.960266,351.976410 250.061371,354.306030 245.206635,355.170227 
	C244.718185,355.257141 244.211411,355.264435 243.712860,355.268005 
	C233.631470,355.339935 227.961197,357.273621 229.544327,341.954803 
	C229.799301,339.487732 229.580124,336.971680 229.242920,334.444092 
	C228.972366,336.782928 228.659760,339.117767 228.438736,341.461273 
	C227.610031,350.248322 223.378662,355.177063 216.071930,355.815765 
	C209.229202,356.413849 201.354645,350.343719 199.780075,342.890900 
	C198.998474,339.191406 198.870407,335.353821 198.450195,331.610168 
	C189.839706,329.753082 188.465515,330.777649 188.380112,339.108582 
	C188.344284,342.605011 188.410965,346.102509 188.371292,349.598846 
	C188.343140,352.082062 188.690430,355.122833 185.030289,355.107361 
	C181.529465,355.092529 178.911743,353.305176 178.747757,349.446930 
	C178.564072,345.124878 178.513855,340.782471 178.714066,336.463257 
	C178.879074,332.903595 178.123230,330.614685 173.936249,330.767517 
	C172.058746,330.836029 170.449539,329.862518 169.069946,328.525330 
	C167.862854,327.355347 167.522369,325.986603 167.853943,324.430847 
	C168.228424,322.673798 169.676941,321.850739 171.178864,321.949188 
	C180.007980,322.527985 189.047287,319.680420 197.668030,323.505310 
	C198.593399,323.915894 199.145660,323.455444 199.919006,323.135376 
	C205.628143,320.772766 209.069901,323.075287 209.287277,329.441345 
	C209.417892,333.266968 209.107758,337.118134 209.414093,340.924164 
	C209.700775,344.486176 211.417542,346.622528 215.717377,344.576721 
M248.009491,335.428101 
	C246.521072,332.745453 244.181656,331.805908 241.312241,332.518982 
	C238.922882,333.112793 239.417801,335.289001 239.302475,337.037750 
	C239.237366,338.024963 239.222565,339.024536 239.298065,340.009888 
	C239.418503,341.581329 238.721146,343.594971 240.687057,344.393372 
	C242.747955,345.230347 244.603165,344.279633 246.042374,342.765808 
	C247.798798,340.918335 249.095062,338.832886 248.009491,335.428101 
z"/>
<path fill="#000000" opacity="1.000000" stroke="none" 
	d="
M195.055435,162.461105 
	C195.235367,183.230820 195.425919,203.556900 195.233200,223.879349 
	C195.188782,228.563522 196.663330,229.785599 201.207977,229.761780 
	C234.029480,229.589874 266.852905,229.571381 299.674042,229.774475 
	C304.587219,229.804886 306.013641,228.247208 305.800964,223.510468 
	C305.459961,215.915421 305.709564,208.293869 304.693909,200.370972 
	C301.271545,206.147446 297.713593,211.849213 294.473969,217.726440 
	C292.275818,221.714249 288.935120,223.157623 284.485046,223.430878 
	C282.995972,219.451324 282.677368,215.878601 285.163635,212.090012 
	C288.265594,207.363266 291.078735,202.419693 293.657623,197.385849 
	C295.619354,193.556732 297.722717,191.876129 301.625824,194.968048 
	C302.487122,195.650345 303.557861,196.304153 304.904999,195.956207 
	C306.182251,194.783066 305.665558,193.186935 305.677277,191.769440 
	C305.738007,184.439026 305.536743,177.102005 305.783417,169.779312 
	C305.918274,165.777100 304.785736,163.738129 300.483917,164.308273 
	C299.341248,164.459717 298.154999,164.312286 296.990570,164.260941 
	C295.692047,164.203735 294.707275,163.747681 294.723083,162.218353 
	C294.737427,160.830658 295.472107,159.947800 296.823883,159.924210 
	C300.483521,159.860336 304.148956,159.830353 307.805054,159.970688 
	C310.033173,160.056198 310.290924,161.839737 310.291412,163.594727 
	C310.297699,185.920395 310.280823,208.246063 310.306061,230.571701 
	C310.308899,233.084427 309.205597,234.267639 306.701874,234.200104 
	C305.703522,234.173187 304.703156,234.232910 303.703705,234.233017 
	C268.215515,234.236786 232.726929,234.155884 197.239639,234.335068 
	C192.330399,234.359848 190.530579,233.120071 190.599487,227.920502 
	C190.873260,207.264267 190.687408,186.602264 190.768646,165.942764 
	C190.778305,163.485855 189.928482,159.475220 195.055435,162.461105 
z"/>
<path fill="#000000" opacity="1.000000" stroke="none" 
	d="
M150.113281,342.762909 
	C154.274460,345.928223 154.274460,345.928223 157.857422,344.330872 
	C156.841827,342.453522 154.872406,342.579132 153.310715,341.941589 
	C149.194275,340.261047 145.453049,338.109192 144.726517,333.155243 
	C143.937531,327.775360 146.398254,323.546417 151.005508,322.092682 
	C156.522934,320.351746 163.756027,322.772675 166.103775,326.999847 
	C167.089966,328.775513 166.640823,330.177765 165.538269,331.562256 
	C164.371765,333.027039 162.853958,333.577118 161.126572,332.705505 
	C159.234207,331.750671 157.454254,330.307312 155.108078,332.320709 
	C156.303589,334.485840 158.653732,333.836487 160.312790,334.468750 
	C166.321503,336.758820 169.833435,342.452209 168.341187,348.094360 
	C166.933380,353.417206 161.121399,356.495697 154.773926,355.301086 
	C151.188004,354.626190 148.351852,352.640503 145.901093,350.092621 
	C144.512405,348.648865 143.124863,346.935822 144.412430,344.790283 
	C145.591858,342.825012 147.251999,341.485413 150.113281,342.762909 
z"/>
<path fill="#000000" opacity="1.000000" stroke="none" 
	d="
M242.290253,219.277359 
	C244.263657,218.964233 244.925644,217.262039 246.133591,216.176163 
	C250.708649,212.063339 253.990921,211.555832 259.090057,214.995239 
	C262.082642,217.013763 264.761169,217.830887 268.287506,216.332016 
	C272.876251,214.381592 276.745514,218.363556 281.164032,218.535324 
	C281.898895,218.563904 282.192657,219.763596 282.023376,220.640808 
	C281.794922,221.824799 280.840637,222.362335 279.827179,222.224976 
	C274.015930,221.437347 268.220001,221.346558 262.360626,221.736313 
	C260.782715,221.841248 258.873901,220.560303 257.499329,219.444519 
	C253.721558,216.378052 250.840591,217.549194 248.204544,220.926712 
	C248.000046,221.188721 247.801819,221.456772 247.582016,221.705536 
	C241.975037,228.051422 239.538284,227.794418 236.266556,220.484283 
	C234.059509,220.792542 233.039688,225.833740 230.398026,222.777512 
	C228.181763,220.213409 231.298630,217.911224 233.037170,216.119736 
	C237.003876,212.032257 239.982758,213.094574 242.290253,219.277359 
z"/>
<path fill="#000000" opacity="1.000000" stroke="none" 
	d="
M140.789368,193.347290 
	C139.196945,193.289871 138.023239,193.324951 136.879761,193.155777 
	C135.821899,192.999237 135.080460,192.330368 134.964066,191.188400 
	C134.848541,190.055222 135.431381,189.231491 136.404007,188.820190 
	C137.308197,188.437820 138.342529,187.987045 139.264160,188.085434 
	C143.878998,188.578110 145.509933,186.216492 145.578201,182.004730 
	C145.607239,180.211838 145.581329,177.922180 148.199829,178.057129 
	C150.603851,178.180984 150.909683,180.470901 150.811249,182.212097 
	C150.575989,186.374649 152.275894,188.344070 156.457626,188.514893 
	C158.317352,188.590851 161.089752,188.400818 160.895935,191.242676 
	C160.698380,194.139206 157.920685,193.806122 155.819107,193.946350 
	C154.524841,194.032730 153.220123,193.962341 151.911148,193.962341 
	C150.417252,196.549133 151.499954,199.321945 150.894638,201.865540 
	C150.505371,203.501205 150.090317,205.292725 147.825546,205.026810 
	C145.858368,204.795868 145.747925,203.174789 145.690491,201.640366 
	C145.640762,200.312683 145.532944,198.975372 145.633408,197.656219 
	C145.880875,194.406525 144.405273,193.030167 140.789368,193.347290 
z"/>
<path fill="#000000" opacity="1.000000" stroke="none" 
	d="
M359.689392,193.490570 
	C356.151764,195.283417 357.760437,198.280579 357.372284,200.727539 
	C357.099762,202.445526 357.720459,204.826630 355.109039,204.958969 
	C352.305359,205.101059 352.352997,202.617020 352.101288,200.690918 
	C351.827026,198.592072 352.402466,196.392380 351.484711,194.371399 
	C349.363861,193.078720 347.145905,194.459320 345.090576,193.835999 
	C343.615021,193.388550 342.099030,192.939484 342.116486,191.054993 
	C342.131622,189.422348 343.367340,188.698669 344.791931,188.695206 
	C350.222137,188.681976 353.011536,186.260956 352.728394,180.613785 
	C352.658112,179.211777 353.417755,177.963226 355.091705,177.999115 
	C356.785461,178.035400 357.376526,179.347519 357.326141,180.738907 
	C357.147217,185.676285 358.690521,188.690231 364.379364,188.222641 
	C366.109772,188.080399 368.291290,188.731003 367.990356,191.281387 
	C367.719574,193.576340 365.687286,193.231079 364.078918,193.319168 
	C362.755768,193.391632 361.428528,193.388321 359.689392,193.490570 
z"/>
<path fill="#000000" opacity="1.000000" stroke="none" 
	d="
M187.459534,372.031921 
	C189.515793,380.764191 186.228012,386.670197 179.608871,386.803986 
	C174.753220,386.902161 171.641357,384.410675 170.466476,379.484314 
	C169.242645,374.352722 171.223480,369.596436 175.355377,367.745270 
	C179.807495,365.750702 183.899551,367.089905 187.459534,372.031921 
M183.617188,378.897278 
	C183.608109,377.414368 183.930481,375.831909 183.521301,374.469147 
	C182.656357,371.588348 180.704788,369.856720 177.542770,371.195648 
	C174.878815,372.323700 174.397171,374.938141 174.466156,377.460541 
	C174.527710,379.711639 175.554672,381.726501 177.880463,382.457977 
	C180.505539,383.283600 182.373199,382.159210 183.617188,378.897278 
z"/>
<path fill="#000000" opacity="1.000000" stroke="none" 
	d="
M261.095154,386.435486 
	C256.768890,386.595459 253.429153,385.629578 251.747360,381.619781 
	C249.998947,377.451141 250.283310,373.364502 253.159241,369.893341 
	C255.896698,366.589325 259.902832,366.739227 263.772125,367.075104 
	C264.972595,367.179321 266.156281,367.599915 266.013855,369.156006 
	C265.903778,370.358856 264.875580,370.714539 263.877502,370.860107 
	C262.731567,371.027283 261.564301,371.061127 260.404572,371.118469 
	C256.691864,371.302124 255.053040,373.363068 255.144882,376.950348 
	C255.234818,380.463501 256.794800,382.618958 260.568146,382.645752 
	C260.900269,382.648102 261.241394,382.606079 261.563019,382.666473 
	C263.206879,382.975067 265.964203,381.845886 266.058472,384.391418 
	C266.173187,387.486908 263.177063,386.033875 261.095154,386.435486 
z"/>
<path fill="#000000" opacity="1.000000" stroke="none" 
	d="
M240.391754,373.568420 
	C244.407700,378.764496 244.407700,378.764496 235.225327,381.969879 
	C235.923553,384.932587 239.745499,382.454468 240.800079,385.446045 
	C237.380936,386.838837 234.139709,387.097107 231.453522,384.270721 
	C228.827225,381.507294 228.951462,378.094421 230.903915,375.104797 
	C233.191711,371.601746 236.553848,371.523224 240.391754,373.568420 
z"/>
<path fill="#000000" opacity="1.000000" stroke="none" 
	d="
M327.814880,380.621765 
	C326.193970,380.697601 324.789673,380.514526 324.042786,382.009338 
	C324.855408,384.901886 328.620361,382.432983 329.600464,385.025940 
	C325.029449,387.340942 320.722870,386.418335 319.114380,382.817047 
	C317.476105,379.149017 318.964661,374.372559 322.227875,372.826721 
	C325.520782,371.266754 329.644653,372.698029 331.067078,376.028900 
	C332.270020,378.845856 332.188110,381.045868 327.814880,380.621765 
z"/>
<path fill="#000000" opacity="1.000000" stroke="none" 
	d="
M267.266968,381.421600 
	C267.145447,380.065399 266.966675,379.051117 267.162872,378.115509 
	C267.934845,374.433441 270.221619,372.218079 274.030151,372.248413 
	C277.360809,372.274963 279.718964,374.045288 280.186432,377.504852 
	C280.671326,381.093262 280.444733,384.667816 276.380371,386.183899 
	C272.886871,387.487030 269.888672,386.533447 267.902313,383.185852 
	C267.654358,382.767975 267.551849,382.263855 267.266968,381.421600 
M275.361786,382.420197 
	C277.128540,380.182922 277.519379,377.818115 274.908386,376.148651 
	C273.107025,374.996918 271.687500,376.420929 271.404541,378.200623 
	C271.011261,380.673950 270.857300,383.367340 275.361786,382.420197 
z"/>
<path fill="#000000" opacity="1.000000" stroke="none" 
	d="
M294.367310,381.089355 
	C294.277893,383.782654 294.845093,386.535797 291.199768,386.395416 
	C287.889679,386.267914 283.909698,387.525269 282.492462,382.823029 
	C281.712463,380.234985 281.881409,377.575623 282.325104,374.947540 
	C282.492340,373.957123 282.898529,372.984314 284.157562,372.983673 
	C285.657776,372.982910 286.098999,374.036621 286.179749,375.284119 
	C286.254395,376.437866 286.182312,377.600433 286.231689,378.756683 
	C286.301117,380.381683 286.029602,382.418823 288.361542,382.556000 
	C290.804504,382.699707 290.603729,380.649994 290.691132,379.017029 
	C290.753021,377.860840 290.709686,376.698334 290.790649,375.544067 
	C290.872589,374.376160 290.990448,373.084686 292.539673,373.003632 
	C294.398865,372.906311 294.636902,374.329468 294.637299,375.699890 
	C294.637756,377.350952 294.466644,379.002045 294.367310,381.089355 
z"/>
<path fill="#000000" opacity="1.000000" stroke="none" 
	d="
M189.937592,375.542358 
	C191.776154,370.489166 195.612320,372.772980 198.547897,372.847473 
	C201.297485,372.917175 202.407959,375.318939 202.233139,377.860260 
	C202.044464,380.603271 203.500275,383.757477 200.720078,386.108246 
	C197.698257,384.912933 198.940277,382.412933 198.689926,380.487457 
	C198.457047,378.696411 198.812088,376.449707 196.169724,376.486572 
	C193.772186,376.519989 194.167496,378.659851 194.036713,380.251160 
	C193.982513,380.910461 194.072433,381.585938 193.977936,382.236786 
	C193.756714,383.760437 194.312439,386.012512 191.816132,385.908569 
	C189.832550,385.825958 189.940903,383.881683 189.886612,382.433105 
	C189.806030,380.283020 189.880554,378.127167 189.937592,375.542358 
z"/>
<path fill="#000000" opacity="1.000000" stroke="none" 
	d="
M223.805893,381.166626 
	C223.672668,378.958923 224.043335,376.592133 221.494980,376.493042 
	C218.644440,376.382202 219.538055,378.940613 219.258301,380.593781 
	C218.936798,382.493469 220.103210,385.001190 216.772812,386.185852 
	C214.866791,382.110138 215.398804,377.985992 216.038361,374.068512 
	C216.403748,371.830383 224.394836,371.855103 226.446609,373.943756 
	C228.100327,375.627258 228.840439,383.062988 227.579681,384.988922 
	C227.065018,385.775116 226.351425,386.241638 225.508530,385.896149 
	C223.519409,385.080872 223.977966,383.187958 223.805893,381.166626 
z"/>
<path fill="#000000" opacity="1.000000" stroke="none" 
	d="
M176.788239,214.473740 
	C177.451263,216.196884 176.848282,217.224075 175.446198,217.169846 
	C171.710678,217.025345 169.854019,218.492325 170.191498,222.388992 
	C170.265396,223.242249 169.766953,223.990723 168.797729,224.152054 
	C167.855591,224.308823 166.886368,223.830902 166.971313,222.985870 
	C167.431000,218.413544 164.953110,216.921005 160.924683,216.726852 
	C160.569534,216.709732 160.258850,215.770462 160.050217,215.448730 
	C160.459961,213.864594 161.530823,213.697723 162.482941,213.742966 
	C165.772598,213.899292 166.877029,212.259232 166.713654,209.180710 
	C166.639648,207.786438 166.410858,205.826584 168.576721,205.813004 
	C170.415710,205.801483 170.463226,207.574951 170.273422,208.816559 
	C169.466522,214.095047 173.557373,213.458847 176.788239,214.473740 
z"/>
<path fill="#000000" opacity="1.000000" stroke="none" 
	d="
M332.338715,218.634796 
	C330.639130,216.327728 327.381378,218.440094 326.181763,215.917191 
	C326.052948,214.753998 326.600128,213.967438 327.459595,213.983200 
	C331.471313,214.056793 333.194977,212.240616 332.761841,208.222809 
	C332.631989,207.018250 333.099426,205.828583 334.625702,205.812637 
	C335.561951,205.802811 336.336487,206.527725 336.164246,207.402405 
	C335.088776,212.864319 338.736969,213.993530 342.651581,214.363846 
	C343.172241,216.026886 342.578552,216.992310 341.503235,217.019073 
	C337.947296,217.107574 335.797668,218.315414 336.161560,222.326767 
	C336.259399,223.405243 335.544098,224.227844 334.303253,224.131866 
	C333.331482,224.056717 332.900024,223.347107 332.802979,222.448349 
	C332.678436,221.294601 332.602936,220.135529 332.338715,218.634796 
z"/>
<path fill="#000000" opacity="1.000000" stroke="none" 
	d="
M312.180695,372.323761 
	C313.958557,372.412231 315.706970,371.911926 315.935730,374.118134 
	C314.928528,376.195648 312.347382,374.695221 310.946838,376.622894 
	C313.137726,379.074982 320.113983,378.885101 316.868591,384.476318 
	C314.910706,387.849396 311.041595,386.735199 307.600891,385.365479 
	C308.858337,382.681946 311.769257,384.572693 313.061401,382.354309 
	C311.603699,379.683075 305.739227,380.681854 306.841858,375.692871 
	C307.421783,373.069000 309.550171,372.594788 312.180695,372.323761 
z"/>
<path fill="#000000" opacity="1.000000" stroke="none" 
	d="
M204.056854,373.194885 
	C204.433914,370.447662 203.131760,366.534485 206.167999,366.493347 
	C209.609787,366.446777 208.040619,370.331665 208.156509,372.535278 
	C208.347977,376.175812 208.187836,379.837830 208.093597,383.488678 
	C208.062988,384.674683 207.732422,385.896210 206.215210,385.953735 
	C204.681335,386.011932 204.226974,384.791687 204.182114,383.619934 
	C204.055191,380.304260 204.088913,376.982422 204.056854,373.194885 
z"/>
<path fill="#000000" opacity="1.000000" stroke="none" 
	d="
M125.116341,166.219589 
	C125.325264,169.364380 128.758194,168.696320 129.939758,171.098770 
	C126.432358,172.049530 125.056923,174.857132 124.105652,177.791306 
	C121.359993,177.293549 121.966675,175.200928 121.509583,173.767410 
	C120.914444,171.900940 118.308434,172.886826 117.564240,170.732864 
	C119.455589,169.439896 121.862679,168.767548 122.140739,165.699387 
	C122.294685,164.000793 124.081543,164.488113 125.116341,166.219589 
z"/>
<path fill="#000000" opacity="1.000000" stroke="none" 
	d="
M377.497498,167.646729 
	C377.903992,166.189285 378.068329,164.844345 379.550934,164.782516 
	C380.760956,164.732071 381.311584,165.765244 381.258850,166.819229 
	C381.108887,169.814850 384.577515,169.096161 385.768097,171.413925 
	C382.107422,171.988495 381.298126,175.043869 379.989594,178.388153 
	C377.442261,175.697311 377.361481,171.524597 373.444794,171.243332 
	C374.034210,168.781052 376.488556,169.434647 377.497498,167.646729 
z"/>
<path fill="#000000" opacity="1.000000" stroke="none" 
	d="
M300.318756,381.996765 
	C300.111023,383.834564 300.450684,385.535187 298.396301,385.917694 
	C296.642151,383.593628 295.654144,374.667236 297.398041,373.627533 
	C300.044525,372.049774 303.084290,371.734619 306.484619,373.949463 
	C303.602142,376.162140 298.852142,376.631378 300.318756,381.996765 
z"/>
<path fill="#000000" opacity="1.000000" stroke="none" 
	d="
M127.099213,194.688751 
	C129.472794,196.211395 129.573944,199.831680 133.695007,199.764816 
	C129.864960,200.888290 128.951965,203.688980 127.836037,206.630844 
	C125.368935,204.567627 125.820503,200.355911 121.573219,200.491135 
	C123.917763,198.801529 126.086769,197.431671 127.099213,194.688751 
z"/>
<path fill="#000000" opacity="1.000000" stroke="none" 
	d="
M380.294098,199.083801 
	C379.929352,202.273865 376.173798,203.060760 376.008118,206.966064 
	C373.658813,204.381287 373.800018,200.771072 369.433838,200.648285 
	C371.994171,198.465668 374.516052,197.418228 374.981659,194.606110 
	C377.849487,195.054016 376.911133,199.304047 380.294098,199.083801 
z"/>
<path fill="#000000" opacity="1.000000" stroke="none" 
	d="
M210.013580,384.507965 
	C209.876419,381.109955 209.825500,378.145752 209.878586,375.183411 
	C209.897003,374.156067 210.345154,373.165344 211.501633,373.002747 
	C212.946457,372.799622 213.746445,373.843323 213.793457,375.031769 
	C213.916656,378.145569 214.130859,381.320526 213.661041,384.371368 
	C213.318924,386.592957 211.650406,386.718781 210.013580,384.507965 
z"/>
<path fill="#000000" opacity="1.000000" stroke="none" 
	d="
M171.859894,178.744614 
	C170.690002,180.091797 169.794907,181.232498 168.673782,182.661285 
	C167.043243,180.797958 165.585342,179.131943 164.045868,177.372681 
	C165.661148,175.962723 167.245956,174.579376 168.951981,173.090210 
	C169.027008,175.210205 173.627274,174.928421 171.859894,178.744614 
z"/>
<path fill="#000000" opacity="1.000000" stroke="none" 
	d="
M332.139679,175.365677 
	C332.969391,174.372391 333.541321,173.587402 334.226288,172.647263 
	C335.808380,174.388443 337.199585,175.919556 338.759247,177.636063 
	C337.521790,179.088226 336.085144,180.774155 334.648468,182.460098 
	C335.053284,179.538071 327.410431,179.908432 332.139679,175.365677 
z"/>
<path fill="#000000" opacity="1.000000" stroke="none" 
	d="
M302.157043,125.864403 
	C303.960968,125.940948 305.978729,125.802956 306.652740,127.989197 
	C307.290833,130.059021 307.268829,132.221802 306.083069,134.152802 
	C305.496460,135.108078 304.421173,135.283234 303.488251,134.794067 
	C301.475769,133.738892 302.041290,131.711838 301.902802,129.982315 
	C301.824585,129.005569 301.864349,128.019363 301.927704,126.524765 
	C302.004395,126.012131 302.157043,125.864403 302.157043,125.864403 
z"/>
<path fill="#000000" opacity="1.000000" stroke="none" 
	d="
M306.987152,116.122482 
	C306.802704,118.277161 307.432098,120.403931 304.985199,121.077705 
	C303.926605,121.369202 302.886902,120.971024 302.487915,119.950005 
	C301.681793,117.886902 301.145020,115.341049 302.700989,113.795746 
	C304.849518,111.661888 306.570648,112.717255 306.987152,116.122482 
z"/>
<path fill="#000000" opacity="1.000000" stroke="none" 
	d="
M164.829819,279.026062 
	C163.418289,274.842560 166.728088,273.554077 169.038803,272.388367 
	C170.696548,271.552032 172.395706,273.701599 171.371078,275.291656 
	C170.033081,277.367981 168.766159,280.525909 164.829819,279.026062 
z"/>
<path fill="#000000" opacity="1.000000" stroke="none" 
	d="
M178.861816,268.033386 
	C177.273010,269.584839 175.732132,271.224274 174.192596,268.852997 
	C172.624725,266.438080 175.278046,265.418610 176.464691,264.038239 
	C177.569565,262.752960 179.019440,261.457062 180.608017,263.294373 
	C182.455872,265.431519 180.104645,266.447815 178.861816,268.033386 
z"/>
<path fill="#000000" opacity="1.000000" stroke="none" 
	d="
M174.249237,276.008423 
	C173.066345,273.970154 173.887756,272.605988 175.519852,272.329681 
	C178.067871,271.898376 178.995605,274.444855 180.517197,275.830048 
	C181.484451,276.710602 181.794861,278.012787 180.685349,278.875061 
	C177.198898,281.584686 176.449203,277.381744 174.249237,276.008423 
z"/>
<path fill="#000000" opacity="1.000000" stroke="none" 
	d="
M164.886826,263.205994 
	C168.795273,262.012115 170.228989,264.970093 171.409988,267.204834 
	C172.283783,268.858307 170.498489,270.784210 168.696960,269.685516 
	C166.594910,268.403503 163.301498,267.219666 164.886826,263.205994 
z"/>
<path fill="#000000" opacity="1.000000" stroke="none" 
	d="
M301.930084,126.088028 
	C299.740631,126.126823 297.620270,126.167007 295.512299,126.024055 
	C294.216431,125.936172 293.470367,125.052292 293.435974,123.733391 
	C293.397156,122.245628 294.433167,121.611748 295.657867,121.776222 
	C298.170044,122.113586 302.035217,119.945511 302.186951,125.445511 
	C302.157043,125.864403 302.004395,126.012131 301.930084,126.088028 
z"/>
<path fill="#000000" opacity="1.000000" stroke="none" 
	d="
M308.384460,121.944504 
	C309.626617,121.763397 310.468048,121.603302 311.279297,121.699112 
	C312.915192,121.892342 315.644379,121.028572 315.269196,123.909821 
	C314.825043,127.320663 311.692200,126.188667 309.630798,126.057625 
	C307.014191,125.891273 306.113007,124.416916 308.384460,121.944504 
z"/>
<path fill="#000000" opacity="1.000000" stroke="none" 
	d="
M360.930115,218.045471 
	C356.499207,214.232452 363.504974,214.813309 361.447968,211.967300 
	C364.506042,213.065018 365.348297,214.688278 367.102173,216.671082 
	C364.332397,216.021698 365.618500,223.942047 360.930115,218.045471 
z"/>
<path fill="#000000" opacity="1.000000" stroke="none" 
	d="
M141.139206,219.707092 
	C137.965729,220.641617 138.628403,216.995010 136.187408,216.655350 
	C137.598740,214.999283 138.634415,213.784012 139.700470,212.533081 
	C141.892471,212.739227 141.743958,215.456299 144.137573,215.531036 
	C142.929047,217.195068 142.114639,218.316422 141.139206,219.707092 
z"/>
<path fill="#000000" opacity="1.000000" stroke="none" 
	d="
M284.156647,91.418098 
	C286.536652,89.993484 288.440979,88.082039 291.754578,88.302910 
	C290.349640,91.837471 287.482178,92.492554 284.857819,93.281525 
	C283.958527,93.551888 283.541016,92.609993 284.156647,91.418098 
z"/>
<path fill="#000000" opacity="1.000000" stroke="none" 
	d="
M277.173706,83.165848 
	C278.799500,81.407166 279.454071,79.114708 282.233643,78.448853 
	C282.351685,81.957817 280.254852,84.282372 277.990326,85.550713 
	C275.969666,86.682480 276.355316,84.691414 277.173706,83.165848 
z"/>
<path fill="#000000" opacity="1.000000" stroke="none" 
	d="
M255.994446,84.924042 
	C254.484009,82.885818 252.496155,81.481880 252.368759,78.477753 
	C255.984238,79.283974 257.349213,82.054932 258.243927,84.535370 
	C258.946198,86.482323 257.262299,85.894905 255.994446,84.924042 
z"/>
<path fill="#000000" opacity="1.000000" stroke="none" 
	d="
M248.183411,91.356003 
	C246.330338,90.179085 244.243347,89.796310 243.087433,87.340942 
	C246.960800,86.976463 249.345703,88.558868 251.380325,91.019371 
	C250.451324,92.987434 249.431808,91.907776 248.183411,91.356003 
z"/>
<path fill="#000000" opacity="1.000000" stroke="none" 
	d="
M241.893982,98.787163 
	C243.617874,99.150352 245.338867,98.791306 245.853516,101.102531 
	C242.949966,101.475601 240.228851,101.902725 237.241974,99.922798 
	C238.662872,98.444839 240.142609,98.815773 241.893982,98.787163 
z"/>
<path fill="#000000" opacity="1.000000" stroke="none" 
	d="
M268.067078,76.948212 
	C268.067444,79.626358 269.005035,82.119057 267.198975,84.491043 
	C264.843872,79.822556 265.156982,77.344032 268.067078,76.948212 
z"/>
</svg>