<?xml version="1.0" encoding="UTF-8"?>
<svg version="1.1" xmlns="http://www.w3.org/2000/svg" width="500" height="500">
<path d="M0 0 C165 0 330 0 500 0 C500 165 500 330 500 500 C335 500 170 500 0 500 C0 335 0 170 0 0 Z " fill="#FAFBF9" transform="translate(0,0)"/>
<path d="M0 0 C0 3.96 0 7.92 0 12 C0.66 12 1.32 12 2 12 C2 34.77 2 57.54 2 81 C38.63 81 75.26 81 113 81 C113 59.22 113 37.44 113 15 C109.04 15 105.08 15 101 15 C101 10.05 101 5.1 101 0 C104.20975922 -0.1354964 107.41375629 -0.23434038 110.625 -0.3125 C111.98044922 -0.3753418 111.98044922 -0.3753418 113.36328125 -0.43945312 C117.85913464 -0.52149425 121.00442325 -0.52013202 124.5859375 2.39453125 C128.37871065 6.48802589 128.13883848 9.40652668 128.11352539 14.75439453 C128.11367142 15.55447937 128.11381744 16.35456421 128.1139679 17.17889404 C128.1132698 19.83022753 128.10548221 22.48149125 128.09765625 25.1328125 C128.0957917 26.96841392 128.09436797 28.80401583 128.09336853 30.63961792 C128.08954623 35.47623055 128.07971839 40.31281327 128.06866455 45.14941406 C128.05844426 50.08267817 128.05386958 55.01594711 128.04882812 59.94921875 C128.03809588 69.63282778 128.02050139 79.31640672 128 89 C133.61 89 139.22 89 145 89 C145.41966912 102.84908088 145.41966912 102.84908088 142 107 C136.40782381 111.2262184 129.80015317 110.33441364 123.125 110.1875 C121.37703125 110.16719727 121.37703125 110.16719727 119.59375 110.14648438 C116.72868882 110.11125821 113.86458623 110.06199715 111 110 C111.33 111.65 111.66 113.3 112 115 C114.97030932 115.99010311 117.0442403 116.15141991 120.1484375 116.2109375 C121.15390625 116.23929687 122.159375 116.26765625 123.1953125 116.296875 C125.30711828 116.34876212 127.41912391 116.39309126 129.53125 116.4296875 C139.23105828 116.72737983 139.23105828 116.72737983 143 120 C145.68773977 124.03160965 145.67415933 127.26423878 145 132 C142.63438725 136.11791848 140.442541 137.57533749 136 139 C132.92559624 139.25333309 132.92559624 139.25333309 129.42062378 139.25828552 C128.77326708 139.26196123 128.12591038 139.26563693 127.45893681 139.26942402 C125.29790158 139.27937444 123.13712515 139.27525928 120.97607422 139.27124023 C119.42357104 139.27562884 117.87107021 139.28093149 116.318573 139.28707886 C112.97973059 139.29856692 109.64095154 139.30403737 106.30208969 139.30496025 C101.02483092 139.30690163 95.74770331 139.32495697 90.4704895 139.34571838 C77.3661458 139.39489102 64.26176663 139.42582247 51.15734863 139.44702148 C40.96687657 139.46352922 30.77651719 139.48628901 20.58612072 139.53004223 C15.33750916 139.55185894 10.08911148 139.5598728 4.84045768 139.55764949 C1.58000291 139.55931259 -1.68031133 139.57333791 -4.94071579 139.59086227 C-6.45525341 139.59647571 -7.96982 139.59693425 -9.48435974 139.59192467 C-11.54809375 139.58581278 -13.61093496 139.59795955 -15.67459106 139.61473083 C-16.83047792 139.61674216 -17.98636478 139.61875349 -19.17727852 139.62082577 C-21.99388062 139.7756538 -21.99388062 139.7756538 -23.87580681 141.33657932 C-25.61489515 143.90983411 -25.31462559 145.97959434 -25 149 C-24.34 149.99 -23.68 150.98 -23 152 C-20.76646715 152.46272042 -20.76646715 152.46272042 -18.12789917 152.39872742 C-17.09862305 152.41126556 -16.06934692 152.42380371 -15.00888062 152.4367218 C-13.87528107 152.43528671 -12.74168152 152.43385162 -11.57373047 152.43237305 C-10.38350281 152.4425647 -9.19327515 152.45275635 -7.96697998 152.46325684 C-4.69854457 152.48832181 -1.43037894 152.50012175 1.83813715 152.50611091 C5.25217785 152.51547445 8.66608755 152.54167606 12.08004761 152.56611633 C18.54691074 152.60984093 25.01374854 152.63835114 31.48071468 152.66143972 C38.84224384 152.68845958 46.2036416 152.73237295 53.56507707 152.77772844 C68.70998062 152.87065997 83.85491818 152.9423016 99 153 C99.12375 152.38125 99.2475 151.7625 99.375 151.125 C100 149 100 149 102 147 C104.74485593 146.85492305 107.38480543 146.81347577 110.125 146.875 C110.87910156 146.88402344 111.63320313 146.89304687 112.41015625 146.90234375 C114.27357254 146.9259313 116.13682593 146.96180281 118 147 C118 147.99 118 148.98 118 150 C120.31 150 122.62 150 125 150 C125.33 151.32 125.66 152.64 126 154 C123.03 154 120.06 154 117 154 C117 154.99 117 155.98 117 157 C119.97 157 122.94 157 126 157 C125.67 158.32 125.34 159.64 125 161 C122.69 161 120.38 161 118 161 C118 161.99 118 162.98 118 164 C115.5821288 164.10826289 113.16912444 164.18739789 110.75 164.25 C110.06808594 164.28351563 109.38617188 164.31703125 108.68359375 164.3515625 C105.21092404 164.41899298 103.34722472 164.25550499 100.515625 162.171875 C99 160 99 160 99 157 C98.37585362 157.00368717 97.75170725 157.00737434 97.10864735 157.01117325 C81.91866441 157.09952777 66.72876035 157.16571117 51.53858662 157.20724869 C44.19270408 157.2278701 36.84699311 157.25598239 29.5012207 157.30175781 C23.0983003 157.34163879 16.69550416 157.36743589 10.292463 157.37635398 C6.90233647 157.3815667 3.51256542 157.39380894 0.12255287 157.42292023 C-3.66289875 157.4518868 -7.44760998 157.45595864 -11.2331543 157.45410156 C-12.35596802 157.46848267 -13.47878174 157.48286377 -14.63562012 157.49768066 C-22.23779981 157.45722994 -22.23779981 157.45722994 -26.17292786 155.09661865 C-28.7800587 152.10485985 -29.26320533 150.15711211 -29.5 146.25 C-29.5721875 145.40953125 -29.644375 144.5690625 -29.71875 143.703125 C-28.76634237 140.12124412 -27.32196499 138.61349199 -24.47959137 136.28819656 C-19.04245531 133.46349727 -12.554433 134.21289056 -6.56542969 134.29052734 C-4.9929252 134.28890427 -3.42042153 134.2845865 -1.84793091 134.27778625 C1.52824517 134.26878829 4.90366272 134.27844704 8.27976227 134.30268478 C13.61609591 134.34058445 18.95184636 134.33491586 24.28826904 134.32315063 C34.64599521 134.30632402 45.00336838 134.33438889 55.36103821 134.36656952 C68.55974765 134.40508559 81.75840102 134.4211984 94.95715404 134.40136492 C100.26447372 134.39482379 105.57121118 134.40916501 110.87844133 134.43981528 C114.17383469 134.45514057 117.46908094 134.45424516 120.76449966 134.44907188 C122.29519611 134.45013595 123.82590533 134.45812205 125.35652542 134.4734478 C127.4421887 134.49345097 129.52642184 134.48907699 131.61212158 134.47860718 C132.78015949 134.48271292 133.9481974 134.48681866 135.1516304 134.49104881 C138.09402106 134.26422548 138.09402106 134.26422548 139.8836174 132.1302433 C141.2465937 129.52945828 141.29763632 127.90195408 141 125 C140.67 124.01 140.34 123.02 140 122 C136.94442405 120.98147468 134.83121888 120.87551498 131.6328125 120.859375 C130.05693359 120.83037109 130.05693359 120.83037109 128.44921875 120.80078125 C126.24106781 120.76704921 124.03262577 120.74870725 121.82421875 120.74609375 C113.80010474 120.55948645 113.80010474 120.55948645 109.8046875 117.765625 C107.99902547 114.99850656 107.53226092 113.19893513 107 110 C106.34585302 110.00368717 105.69170605 110.00737434 105.01773643 110.01117325 C89.09302072 110.09955187 73.16839043 110.16572291 57.24349022 110.20724869 C49.54228273 110.22786458 41.84123906 110.25596638 34.14013672 110.30175781 C27.42700643 110.34165561 20.71399479 110.3674399 14.00074923 110.37635398 C10.44683621 110.38156382 6.89326259 110.39378797 3.33945847 110.42292023 C-0.6300411 110.4551955 -4.59921012 110.45595751 -8.56884766 110.45410156 C-9.74417053 110.46848267 -10.91949341 110.48286377 -12.13043213 110.49768066 C-18.37557456 110.46603856 -22.31380172 110.30912684 -27 106 C-30.40048255 100.89927617 -29.11020139 95.00597567 -29 89 C-23.72 89 -18.44 89 -13 89 C-13.02618408 86.54739746 -13.05236816 84.09479492 -13.0793457 81.56787109 C-13.16225585 73.45750959 -13.21744806 65.3471292 -13.25906086 57.23645592 C-13.28513615 52.31968107 -13.32049643 47.40334102 -13.37719727 42.48681641 C-13.43159082 37.74056358 -13.4614361 32.99472852 -13.47438622 28.24818802 C-13.48361293 26.43887379 -13.50163093 24.62958201 -13.52865028 22.82044601 C-13.5650393 20.28262988 -13.5699414 17.74653184 -13.56762695 15.20849609 C-13.58560333 14.46330719 -13.60357971 13.71811829 -13.62210083 12.9503479 C-13.56547769 7.19843209 -11.94237356 4.88139357 -8 1 C-6 0 -6 0 0 0 Z " fill="#38487C" transform="translate(192,148)"/>
<path d="M0 0 C5.74513623 2.6623802 8.56460782 6.11749689 11.39453125 11.77734375 C12.64453125 15.27734375 12.64453125 15.27734375 12.64453125 20.27734375 C15.94453125 20.27734375 19.24453125 20.27734375 22.64453125 20.27734375 C22.64453125 20.93734375 22.64453125 21.59734375 22.64453125 22.27734375 C19.34453125 22.27734375 16.04453125 22.27734375 12.64453125 22.27734375 C12.08765625 24.28828125 12.08765625 24.28828125 11.51953125 26.33984375 C10.09369433 30.69239856 8.11243209 33.33950489 5.0078125 36.63671875 C3.08397726 38.95193595 2.35005857 41.38468175 1.64453125 44.27734375 C4.61453125 44.27734375 7.58453125 44.27734375 10.64453125 44.27734375 C10.64453125 67.37734375 10.64453125 90.47734375 10.64453125 114.27734375 C-0.90546875 114.27734375 -12.45546875 114.27734375 -24.35546875 114.27734375 C-24.85046875 115.76234375 -24.85046875 115.76234375 -25.35546875 117.27734375 C-28.2608878 118.24581677 -30.32184329 118.47317187 -33.35546875 118.52734375 C-34.22171875 118.553125 -35.08796875 118.57890625 -35.98046875 118.60546875 C-38.35546875 118.27734375 -38.35546875 118.27734375 -41.35546875 115.27734375 C-52.57546875 114.94734375 -63.79546875 114.61734375 -75.35546875 114.27734375 C-75.35546875 91.17734375 -75.35546875 68.07734375 -75.35546875 44.27734375 C-71.39546875 44.27734375 -67.43546875 44.27734375 -63.35546875 44.27734375 C-63.35546875 38.00734375 -63.35546875 31.73734375 -63.35546875 25.27734375 C-53.52775771 25.27734375 -47.4118465 25.36128488 -40.15234375 32.2578125 C-37.41609666 35.33311629 -35.30791381 38.66344305 -33.35546875 42.27734375 C-32.15921875 41.80296875 -30.96296875 41.32859375 -29.73046875 40.83984375 C-26.29132637 39.54251602 -23.01651271 38.73497424 -19.35546875 38.27734375 C-19.95294922 37.53291016 -19.95294922 37.53291016 -20.5625 36.7734375 C-25.21788248 30.80412711 -29.06733136 25.25007157 -28.69921875 17.3203125 C-27.60865464 10.83889173 -24.12119003 6.55945334 -19.13671875 2.50390625 C-13.2758134 -1.53189261 -6.84352333 -2.09958842 0 0 Z " fill="#2E4077" transform="translate(273.35546875,87.72265625)"/>
<path d="M0 0 C0.495 1.98 0.495 1.98 1 4 C1.55461914 3.97381592 2.10923828 3.94763184 2.68066406 3.9206543 C5.20348569 3.81645997 7.72585489 3.75161109 10.25 3.6875 C11.12269531 3.64560547 11.99539063 3.60371094 12.89453125 3.56054688 C13.73886719 3.54443359 14.58320313 3.52832031 15.453125 3.51171875 C16.22817383 3.48553467 17.00322266 3.45935059 17.80175781 3.43237305 C21.19923152 4.30966385 22.13604029 6.08331397 24 9 C24.36712621 11.77691309 24.50855855 14.14366497 24.45410156 16.91137695 C24.4545837 17.70495448 24.45506584 18.49853201 24.45556259 19.31615734 C24.45258719 21.87399511 24.42217645 24.43065327 24.390625 26.98828125 C24.38474064 28.57173095 24.38066191 30.15518842 24.37841797 31.73864746 C24.35748366 37.5967173 24.30163845 43.45462035 24.25 49.3125 C24.1675 62.409375 24.085 75.50625 24 89 C-20.55 89 -65.1 89 -111 89 C-111.0825 75.903125 -111.165 62.80625 -111.25 49.3125 C-111.28641602 45.18145752 -111.32283203 41.05041504 -111.36035156 36.79418945 C-111.37841797 31.73864746 -111.37841797 31.73864746 -111.3817749 29.36979675 C-111.38790592 27.71997256 -111.40195107 26.07016599 -111.42230225 24.42045593 C-111.45163269 21.91711428 -111.45562256 19.41486499 -111.45410156 16.91137695 C-111.468494 16.1798985 -111.48288643 15.44842005 -111.497715 14.69477558 C-111.46867087 11.11770155 -111.06146798 9.10018479 -109.17474365 6.02507019 C-107 4 -107 4 -103.75 3.6875 C-102.8425 3.790625 -101.935 3.89375 -101 4 C-101 6.64 -101 9.28 -101 12 C-100.34 12 -99.68 12 -99 12 C-99 34.77 -99 57.54 -99 81 C-62.37 81 -25.74 81 12 81 C12 59.22 12 37.44 12 15 C8.04 15 4.08 15 0 15 C0 10.05 0 5.1 0 0 Z " fill="#D1E2F9" transform="translate(293,148)"/>
<path d="M0 0 C55.44 0 110.88 0 168 0 C168 8.3 168 8.3 166 11 C162.56056447 13.23125729 159.63506539 13.25777173 155.59230042 13.27415466 C153.61335785 13.28911736 153.61335785 13.28911736 151.59443665 13.30438232 C150.13400281 13.30527809 148.67356881 13.30594168 147.21313477 13.30639648 C145.6738749 13.3140186 144.13461884 13.32244619 142.59536743 13.33161926 C138.41564246 13.35356333 134.23599064 13.36236278 130.05621457 13.36744571 C127.44500374 13.37108873 124.83381209 13.37732844 122.22260857 13.3844471 C113.11348503 13.40893918 104.00441845 13.42199342 94.89526367 13.42553711 C86.40296597 13.42917444 77.91102923 13.45908438 69.4188419 13.50094169 C62.12786034 13.53561921 54.83699858 13.55108509 47.54593509 13.55178314 C43.19118876 13.55257669 38.83681028 13.56135099 34.48214912 13.58978081 C30.38702032 13.61591897 26.29256552 13.61819096 22.19739151 13.60212517 C20.69495743 13.60030738 19.19248496 13.6070313 17.69013405 13.62294388 C15.63751735 13.64335861 13.58726943 13.63288515 11.53468323 13.61473083 C10.38671548 13.61674216 9.23874773 13.61875349 8.05599308 13.62082577 C3.89191569 12.77489239 2.44137315 11.45686624 0 8 C0 5.36 0 2.72 0 0 Z " fill="#FCD06C" transform="translate(166,241)"/>
<path d="M0 0 C0.88300781 0.02707031 1.76601562 0.05414063 2.67578125 0.08203125 C3.67158203 0.13423828 3.67158203 0.13423828 4.6875 0.1875 C4.6875 2.1675 4.6875 4.1475 4.6875 6.1875 C9.9675 6.5175 15.2475 6.8475 20.6875 7.1875 C20.6875 8.8375 20.6875 10.4875 20.6875 12.1875 C21.3475 12.1875 22.0075 12.1875 22.6875 12.1875 C24.44812164 15.51311865 24.79534228 16.77923995 23.8125 20.5 C23.44125 21.386875 23.07 22.27375 22.6875 23.1875 C25.96523504 22.43599977 25.96523504 22.43599977 27.6875 19.1875 C27.6875 34.3675 27.6875 49.5475 27.6875 65.1875 C16.5625 65.1875 16.5625 65.1875 11.625 63.1875 C3.41285282 60.21849294 -2.01559951 60.77045888 -10.3125 63.1875 C-10.42831206 55.41643172 -10.5171728 47.64556525 -10.57156086 39.87385082 C-10.59766394 36.26511867 -10.63307222 32.65697652 -10.68969727 29.04858398 C-10.74399587 25.56668104 -10.77391518 22.08534576 -10.78688622 18.60305214 C-10.80063178 16.62695702 -10.83966925 14.65109059 -10.87898254 12.67533875 C-10.8793602 11.47432022 -10.87973785 10.2733017 -10.88012695 9.03588867 C-10.89678154 7.44704109 -10.89678154 7.44704109 -10.91377258 5.82609558 C-10.3125 3.1875 -10.3125 3.1875 -7.94425964 1.34028625 C-5.04776325 0.0715377 -3.14102939 -0.12564118 0 0 Z " fill="#D2E3FA" transform="translate(252.3125,130.8125)"/>
<path d="M0 0 C10.83333333 0 10.83333333 0 15.6328125 4.546875 C18.78391952 8.12551916 21.42539358 11.99505669 24 16 C24.33 16.33 24.66 16.66 25 17 C25.09376053 18.81055025 25.1174411 20.62477201 25.11352539 22.43774414 C25.11344986 23.59887222 25.11337433 24.76000031 25.11329651 25.95631409 C25.10813522 27.219832 25.10297394 28.48334991 25.09765625 29.78515625 C25.0962413 31.07111191 25.09482635 32.35706757 25.09336853 33.68199158 C25.08954418 37.10643443 25.07971462 40.53083509 25.06866455 43.95526123 C25.05844864 47.44738189 25.05387053 50.93950934 25.04882812 54.43164062 C25.03809227 61.28777778 25.02101684 68.14388687 25 75 C22.84639957 72.33062131 20.75479416 69.65943633 18.75 66.875 C13.55539454 61.44427611 7.21710384 60.80427596 0 59 C0 39.53 0 20.06 0 0 Z " fill="#FAB923" transform="translate(214,117)"/>
<path d="M0 0 C4.95 0 9.9 0 15 0 C15 24.42 15 48.84 15 74 C-24.27 74 -63.54 74 -104 74 C-104 49.91 -104 25.82 -104 1 C-102.68 1 -101.36 1 -100 1 C-100 23.77 -100 46.54 -100 70 C-63.37 70 -26.74 70 11 70 C11 48.22 11 26.44 11 4 C7.37 4 3.74 4 0 4 C0 2.68 0 1.36 0 0 Z " fill="#3B4D84" transform="translate(294,159)"/>
<path d="M0 0 C8.1482934 7.55207681 8.1482934 7.55207681 8.80078125 13.57421875 C9.03523666 21.43464482 7.24841334 26.43328538 1.9375 32.25 C-1.21276712 36.39508831 -1.7650949 40.29683609 -2.4375 45.375 C-3.4275 45.375 -4.4175 45.375 -5.4375 45.375 C-4.68734418 37.99846781 -3.60308465 30.69668224 -2.4375 23.375 C-5.44009517 23.04281808 -5.44009517 23.04281808 -7.125 24.875 C-7.558125 25.37 -7.99125 25.865 -8.4375 26.375 C-11.4375 25.375 -11.4375 25.375 -13.4375 23.375 C-14.4275 24.035 -15.4175 24.695 -16.4375 25.375 C-16.12589539 27.58345985 -15.81317654 29.79176251 -15.5 32 C-15.32597656 33.22976562 -15.15195312 34.45953125 -14.97265625 35.7265625 C-14.49975699 38.95056184 -13.98598998 42.16312176 -13.4375 45.375 C-14.7575 45.375 -16.0775 45.375 -17.4375 45.375 C-17.51484375 44.48361328 -17.51484375 44.48361328 -17.59375 43.57421875 C-18.55339141 36.56229345 -21.24840909 32.29311278 -25.66015625 26.8203125 C-28.82928007 22.46015533 -29.11956121 17.66817923 -28.4375 12.375 C-26.53530555 6.47276237 -23.45704511 2.89936146 -18.4375 -0.625 C-12.44789198 -2.62153601 -5.71602945 -2.70212301 0 0 Z " fill="#F9B925" transform="translate(275.4375,90.625)"/>
<path d="M0 0 C2.97 0 5.94 0 9 0 C9 14.85 9 29.7 9 45 C12.3 45 15.6 45 19 45 C25.39902176 46.66931003 28.2861809 48.54532819 32 54 C32 54.66 32 55.32 32 56 C31.34515625 56.02578125 30.6903125 56.0515625 30.015625 56.078125 C23.54300306 56.48037834 18.14284084 57.7618438 12.1171875 60.16015625 C9 61 9 61 0 61 C0 40.87 0 20.74 0 0 Z " fill="#D2E3FA" transform="translate(201,135)"/>
<path d="M0 0 C4.26612302 2.30385178 7.31497869 4.97246803 10 9 C10.30078125 11.7421875 10.30078125 11.7421875 10.3125 14.875 C10.32925781 15.90367187 10.34601563 16.93234375 10.36328125 17.9921875 C9.75516264 23.02714804 6.98113114 26.90305436 3.00390625 30.04296875 C-1.4220838 32.15674567 -6.2673386 31.81687032 -11 31 C-14.96952718 29.06846762 -17.3830856 26.07090395 -19 22 C-19.70034278 16.84844012 -20.23187179 11.39175107 -17.796875 6.6640625 C-12.95027497 0.86282913 -7.52569408 -1.44109036 0 0 Z " fill="#08285F" transform="translate(288,321)"/>
<path d="M0 0 C17.32775241 -0.74885845 17.32775241 -0.74885845 23 4 C26.78889339 8.09561333 26.49272569 11.71593858 26.35546875 17.08203125 C25.7562834 22.0006187 23.55543538 24.63310224 19.9375 27.8125 C15.94608048 30.2588539 12.45358116 30.1344016 7.875 30.125 C5.98394531 30.12886719 5.98394531 30.12886719 4.0546875 30.1328125 C1 30 1 30 0 29 C-0.08775605 26.85441173 -0.10695219 24.70595579 -0.09765625 22.55859375 C-0.09443359 21.25341797 -0.09121094 19.94824219 -0.08789062 18.60351562 C-0.07953401 17.2148431 -0.07106905 15.82617123 -0.0625 14.4375 C-0.05748666 13.04492344 -0.05292347 11.65234519 -0.04882812 10.25976562 C-0.03699434 6.8398013 -0.0205088 3.41992156 0 0 Z " fill="#04255C" transform="translate(229,322)"/>
<path d="M0 0 C5.74513623 2.6623802 8.56460782 6.11749689 11.39453125 11.77734375 C12.64453125 15.27734375 12.64453125 15.27734375 12.64453125 20.27734375 C15.94453125 20.27734375 19.24453125 20.27734375 22.64453125 20.27734375 C22.64453125 20.93734375 22.64453125 21.59734375 22.64453125 22.27734375 C19.34453125 22.27734375 16.04453125 22.27734375 12.64453125 22.27734375 C12.27328125 23.61796875 11.90203125 24.95859375 11.51953125 26.33984375 C10.37282222 29.85678388 9.14236004 32.1168554 6.58203125 34.77734375 C3.0574062 38.4943801 2.29951028 42.2972446 1.64453125 47.27734375 C3.29453125 47.27734375 4.94453125 47.27734375 6.64453125 47.27734375 C6.69864249 49.69431247 6.73825403 52.11006162 6.76953125 54.52734375 C6.78628906 55.20925781 6.80304688 55.89117187 6.8203125 56.59375 C6.85666607 60.33816725 6.72397474 63.10087102 4.64453125 66.27734375 C3.65453125 66.27734375 2.66453125 66.27734375 1.64453125 66.27734375 C1.64453125 62.61067708 1.64453125 58.94401042 1.64453125 55.27734375 C0.98453125 55.27734375 0.32453125 55.27734375 -0.35546875 55.27734375 C-0.35546875 53.62734375 -0.35546875 51.97734375 -0.35546875 50.27734375 C-1.25910156 50.28894531 -2.16273438 50.30054688 -3.09375 50.3125 C-4.27324219 50.32152344 -5.45273437 50.33054688 -6.66796875 50.33984375 C-8.42560547 50.35724609 -8.42560547 50.35724609 -10.21875 50.375 C-13.35546875 50.27734375 -13.35546875 50.27734375 -16.35546875 49.27734375 C-16.35546875 47.29734375 -16.35546875 45.31734375 -16.35546875 43.27734375 C-18.66546875 43.27734375 -20.97546875 43.27734375 -23.35546875 43.27734375 C-23.35546875 42.94734375 -23.35546875 42.61734375 -23.35546875 42.27734375 C-21.37546875 42.27734375 -19.39546875 42.27734375 -17.35546875 42.27734375 C-17.65839844 41.79265625 -17.96132812 41.30796875 -18.2734375 40.80859375 C-19.15446527 39.39894932 -20.03461181 37.98875388 -20.9140625 36.578125 C-21.85801344 35.07138489 -22.80831275 33.56859899 -23.765625 32.0703125 C-24.20777344 31.37550781 -24.64992187 30.68070313 -25.10546875 29.96484375 C-25.5128125 29.32933594 -25.92015625 28.69382812 -26.33984375 28.0390625 C-28.68568023 23.96993845 -28.92778082 19.84766439 -28.35546875 15.27734375 C-26.1935713 8.3097827 -21.6027247 3.83973784 -15.46484375 0.13671875 C-10.67147585 -1.81613484 -4.89334475 -1.50127492 0 0 Z M-21.8515625 6.99609375 C-25.74075589 12.196375 -27.01090678 16.72296349 -26.35546875 23.27734375 C-24.97573843 27.56983808 -23.11275957 30.64956106 -20.29296875 34.08984375 C-16.8304806 38.46306079 -16.00354172 42.82459185 -15.35546875 48.27734375 C-13.37546875 47.78234375 -13.37546875 47.78234375 -11.35546875 47.27734375 C-11.58363281 46.15714844 -11.81179688 45.03695312 -12.046875 43.8828125 C-12.33763871 42.410235 -12.62798139 40.93757433 -12.91796875 39.46484375 C-13.06943359 38.72685547 -13.22089844 37.98886719 -13.37695312 37.22851562 C-14.46875 31.6171875 -14.46875 31.6171875 -13.35546875 28.27734375 C-12.36546875 27.61734375 -11.37546875 26.95734375 -10.35546875 26.27734375 C-9.69546875 27.26734375 -9.03546875 28.25734375 -8.35546875 29.27734375 C-7.69546875 29.27734375 -7.03546875 29.27734375 -6.35546875 29.27734375 C-5.88109375 28.78234375 -5.40671875 28.28734375 -4.91796875 27.77734375 C-3.35546875 26.27734375 -3.35546875 26.27734375 -0.35546875 26.27734375 C-0.48824219 27.11136719 -0.62101562 27.94539063 -0.7578125 28.8046875 C-1.77508772 35.28703249 -2.6915982 41.74928333 -3.35546875 48.27734375 C-2.36546875 48.27734375 -1.37546875 48.27734375 -0.35546875 48.27734375 C-0.26072266 47.35115234 -0.26072266 47.35115234 -0.1640625 46.40625 C0.76225566 40.00002865 2.70507089 36.21957335 6.98828125 31.3828125 C11.11809965 26.13287827 11.28606917 20.70307032 10.64453125 14.27734375 C8.83958697 8.75633773 5.1983039 5.64603822 0.64453125 2.27734375 C-6.7955146 -1.44267918 -16.5570992 0.9136816 -21.8515625 6.99609375 Z " fill="#758DA8" transform="translate(273.35546875,87.72265625)"/>
<path d="M0 0 C1.06250977 -0.05607422 1.06250977 -0.05607422 2.14648438 -0.11328125 C6.09275175 -0.17887018 8.60516862 0.1802614 11.76953125 2.64453125 C15.3907627 6.53276594 15.3125 8.16505059 15.3125 13.375 C14.3125 15.5625 14.3125 15.5625 13.3125 17.375 C13.58284634 19.81217258 13.58284634 19.81217258 14.3125 22.375 C15 25.5625 15 25.5625 15.3125 28.375 C14.6525 29.035 13.9925 29.695 13.3125 30.375 C10.8125 30.25 10.8125 30.25 8.3125 29.375 C6.5183242 26.81189172 6.3125 25.54380694 6.3125 22.375 C4.0025 22.375 1.6925 22.375 -0.6875 22.375 C-0.625625 23.798125 -0.625625 23.798125 -0.5625 25.25 C-0.6875 28.375 -0.6875 28.375 -2.6875 30.375 C-5.25 30.5625 -5.25 30.5625 -7.6875 30.375 C-9.51784055 28.54465945 -8.81792797 25.64288008 -8.8203125 23.1875 C-8.82160156 21.93195313 -8.82289063 20.67640625 -8.82421875 19.3828125 C-8.82212402 18.72571289 -8.8200293 18.06861328 -8.81787109 17.39160156 C-8.81252234 15.38338665 -8.81781691 13.37539541 -8.82421875 11.3671875 C-8.82292969 10.11164063 -8.82164062 8.85609375 -8.8203125 7.5625 C-8.81862061 5.82033203 -8.81862061 5.82033203 -8.81689453 4.04296875 C-8.55759275 -1.30354053 -4.34778158 0.08472205 0 0 Z " fill="#0A295F" transform="translate(309.6875,321.625)"/>
<path d="M0 0 C2.6875 0.375 2.6875 0.375 4.75 2.25 C6.84632147 5.63116366 8.21299528 8.95997536 9.6015625 12.67578125 C11.06816089 16.32117508 12.92587075 19.71623062 14.83203125 23.1484375 C15.82391747 25.73005917 15.68881775 26.83534492 14.6875 29.375 C13.6875 30.375 13.6875 30.375 11.125 30.4375 C10.320625 30.416875 9.51625 30.39625 8.6875 30.375 C8.0275 28.395 7.3675 26.415 6.6875 24.375 C2.3975 24.375 -1.8925 24.375 -6.3125 24.375 C-6.9725 26.355 -7.6325 28.335 -8.3125 30.375 C-9.97861905 30.417721 -11.64632885 30.41563832 -13.3125 30.375 C-13.6425 30.045 -13.9725 29.715 -14.3125 29.375 C-14.02334306 22.70631818 -11.233992 17.40790604 -8.3125 11.5 C-7.8484375 10.53835938 -7.384375 9.57671875 -6.90625 8.5859375 C-2.96843662 0.4813681 -2.96843662 0.4813681 0 0 Z " fill="#0E2D62" transform="translate(341.3125,321.625)"/>
<path d="M0 0 C2.31 0 4.62 0 7 0 C7.04898438 1.25296875 7.09796875 2.5059375 7.1484375 3.796875 C7.22348583 5.44793821 7.29903277 7.09897881 7.375 8.75 C7.4059375 9.575 7.436875 10.4 7.46875 11.25 C7.50742188 12.04921875 7.54609375 12.8484375 7.5859375 13.671875 C7.6173584 14.4050293 7.6487793 15.13818359 7.68115234 15.89355469 C8.03772523 18.24922918 8.83662883 19.93450591 10 22 C12.91634129 22.2502157 12.91634129 22.2502157 16 22 C18.01750841 18.97373739 18.26172981 18.22804812 18.37890625 14.8046875 C18.41306641 14.00675781 18.44722656 13.20882813 18.48242188 12.38671875 C18.50884766 11.55785156 18.53527344 10.72898437 18.5625 9.875 C18.8794964 1.1205036 18.8794964 1.1205036 20 0 C23 -0.125 23 -0.125 26 0 C28.1371365 2.1371365 27.23152778 6.73887131 27.25 9.6875 C27.270625 10.49123047 27.29125 11.29496094 27.3125 12.12304688 C27.35572047 18.7303767 25.91453677 22.79828271 21.5 27.875 C17.84999937 30.66725048 14.11563897 30.81823543 9.6328125 30.62890625 C5.84561035 29.72424817 4.25901013 27.90620761 2.0234375 24.82421875 C0.20821035 21.58868029 -0.12078769 18.96366688 -0.09765625 15.33203125 C-0.09443359 14.43935547 -0.09121094 13.54667969 -0.08789062 12.62695312 C-0.07951172 11.69818359 -0.07113281 10.76941406 -0.0625 9.8125 C-0.05798828 8.87212891 -0.05347656 7.93175781 -0.04882812 6.96289062 C-0.03704626 4.64186288 -0.02059558 2.32096356 0 0 Z " fill="#08285E" transform="translate(199,322)"/>
<path d="M0 0 C-0.21103952 2.00487543 -0.42701892 4.00929268 -0.66015625 6.01171875 C-0.91844 8.28283449 -1.15077198 10.55691905 -1.37109375 12.83203125 C-1.5174212 14.17977547 -1.66455853 15.527432 -1.8125 16.875 C-1.94269531 18.15117188 -2.07289063 19.42734375 -2.20703125 20.7421875 C-3 24 -3 24 -5.07421875 25.9453125 C-5.70972656 26.29335937 -6.34523438 26.64140625 -7 27 C-6.68839539 29.20845985 -6.37567654 31.41676251 -6.0625 33.625 C-5.88847656 34.85476562 -5.71445312 36.08453125 -5.53515625 37.3515625 C-5.06225699 40.57556184 -4.54848998 43.78812176 -4 47 C-5.32 47 -6.64 47 -8 47 C-8.07734375 46.10861328 -8.07734375 46.10861328 -8.15625 45.19921875 C-9.11589141 38.18729345 -11.81090909 33.91811278 -16.22265625 28.4453125 C-19.39178007 24.08515533 -19.68206121 19.29317923 -19 14 C-17.09780555 8.09776237 -14.01954511 4.52436146 -9 1 C-5.8035914 -0.06546953 -3.34252724 -0.07427838 0 0 Z " fill="#FACF6C" transform="translate(266,89)"/>
<path d="M0 0 C3.22985688 0.86129517 4.54501287 1.26335417 6.3125 4.125 C6.539375 4.74375 6.76625 5.3625 7 6 C5.79296875 7.51953125 5.79296875 7.51953125 4 9 C1.73828125 9.07421875 1.73828125 9.07421875 -0.6875 8.6875 C-1.89986328 8.50767578 -1.89986328 8.50767578 -3.13671875 8.32421875 C-3.75160156 8.21722656 -4.36648437 8.11023438 -5 8 C-5.33 8.99 -5.66 9.98 -6 11 C-5.24074219 11.18175781 -4.48148438 11.36351562 -3.69921875 11.55078125 C-2.70535156 11.80214844 -1.71148437 12.05351562 -0.6875 12.3125 C0.29863281 12.55613281 1.28476563 12.79976563 2.30078125 13.05078125 C5.06789368 14.02387578 6.31936069 14.62373183 8 17 C8.74666262 20.09083596 8.65261206 22.89465428 8 26 C5.35809068 29.31932196 3.9071817 30.65536892 -0.2265625 31.40234375 C-4.9531747 31.59994459 -8.19192677 31.00030012 -12 28 C-12.66 27.34 -13.32 26.68 -14 26 C-13.625 23.875 -13.625 23.875 -13 22 C-10.6875 21.375 -10.6875 21.375 -8 21 C-7.01 21.66 -6.02 22.32 -5 23 C-2.37468476 23.16713569 -2.37468476 23.16713569 0 23 C0.33 22.01 0.66 21.02 1 20 C0.24074219 19.82984375 -0.51851562 19.6596875 -1.30078125 19.484375 C-2.29464844 19.24203125 -3.28851563 18.9996875 -4.3125 18.75 C-5.29863281 18.51796875 -6.28476563 18.2859375 -7.30078125 18.046875 C-10.41120429 16.84051701 -11.40223157 15.89397129 -13 13 C-13.71817513 7.9727741 -13.71817513 7.9727741 -13 5 C-9.01306484 0.33236859 -6.04464824 -0.76931887 0 0 Z " fill="#09295F" transform="translate(157,321)"/>
<path d="M0 0 C1.21042969 -0.00128906 2.42085937 -0.00257813 3.66796875 -0.00390625 C4.94285156 -0.00003906 6.21773437 0.00382812 7.53125 0.0078125 C9.44357422 0.00201172 9.44357422 0.00201172 11.39453125 -0.00390625 C13.21017578 -0.00197266 13.21017578 -0.00197266 15.0625 0 C16.18205078 0.00112793 17.30160156 0.00225586 18.45507812 0.00341797 C21.03125 0.1328125 21.03125 0.1328125 22.03125 1.1328125 C22.03125 2.7828125 22.03125 4.4328125 22.03125 6.1328125 C18.40125 6.1328125 14.77125 6.1328125 11.03125 6.1328125 C11.04285156 7.85371094 11.05445313 9.57460938 11.06640625 11.34765625 C11.07578234 13.58854059 11.08488273 15.82942609 11.09375 18.0703125 C11.10212891 19.20662109 11.11050781 20.34292969 11.11914062 21.51367188 C11.12397461 23.13305664 11.12397461 23.13305664 11.12890625 24.78515625 C11.13676147 26.28550415 11.13676147 26.28550415 11.14477539 27.81616211 C11.03125 30.1328125 11.03125 30.1328125 10.03125 31.1328125 C7.53125 31.2578125 7.53125 31.2578125 5.03125 31.1328125 C4.03125 30.1328125 4.03125 30.1328125 3.91772461 27.90795898 C3.92296143 26.94962158 3.92819824 25.99128418 3.93359375 25.00390625 C3.93681641 23.96943359 3.94003906 22.93496094 3.94335938 21.86914062 C3.95173828 20.78052734 3.96011719 19.69191406 3.96875 18.5703125 C3.97326172 17.47783203 3.97777344 16.38535156 3.98242188 15.25976562 C3.99425174 12.55072755 4.01073457 9.84179651 4.03125 7.1328125 C3.40476563 7.14441406 2.77828125 7.15601563 2.1328125 7.16796875 C1.31554687 7.17699219 0.49828125 7.18601562 -0.34375 7.1953125 C-1.15585938 7.20691406 -1.96796875 7.21851563 -2.8046875 7.23046875 C-4.96875 7.1328125 -4.96875 7.1328125 -6.96875 6.1328125 C-7.011471 4.46669345 -7.00938832 2.79898365 -6.96875 1.1328125 C-5.16595809 -0.66997941 -2.42827299 0.00244645 0 0 Z " fill="#102F63" transform="translate(173.96875,320.8671875)"/>
<path d="M0 0 C2.64 1.32 5.28 2.64 8 4 C6.44294957 9.64544599 3.70125083 14.28711682 0.6875 19.25 C0.21376953 20.0646875 -0.25996094 20.879375 -0.74804688 21.71875 C-4.30529638 27.5972143 -4.30529638 27.5972143 -7.66796875 29.546875 C-10 30 -10 30 -13 30 C-13.8700025 22.224925 -11.05039732 17.59432273 -7.0625 11.0625 C-6.49853516 10.10537109 -5.93457031 9.14824219 -5.35351562 8.16210938 C-1.26784353 1.26784353 -1.26784353 1.26784353 0 0 Z " fill="#314176" transform="translate(296,192)"/>
<path d="M0 0 C3 2.0625 3 2.0625 5 5 C5.57167363 9.00171543 5.36938628 11.22764686 3.625 14.875 C2 17 2 17 0 18 C-7.1119334 18.68825162 -7.1119334 18.68825162 -10.5 16.0625 C-12.52355333 11.93107862 -12.80919392 8.51799941 -12 4 C-9.26721728 -0.66850381 -5.0325219 -1.13605445 0 0 Z " fill="#0F2E63" transform="translate(182,367)"/>
<path d="M0 0 C0.86625 0.680625 1.7325 1.36125 2.625 2.0625 C7.0291559 4.59081172 9.80835762 3.98230637 14.70703125 3.26171875 C15.46371094 3.17535156 16.22039062 3.08898437 17 3 C17.495 3.495 17.495 3.495 18 4 C20.32817964 4.36760731 22.6618385 4.70241581 25 5 C25.495 6.98 25.495 6.98 26 9 C18.61056751 9.12524462 18.61056751 9.12524462 15.5625 8.5 C13.04636149 8.00904615 10.98851203 8.03359566 8.4375 8.125 C4.53380333 8.18952391 2.99700876 7.56886465 0 5 C-2.36757327 4.16458146 -2.36757327 4.16458146 -5 5 C-6.87903609 6.69761191 -8.56963119 8.51307346 -10.28515625 10.375 C-12.40572082 12.38446437 -14.0920773 12.91188113 -17 13 C-17.66 10.69 -18.32 8.38 -19 6 C-19.598125 6.66 -20.19625 7.32 -20.8125 8 C-23 10 -23 10 -26 10 C-25.52697634 5.74278702 -23.18981069 3.67053918 -20 1 C-18.68 1 -17.36 1 -16 1 C-15.34 3.31 -14.68 5.62 -14 8 C-13.51789063 7.50628906 -13.03578125 7.01257813 -12.5390625 6.50390625 C-11.90742188 5.86324219 -11.27578125 5.22257813 -10.625 4.5625 C-9.68527344 3.60537109 -9.68527344 3.60537109 -8.7265625 2.62890625 C-5.8602071 -0.07532497 -3.88081194 -0.44100136 0 0 Z " fill="#35467D" transform="translate(255,212)"/>
<path d="M0 0 C3 0.125 3 0.125 4 1.125 C4.25380234 5.59831958 4.18522721 10.0828346 4.1875 14.5625 C4.19974609 15.82900391 4.21199219 17.09550781 4.22460938 18.40039062 C4.22750977 20.21120117 4.22750977 20.21120117 4.23046875 22.05859375 C4.23457764 23.17290771 4.23868652 24.28722168 4.24291992 25.43530273 C4 28.125 4 28.125 2 30.125 C-0.5625 30.3125 -0.5625 30.3125 -3 30.125 C-4.83034055 28.29465945 -4.13042797 25.39288008 -4.1328125 22.9375 C-4.13410156 21.68195313 -4.13539063 20.42640625 -4.13671875 19.1328125 C-4.13462402 18.47571289 -4.1325293 17.81861328 -4.13037109 17.14160156 C-4.12502234 15.13338665 -4.13031691 13.12539541 -4.13671875 11.1171875 C-4.13542969 9.86164063 -4.13414062 8.60609375 -4.1328125 7.3125 C-4.13112061 5.57033203 -4.13112061 5.57033203 -4.12939453 3.79296875 C-3.94609127 0.01346295 -3.82517876 0.15938245 0 0 Z " fill="#102F64" transform="translate(262,321.875)"/>
<path d="M0 0 C2.4375 1.5625 2.4375 1.5625 4 4 C4.5625 7.4375 4.5625 7.4375 4 11 C1.52506641 14.42123173 0.11736219 15.79477021 -4.0625 16.5625 C-7 16 -7 16 -9.375 14.5 C-11.65700312 10.98922596 -11.81004807 8.07529338 -11 4 C-8.16250305 -0.53999512 -5.10870514 -0.72981502 0 0 Z " fill="#F3F5F5" transform="translate(287,329)"/>
<path d="M0 0 C7.24401839 -0.47938357 12.97553842 -0.36844845 19 4 C23.88105843 8.88105843 26 14.13840051 26 21 C29.3 21 32.6 21 36 21 C36 21.66 36 22.32 36 23 C32.7 23 29.4 23 26 23 C25.62875 24.340625 25.2575 25.68125 24.875 27.0625 C23.72829097 30.57944013 22.49782879 32.83951165 19.9375 35.5 C16.41287495 39.21703635 15.65497903 43.01990085 15 48 C16.65 48 18.3 48 20 48 C20.05411124 50.41696872 20.09372278 52.83271787 20.125 55.25 C20.14175781 55.93191406 20.15851563 56.61382812 20.17578125 57.31640625 C20.21213482 61.0608235 20.07944349 63.82352727 18 67 C17.01 67 16.02 67 15 67 C14.79913557 63.28400809 14.8480563 62.22791555 17 59 C17.5 55.5 17.5 55.5 17 52 C16.34 51.505 15.68 51.01 15 50.5 C13 49 13 49 12.5 45.75 C13.24389705 40.17077209 15.63066681 36.69152923 19.125 32.375 C23.38309245 26.98141623 23.67638645 21.67797411 23 15 C21.33977123 10.11154863 18.56132115 6.49402799 14 4 C11.45851347 3.29737734 8.97705449 2.82696567 6.3671875 2.45703125 C3.94257278 1.98891257 2.14495208 1.20097548 0 0 Z " fill="#7C96B4" transform="translate(260,87)"/>
<path d="M0 0 C0.99 0.33 1.98 0.66 3 1 C3 4.3 3 7.6 3 11 C6.3 11 9.6 11 13 11 C13 12.32 13 13.64 13 15 C9.7 15 6.4 15 3 15 C3 18.96 3 22.92 3 27 C1.68 26.67 0.36 26.34 -1 26 C-1 22.37 -1 18.74 -1 15 C-4.3 15 -7.6 15 -11 15 C-11 13.68 -11 12.36 -11 11 C-7.7 11 -4.4 11 -1 11 C-1.020625 9.370625 -1.04125 7.74125 -1.0625 6.0625 C-1.08386068 4.37500659 -1.07205511 2.68608966 -1 1 C-0.67 0.67 -0.34 0.34 0 0 Z " fill="#263974" transform="translate(146,177)"/>
<path d="M0 0 C0.99 0.33 1.98 0.66 3 1 C3 4.3 3 7.6 3 11 C6.3 11 9.6 11 13 11 C13 12.32 13 13.64 13 15 C9.7 15 6.4 15 3 15 C3 18.63 3 22.26 3 26 C1.68 26 0.36 26 -1 26 C-1 22.37 -1 18.74 -1 15 C-4.3 15 -7.6 15 -11 15 C-11 13.68 -11 12.36 -11 11 C-7.7 11 -4.4 11 -1 11 C-1.020625 9.370625 -1.04125 7.74125 -1.0625 6.0625 C-1.08386068 4.37500659 -1.07205511 2.68608966 -1 1 C-0.67 0.67 -0.34 0.34 0 0 Z " fill="#253874" transform="translate(353,177)"/>
<path d="M0 0 C5.28 0.33 10.56 0.66 16 1 C16 2.65 16 4.3 16 6 C16.66 6 17.32 6 18 6 C17.42655063 8.86724686 17.1385485 9.8614515 15 12 C12.03125 12.265625 12.03125 12.265625 8.5 12.25 C7.3346875 12.25515625 6.169375 12.2603125 4.96875 12.265625 C2 12 2 12 0 10 C-0.27450545 6.65103346 -0.08628804 3.36523337 0 0 Z " fill="#90AACB" transform="translate(257,137)"/>
<path d="M0 0 C7 0 7 0 9.9375 1.5625 C12 4 12 4 12.5625 7.5 C11.92519445 11.46545673 11.1376325 12.60063397 8 15 C6 16 6 16 0 16 C0 10.72 0 5.44 0 0 Z " fill="#F4F6F5" transform="translate(236,329)"/>
<path d="M0 0 C0.45375 0.495 0.9075 0.99 1.375 1.5 C2.87635519 3.22609337 2.87635519 3.22609337 5 3 C6.62514468 1.54166642 6.62514468 1.54166642 8 0 C9.46800688 1.96438331 10.03217444 3.46736426 9.88378906 5.92382812 C9.52249521 8.21441069 9.09207827 10.47864357 8.625 12.75 C8.47289062 13.54277344 8.32078125 14.33554688 8.1640625 15.15234375 C7.78786303 17.1038785 7.39549684 19.05228438 7 21 C5.02 21 3.04 21 1 21 C0.49356447 18.77228658 -0.0048962 16.54275924 -0.5 14.3125 C-0.7784375 13.07113281 -1.056875 11.82976562 -1.34375 10.55078125 C-1.8979624 7.55209629 -2.30522762 5.02502372 -2 2 C-1.34 1.34 -0.68 0.68 0 0 Z " fill="#F9BA27" transform="translate(262,115)"/>
<path d="M0 0 C1.875 1.0625 1.875 1.0625 3 3 C3.63316583 8.90954774 3.63316583 8.90954774 1.875 11.9375 C-0.88980433 13.50422245 -2.88188517 13.38976435 -6 13 C-7.875 11.9375 -7.875 11.9375 -9 10 C-9.63316583 4.09045226 -9.63316583 4.09045226 -7.875 1.0625 C-5.11019567 -0.50422245 -3.11811483 -0.38976435 0 0 Z " fill="#1C3A6B" transform="translate(276,372)"/>
<path d="M0 0 C2.41486943 2.41486943 2.2961925 3.12707789 2.3125 6.4375 C2.32925781 7.21996094 2.34601563 8.00242187 2.36328125 8.80859375 C1.91700017 11.50067642 1.1784515 12.39728211 -1 14 C-3.5625 13.875 -3.5625 13.875 -6 13 C-8.46324069 9.30513897 -8.38991688 7.36706908 -8 3 C-5.94362059 -0.35514536 -3.76397853 -0.48256135 0 0 Z " fill="#EFF1F2" transform="translate(181,369)"/>
<path d="M0 0 C0.90492188 0.02320313 1.80984375 0.04640625 2.7421875 0.0703125 C5.1553125 0.1321875 5.1553125 0.1321875 7.6171875 0.1953125 C7.6171875 3.4953125 7.6171875 6.7953125 7.6171875 10.1953125 C5.80476698 10.22218529 3.99223517 10.24164965 2.1796875 10.2578125 C1.17035156 10.26941406 0.16101563 10.28101563 -0.87890625 10.29296875 C-3.3828125 10.1953125 -3.3828125 10.1953125 -4.3828125 9.1953125 C-4.5703125 5.7578125 -4.5703125 5.7578125 -4.3828125 2.1953125 C-2.3828125 0.1953125 -2.3828125 0.1953125 0 0 Z " fill="#F2C96C" transform="translate(298.3828125,297.8046875)"/>
<path d="M0 0 C0.99 0 1.98 0 3 0 C3 5.28 3 10.56 3 16 C2.67 16 2.34 16 2 16 C2 12.7 2 9.4 2 6 C-1.63 6 -5.26 6 -9 6 C-8.98839844 7.72089844 -8.97679687 9.44179688 -8.96484375 11.21484375 C-8.95546766 13.45572809 -8.94636727 15.69661359 -8.9375 17.9375 C-8.92912109 19.07380859 -8.92074219 20.21011719 -8.91210938 21.38085938 C-8.90888672 22.46044922 -8.90566406 23.54003906 -8.90234375 24.65234375 C-8.89710693 25.65257568 -8.89187012 26.65280762 -8.88647461 27.68334961 C-9 30 -9 30 -10 31 C-11.66617115 31.04063832 -13.33388095 31.042721 -15 31 C-15.33 30.34 -15.66 29.68 -16 29 C-14.68 28.67 -13.36 28.34 -12 28 C-11.67 20.08 -11.34 12.16 -11 4 C-7.37 4 -3.74 4 0 4 C0 2.68 0 1.36 0 0 Z " fill="#8192AC" transform="translate(196,323)"/>
<path d="M0 0 C0.99 0.66 1.98 1.32 3 2 C3.1875 4.625 3.1875 4.625 3 7 C0.03 7 -2.94 7 -6 7 C-4.29107501 10.31460705 -4.29107501 10.31460705 -0.875 10.6875 C0.07375 10.790625 1.0225 10.89375 2 11 C2 11.66 2 12.32 2 13 C-5.40256709 13.48541424 -5.40256709 13.48541424 -8 11.375 C-9.2766188 8.34303035 -9.41616519 6.25996064 -9 3 C-6.78229215 -0.69617975 -4.0271794 -0.41949785 0 0 Z " fill="#133265" transform="translate(238,372)"/>
<path d="M0 0 C0.99 0.33 1.98 0.66 3 1 C1.66666667 3.66666667 0.33333333 6.33333333 -1 9 C0.98 11.97 0.98 11.97 3 15 C-1.27709699 15 -2.55930376 14.29379749 -6 12 C-8.97 14.475 -8.97 14.475 -12 17 C-12.66 16.01 -13.32 15.02 -14 14 C-9.33333333 9.33333333 -4.66666667 4.66666667 0 0 Z " fill="#EAECEF" transform="translate(177,262)"/>
<path d="M0 0 C0.91007812 0.00902344 1.82015625 0.01804687 2.7578125 0.02734375 C3.45648438 0.03894531 4.15515625 0.05054688 4.875 0.0625 C4.875 0.7225 4.875 1.3825 4.875 2.0625 C3.80958984 2.24425781 3.80958984 2.24425781 2.72265625 2.4296875 C1.80355469 2.59726562 0.88445312 2.76484375 -0.0625 2.9375 C-0.97902344 3.09992188 -1.89554687 3.26234375 -2.83984375 3.4296875 C-3.59394531 3.63851563 -4.34804687 3.84734375 -5.125 4.0625 C-6.50625018 6.82500036 -6.31579306 9.00981099 -6.125 12.0625 C-3.72736815 14.46013185 -2.79226502 14.40530586 0.5 14.6875 C1.72589844 14.79964844 1.72589844 14.79964844 2.9765625 14.9140625 C3.60304688 14.96304687 4.22953125 15.01203125 4.875 15.0625 C4.875 16.0525 4.875 17.0425 4.875 18.0625 C-3.70386517 18.96203149 -3.70386517 18.96203149 -6.90234375 16.9375 C-9.14151402 14.44520613 -10.08927609 12.28130896 -10.625 9 C-10.06480114 5.7088317 -9.10873516 3.73291272 -7.125 1.0625 C-4.60024538 -0.19987731 -2.81299534 -0.03606404 0 0 Z " fill="#183669" transform="translate(260.125,366.9375)"/>
<path d="M0 0 C0.99 0 1.98 0 3 0 C3 2.64 3 5.28 3 8 C5.31 8 7.62 8 10 8 C10 8.99 10 9.98 10 11 C7.69 11 5.38 11 3 11 C3 13.31 3 15.62 3 18 C2.01 18 1.02 18 0 18 C0 15.69 0 13.38 0 11 C-2.31 11 -4.62 11 -7 11 C-7 10.01 -7 9.02 -7 8 C-4.69 8 -2.38 8 0 8 C0 5.36 0 2.72 0 0 Z " fill="#394A80" transform="translate(332,205)"/>
<path d="M0 0 C0.99 0 1.98 0 3 0 C3 2.64 3 5.28 3 8 C5.31 8 7.62 8 10 8 C10 8.99 10 9.98 10 11 C7.69 11 5.38 11 3 11 C3 13.31 3 15.62 3 18 C2.01 18 1.02 18 0 18 C0 15.69 0 13.38 0 11 C-1.98 11 -3.96 11 -6 11 C-6.33 10.01 -6.66 9.02 -7 8 C-4.69 8 -2.38 8 0 8 C0 5.36 0 2.72 0 0 Z " fill="#38497F" transform="translate(166,205)"/>
<path d="M0 0 C10.23 0 20.46 0 31 0 C31 0.99 31 1.98 31 3 C21.1 3 11.2 3 1 3 C0.67 2.01 0.34 1.02 0 0 Z " fill="#273972" transform="translate(234,246)"/>
<path d="M0 0 C2.45973778 2.45973778 2.32301675 3.29299385 2.375 6.6875 C2.24441319 12.01083301 1.28229135 14.79193416 -2 19 C-8.2786993 24.32324506 -15.09085145 23.39490894 -23 23 C-23.33 22.34 -23.66 21.68 -24 21 C-23.13117188 20.96261719 -22.26234375 20.92523438 -21.3671875 20.88671875 C-10.92940912 20.39632692 -10.92940912 20.39632692 -2.6875 14.5 C-0.38868335 9.73208398 -0.18637761 5.23721089 0 0 Z " fill="#9BA8BC" transform="translate(255,331)"/>
<path d="M0 0 C-0.7734375 0.37125 -0.7734375 0.37125 -1.5625 0.75 C-2.7690625 1.36875 -2.7690625 1.36875 -4 2 C-5.155 2.5775 -6.31 3.155 -7.5 3.75 C-12.07641118 6.37210683 -14.34605932 10.03817797 -16 15 C-16.42636552 21.39548283 -15.87468792 26.45038535 -11.65234375 31.6640625 C-11.18957031 32.18742187 -10.72679687 32.71078125 -10.25 33.25 C-9.5075 34.1575 -8.765 35.065 -8 36 C-8.33 36.99 -8.66 37.98 -9 39 C-19.75955491 26.00009942 -19.75955491 26.00009942 -19.34375 17.04296875 C-18.23592987 10.45899228 -14.67467842 6.20656546 -9.5859375 2.12890625 C-6.32082139 -0.19527739 -3.95804502 -0.08604446 0 0 Z " fill="#6B89AD" transform="translate(264,88)"/>
<path d="M0 0 C0.66 0 1.32 0 2 0 C2 3.3 2 6.6 2 10 C3.98 10 5.96 10 8 10 C8 6.7 8 3.4 8 0 C8.99 0 9.98 0 11 0 C11 4.29 11 8.58 11 13 C4.1640625 13.1953125 4.1640625 13.1953125 2 13 C0 11 0 11 -0.1953125 8.3984375 C-0.17210937 7.40070313 -0.14890625 6.40296875 -0.125 5.375 C-0.10695313 4.37210937 -0.08890625 3.36921875 -0.0703125 2.3359375 C-0.04710937 1.56507813 -0.02390625 0.79421875 0 0 Z " fill="#2E4977" transform="translate(282,372)"/>
<path d="M0 0 C2.48002593 2.48002593 2.29694693 3.32832513 2.3125 6.75 C2.20937758 11.22293497 1.59420164 14.24288039 -1 18 C-5.39333252 21.96471471 -7.76848613 23.130599 -13.625 23.0625 C-14.62789063 23.05347656 -15.63078125 23.04445313 -16.6640625 23.03515625 C-17.43492187 23.02355469 -18.20578125 23.01195312 -19 23 C-19.33 22.34 -19.66 21.68 -20 21 C-18.93072266 20.99613281 -18.93072266 20.99613281 -17.83984375 20.9921875 C-11.55193771 20.73830166 -7.84180457 19.9498522 -3.2421875 15.5703125 C-0.80058743 12.48376146 -0.74935491 9.09930962 -0.4375 5.3125 C-0.35371094 4.31863281 -0.26992188 3.32476562 -0.18359375 2.30078125 C-0.09271484 1.16189453 -0.09271484 1.16189453 0 0 Z " fill="#8D9CB3" transform="translate(298,331)"/>
<path d="M0 0 C0.66 0.33 1.32 0.66 2 1 C3.8029743 9.65427666 3.57125481 19.32845222 2 28 C0 30 0 30 -2.625 30.125 C-3.40875 30.08375 -4.1925 30.0425 -5 30 C-5 29.34 -5 28.68 -5 28 C-3.68 27.34 -2.36 26.68 -1 26 C-0.67 17.42 -0.34 8.84 0 0 Z " fill="#A5B1C3" transform="translate(266,324)"/>
<path d="M0 0 C0.33 0 0.66 0 1 0 C1.08745946 3.3956697 1.14054444 6.79104773 1.1875 10.1875 C1.21263672 11.14720703 1.23777344 12.10691406 1.26367188 13.09570312 C1.33341269 19.81406844 0.4722432 23.22809095 -4.0625 28.3125 C-8.23316243 30.70841246 -12.27971405 30.718486 -17 30 C-17.66 29.34 -18.32 28.68 -19 28 C-18.34773437 27.98582031 -17.69546875 27.97164063 -17.0234375 27.95703125 C-10.62021592 27.6075929 -7.35731923 26.79305116 -3 22 C-0.64810599 17.53469075 -0.57364456 13.1246451 -0.375 8.1875 C-0.33632812 7.39923828 -0.29765625 6.61097656 -0.2578125 5.79882812 C-0.16411156 3.8662462 -0.08099221 1.93315624 0 0 Z " fill="#909FB5" transform="translate(226,324)"/>
<path d="M0 0 C6.8359375 -0.1953125 6.8359375 -0.1953125 9 0 C11 2 11 2 11.1953125 4.6015625 C11.17210937 5.59929687 11.14890625 6.59703125 11.125 7.625 C11.10695312 8.62789063 11.08890625 9.63078125 11.0703125 10.6640625 C11.03550781 11.82035156 11.03550781 11.82035156 11 13 C10.34 13 9.68 13 9 13 C8.67 9.7 8.34 6.4 8 3 C6.35 2.67 4.7 2.34 3 2 C3 5.63 3 9.26 3 13 C2.01 13 1.02 13 0 13 C0 8.71 0 4.42 0 0 Z " fill="#153366" transform="translate(215,372)"/>
<path d="M0 0 C6.8359375 -0.1953125 6.8359375 -0.1953125 9 0 C11 2 11 2 11.1953125 4.6015625 C11.17210937 5.59929687 11.14890625 6.59703125 11.125 7.625 C11.10695312 8.62789063 11.08890625 9.63078125 11.0703125 10.6640625 C11.03550781 11.82035156 11.03550781 11.82035156 11 13 C10.01 13 9.02 13 8 13 C7.67 9.7 7.34 6.4 7 3 C5.35 2.67 3.7 2.34 2 2 C2 5.63 2 9.26 2 13 C1.34 13 0.68 13 0 13 C0 8.71 0 4.42 0 0 Z " fill="#113064" transform="translate(190,372)"/>
<path d="M0 0 C2.1230811 0.71443364 4.20466428 1.46996722 6.2734375 2.328125 C6.2734375 2.658125 6.2734375 2.988125 6.2734375 3.328125 C-1.9765625 3.328125 -10.2265625 3.328125 -18.7265625 3.328125 C-13.42784166 -1.97059584 -7.13576266 -1.75838278 0 0 Z " fill="#B8CAE6" transform="translate(261.7265625,195.671875)"/>
<path d="M0 0 C0 0.33 0 0.66 0 1 C-8.58 1 -17.16 1 -26 1 C-19.13664841 -5.86335159 -7.8824479 -3.43961363 0 0 Z " fill="#BBCCE8" transform="translate(239,198)"/>
<path d="M0 0 C2.45394474 2.45394474 2.266855 3.31079742 2.4375 6.6875 C2.81464645 11.42583089 3.88212172 14.76424344 6 19 C6.33 19.66 6.66 20.32 7 21 C5.02 21 3.04 21 1 21 C0.49356447 18.77228658 -0.0048962 16.54275924 -0.5 14.3125 C-0.7784375 13.07113281 -1.056875 11.82976562 -1.34375 10.55078125 C-1.8979624 7.55209629 -2.30522762 5.02502372 -2 2 C-1.34 1.34 -0.68 0.68 0 0 Z " fill="#F8CE6A" transform="translate(262,115)"/>
<path d="M0 0 C4.95 0 9.9 0 15 0 C15 1.98 15 3.96 15 6 C10.05 6 5.1 6 0 6 C0 5.34 0 4.68 0 4 C3.3 3.67 6.6 3.34 10 3 C6.7 2.67 3.4 2.34 0 2 C0 1.34 0 0.68 0 0 Z " fill="#F8FAF8" transform="translate(258,138)"/>
<path d="M0 0 C1.134375 0.020625 2.26875 0.04125 3.4375 0.0625 C3.4375 0.7225 3.4375 1.3825 3.4375 2.0625 C1.4575 2.0625 -0.5225 2.0625 -2.5625 2.0625 C-2.5625 3.0525 -2.5625 4.0425 -2.5625 5.0625 C-1.593125 5.206875 -0.62375 5.35125 0.375 5.5 C3.4375 6.0625 3.4375 6.0625 4.4375 7.0625 C4.5625 9.5625 4.5625 9.5625 4.4375 12.0625 C3.4375 13.0625 3.4375 13.0625 1.58984375 13.16015625 C-0.4609375 13.12760417 -2.51171875 13.09505208 -4.5625 13.0625 C-4.5625 12.4025 -4.5625 11.7425 -4.5625 11.0625 C-2.5825 11.0625 -0.6025 11.0625 1.4375 11.0625 C1.4375 10.0725 1.4375 9.0825 1.4375 8.0625 C0.65375 7.93875 -0.13 7.815 -0.9375 7.6875 C-3.5625 7.0625 -3.5625 7.0625 -5.5625 5.0625 C-4.90400312 0.71642062 -4.57278902 0.08022437 0 0 Z " fill="#254171" transform="translate(311.5625,371.9375)"/>
<path d="M0 0 C0.66 0.33 1.32 0.66 2 1 C0.66666667 3.66666667 -0.66666667 6.33333333 -2 9 C-3.45903258 8.69078116 -4.91720722 8.37751201 -6.375 8.0625 C-7.18710938 7.88847656 -7.99921875 7.71445312 -8.8359375 7.53515625 C-11 7 -11 7 -13 6 C-12.67 4.68 -12.34 3.36 -12 2 C-9.42994199 1.9286095 -7.33585976 1.89133949 -4.875 2.6875 C-3.946875 2.8421875 -3.946875 2.8421875 -3 3 C-1.22809091 1.64555699 -1.22809091 1.64555699 0 0 Z " fill="#E5E9EC" transform="translate(164,326)"/>
<path d="M0 0 C3.875 1.75 3.875 1.75 5 4 C5.37254574 8.93623109 5.20630254 12.10663263 2 16 C-0.1875 16.8125 -0.1875 16.8125 -2 17 C-2 16.01 -2 15.02 -2 14 C-1.34 14 -0.68 14 0 14 C0 13.24074219 0 12.48148437 0 11.69921875 C0 7.79947917 0 3.89973958 0 0 Z " fill="#213D6E" transform="translate(182,368)"/>
<path d="M0 0 C1.65 0 3.3 0 5 0 C5.05411124 2.41696872 5.09372278 4.83271787 5.125 7.25 C5.15013672 8.27287109 5.15013672 8.27287109 5.17578125 9.31640625 C5.21213482 13.0608235 5.07944349 15.82352727 3 19 C2.01 19 1.02 19 0 19 C-0.20086443 15.28400809 -0.1519437 14.22791555 2 11 C2.30891093 6.7524747 2.33046701 3.6413547 0 0 Z " fill="#798BB5" transform="translate(275,135)"/>
<path d="M0 0 C0.66 0.33 1.32 0.66 2 1 C2.62589928 9.13669065 2.62589928 9.13669065 0.1875 12.5 C-3.01941446 14.69902706 -5.69734727 15.17394695 -9.5 15.25 C-10.66015625 15.28867187 -10.66015625 15.28867187 -11.84375 15.328125 C-14.48830838 14.9256922 -15.33240802 14.03104151 -17 12 C-15.89591797 12.06960938 -15.89591797 12.06960938 -14.76953125 12.140625 C-8.62773892 12.38272926 -8.62773892 12.38272926 -2.875 10.5 C-0.23541505 6.9805534 -0.21820337 4.36406746 0 0 Z " fill="#8C9BB2" transform="translate(165,339)"/>
<path d="M0 0 C2.97 0.495 2.97 0.495 6 1 C6.33 2.98 6.66 4.96 7 7 C4.03 7 1.06 7 -2 7 C-1.67 7.99 -1.34 8.98 -1 10 C1.31 10.33 3.62 10.66 6 11 C6 11.66 6 12.32 6 13 C-1.42608696 13.48695652 -1.42608696 13.48695652 -4.0625 11.25 C-5 9 -5 9 -4 5 C-1.03 5.33 1.94 5.66 5 6 C3.35 4.02 1.7 2.04 0 0 Z " fill="#0E2D62" transform="translate(323,372)"/>
<path d="M0 0 C0.66 0 1.32 0 2 0 C1.37666027 2.95296424 0.43098208 5.27546792 -1.06640625 7.890625 C-1.46923828 8.59960938 -1.87207031 9.30859375 -2.28710938 10.0390625 C-2.70798828 10.76867187 -3.12886719 11.49828125 -3.5625 12.25 C-3.98724609 12.99507812 -4.41199219 13.74015625 -4.84960938 14.5078125 C-5.89546042 16.34098961 -6.94716192 18.17082677 -8 20 C-8.99 20 -9.98 20 -11 20 C-9.35554633 15.39731718 -7.00052105 11.36169249 -4.5 7.1875 C-4.09652344 6.49462891 -3.69304687 5.80175781 -3.27734375 5.08789062 C-2.24318829 3.35576555 -1.12775368 1.67269436 0 0 Z " fill="#E5AC2B" transform="translate(297,197)"/>
<path d="M0 0 C2.625 0.375 2.625 0.375 5 1 C5 3.31 5 5.62 5 8 C2.625 8.625 2.625 8.625 0 9 C-2 7 -2 7 -2.25 4.5 C-2 2 -2 2 0 0 Z " fill="#E9ECEE" transform="translate(271,374)"/>
<path d="M0 0 C0.99 0 1.98 0 3 0 C3 1.65 3 3.3 3 5 C4.65 5 6.3 5 8 5 C8 5.66 8 6.32 8 7 C6.35 7 4.7 7 3 7 C3 8.65 3 10.3 3 12 C2.01 12 1.02 12 0 12 C0 10.35 0 8.7 0 7 C-1.32 7 -2.64 7 -4 7 C-4 6.34 -4 5.68 -4 5 C-2.68 5 -1.36 5 0 5 C0 3.35 0 1.7 0 0 Z " fill="#4D5C8C" transform="translate(121,164)"/>
<path d="M0 0 C2.33294775 -0.04241723 4.66702567 -0.04092937 7 0 C8 1 8 1 8.125 3.5 C8 6 8 6 7 7 C4.66702567 7.04092937 2.33294775 7.04241723 0 7 C0 4.69 0 2.38 0 0 Z " fill="#F8F9F8" transform="translate(309,329)"/>
<path d="M0 0 C2.97 0 5.94 0 9 0 C9 0.66 9 1.32 9 2 C7.02 2 5.04 2 3 2 C3 5.63 3 9.26 3 13 C2.01 13 1.02 13 0 13 C0 8.71 0 4.42 0 0 Z " fill="#203D6E" transform="translate(296,372)"/>
<path d="M0 0 C0.66 0 1.32 0 2 0 C2 1.65 2 3.3 2 5 C3.32 5 4.64 5 6 5 C6 5.66 6 6.32 6 7 C4.68 7 3.36 7 2 7 C2 8.65 2 10.3 2 12 C1.01 12 0.02 12 -1 12 C-1 10.35 -1 8.7 -1 7 C-2.65 7 -4.3 7 -6 7 C-6 6.34 -6 5.68 -6 5 C-4.02 5 -2.04 5 0 5 C0 3.35 0 1.7 0 0 Z " fill="#465688" transform="translate(378,164)"/>
<path d="M0 0 C0.99 0.33 1.98 0.66 3 1 C3.66 0.67 4.32 0.34 5 0 C4.37679879 6.43974581 3.35991738 12.67572401 2 19 C1.34 19 0.68 19 0 19 C0.16757812 18.01257813 0.33515625 17.02515625 0.5078125 16.0078125 C0.71148437 14.72648437 0.91515625 13.44515625 1.125 12.125 C1.33382813 10.84882812 1.54265625 9.57265625 1.7578125 8.2578125 C1.83773438 7.18273437 1.91765625 6.10765625 2 5 C1.34 4.34 0.68 3.68 0 3 C-0.99 4.485 -0.99 4.485 -2 6 C-2.99 5.67 -3.98 5.34 -5 5 C-4.67 4.34 -4.34 3.68 -4 3 C-3.34 3.33 -2.68 3.66 -2 4 C-1.34 2.68 -0.68 1.36 0 0 Z " fill="#8E968D" transform="translate(269,113)"/>
<path d="M0 0 C2.31 0 4.62 0 7 0 C7.66 0.66 8.32 1.32 9 2 C6.69 2 4.38 2 2 2 C2 6.29 2 10.58 2 15 C3.32 15.33 4.64 15.66 6 16 C4.02 16 2.04 16 0 16 C0 10.72 0 5.44 0 0 Z " fill="#8697AF" transform="translate(236,329)"/>
<path d="M0 0 C2.375 0.75 2.375 0.75 5 2 C5.66 3.32 6.32 4.64 7 6 C3.7 6 0.4 6 -3 6 C-2 2 -2 2 0 0 Z " fill="#8797B0" transform="translate(321,372)"/>
<path d="M0 0 C2.31 0 4.62 0 7 0 C7 0.66 7 1.32 7 2 C5.35 2 3.7 2 2 2 C2.061875 3.423125 2.061875 3.423125 2.125 4.875 C2 8 2 8 0 10 C-2.625 10.125 -2.625 10.125 -5 10 C-5 9.34 -5 8.68 -5 8 C-4.0409375 7.690625 -4.0409375 7.690625 -3.0625 7.375 C-0.65074923 6.10461791 -0.65074923 6.10461791 -0.25 2.875 C-0.1675 1.92625 -0.085 0.9775 0 0 Z " fill="#A2AEC1" transform="translate(309,344)"/>
<path d="M0 0 C4.29 0 8.58 0 13 0 C13 0.33 13 0.66 13 1 C12.31292969 1.00257813 11.62585938 1.00515625 10.91796875 1.0078125 C8.1597464 1.12619114 5.67734829 1.31449537 3 2 C0.76113268 4.88679844 0.76113268 4.88679844 0 8 C-1.65 8 -3.3 8 -5 8 C-5.33 7.34 -5.66 6.68 -6 6 C-4.68 6 -3.36 6 -2 6 C-1.34 4.02 -0.68 2.04 0 0 Z " fill="#91A0B6" transform="translate(335,346)"/>
<path d="M0 0 C0.66 0 1.32 0 2 0 C2 4.29 2 8.58 2 13 C-0.31 13 -2.62 13 -5 13 C-5 12.34 -5 11.68 -5 11 C-3.35 11 -1.7 11 0 11 C0 7.37 0 3.74 0 0 Z " fill="#01225A" transform="translate(291,372)"/>
<path d="M0 0 C0.33 0.66 0.66 1.32 1 2 C-0.093125 2.0825 -1.18625 2.165 -2.3125 2.25 C-5.96039461 2.65727047 -5.96039461 2.65727047 -7.875 4.75 C-9.08863527 7.17727054 -9.62769367 9.31939441 -10 12 C-10.33 12 -10.66 12 -11 12 C-11.48192771 4.77108434 -11.48192771 4.77108434 -9.4375 1.5 C-6.17971981 -0.50478781 -3.75217167 -0.28862859 0 0 Z " fill="#94A3B8" transform="translate(287,329)"/>
<path d="M0 0 C0.66 0 1.32 0 2 0 C2.66 2.31 3.32 4.62 4 7 C5.98 7 7.96 7 10 7 C9.67 7.99 9.34 8.98 9 10 C3.63157895 10.35789474 3.63157895 10.35789474 1.125 8.9375 C-0.58196395 5.99772876 -0.18799766 3.32129197 0 0 Z " fill="#0E2D62" transform="translate(267,375)"/>
<path d="M0 0 C0.66 0 1.32 0 2 0 C2 1.32 2 2.64 2 4 C3.65 4 5.3 4 7 4 C7 4.66 7 5.32 7 6 C5.35 6 3.7 6 2 6 C2 7.65 2 9.3 2 11 C1.67 11 1.34 11 1 11 C1 9.35 1 7.7 1 6 C-0.65 6 -2.3 6 -4 6 C-4 5.34 -4 4.68 -4 4 C-2.68 4 -1.36 4 0 4 C0 2.68 0 1.36 0 0 Z " fill="#4A5A8B" transform="translate(125,194)"/>
<path d="M0 0 C1.5078125 1.22265625 1.5078125 1.22265625 3 3 C3.35452747 7.18496555 2.61594171 10.98985559 0.4375 14.5625 C-0.036875 15.036875 -0.51125 15.51125 -1 16 C-2.10699272 12.01482622 -1.79843267 10.59686533 0 7 C0.0777346 4.66796188 0.08967728 2.33160941 0 0 Z " fill="#98A6BA" transform="translate(324,328)"/>
<path d="M0 0 C0.33 0 0.66 0 1 0 C1 1.65 1 3.3 1 5 C4.26545761 6.88391785 7.28111761 7.49287967 11 8 C11 8.66 11 9.32 11 10 C3.59743291 10.48541424 3.59743291 10.48541424 1 8.375 C-0.23318878 5.44617664 -0.2145758 3.14711179 0 0 Z " fill="#2B4674" transform="translate(229,375)"/>
<path d="M0 0 C2.64 0 5.28 0 8 0 C8 1.32 8 2.64 8 4 C5.36 4 2.72 4 0 4 C0 2.68 0 1.36 0 0 Z " fill="#48588A" transform="translate(306,121)"/>
<path d="M0 0 C0.33 1.32 0.66 2.64 1 4 C2.65 4 4.3 4 6 4 C6 4.66 6 5.32 6 6 C4.35 6 2.7 6 1 6 C1 7.65 1 9.3 1 11 C0.67 11 0.34 11 0 11 C0 9.35 0 7.7 0 6 C-1.65 6 -3.3 6 -5 6 C-5 5.34 -5 4.68 -5 4 C-3.35 4 -1.7 4 0 4 C0 2.68 0 1.36 0 0 Z " fill="#3E4F83" transform="translate(374,194)"/>
<path d="M0 0 C1.670625 0.061875 1.670625 0.061875 3.375 0.125 C3.375 0.785 3.375 1.445 3.375 2.125 C1.395 2.125 -0.585 2.125 -2.625 2.125 C-1.965 3.775 -1.305 5.425 -0.625 7.125 C-1.945 6.795 -3.265 6.465 -4.625 6.125 C-5.25 4.25 -5.25 4.25 -5.625 2.125 C-3.625 0.125 -3.625 0.125 0 0 Z " fill="#133265" transform="translate(311.625,371.875)"/>
<path d="M0 0 C2.51012963 2.51012963 2.29721609 3.46805237 2.3125 6.9375 C2.32925781 7.81277344 2.34601563 8.68804687 2.36328125 9.58984375 C1.93939398 12.40208512 1.18325915 13.25454479 -1 15 C-1.33 14.34 -1.66 13.68 -2 13 C-1.67 12.34 -1.34 11.68 -1 11 C-0.7724985 9.12943209 -0.59037189 7.25314042 -0.4375 5.375 C-0.35371094 4.37210937 -0.26992187 3.36921875 -0.18359375 2.3359375 C-0.12300781 1.56507813 -0.06242188 0.79421875 0 0 Z " fill="#8A9AB2" transform="translate(255,331)"/>
<path d="M0 0 C0.99 0 1.98 0 3 0 C3 5.28 3 10.56 3 16 C2.67 16 2.34 16 2 16 C2 12.7 2 9.4 2 6 C1.01 6 0.02 6 -1 6 C-0.67 4.02 -0.34 2.04 0 0 Z " fill="#9FABBF" transform="translate(196,323)"/>
<path d="M0 0 C1.485 0.99 1.485 0.99 3 2 C3.1875 5.625 3.1875 5.625 3 9 C2.01 9 1.02 9 0 9 C-0.87890625 2.84765625 -0.87890625 2.84765625 -1 1 C-0.67 0.67 -0.34 0.34 0 0 Z " fill="#2D417B" transform="translate(275,137)"/>
<path d="M0 0 C0.99 0.99 1.98 1.98 3 3 C0.03 5.475 0.03 5.475 -3 8 C-3.66 7.01 -4.32 6.02 -5 5 C-3.35 3.35 -1.7 1.7 0 0 Z " fill="#36477E" transform="translate(168,271)"/>
<path d="M0 0 C0.99 0.33 1.98 0.66 3 1 C1.95125002 3.62187494 1.35068687 4.79371361 -1.125 6.25 C-1.74375 6.4975 -2.3625 6.745 -3 7 C-3 3 -3 3 -1.5 1.25 C-1.005 0.8375 -0.51 0.425 0 0 Z " fill="#34467D" transform="translate(177,262)"/>
<path d="M0 0 C0.66 0 1.32 0 2 0 C2 0.99 2 1.98 2 3 C2.99 3 3.98 3 5 3 C5 3.66 5 4.32 5 5 C3.68 5 2.36 5 1 5 C0.67 6.32 0.34 7.64 0 9 C0 7.68 0 6.36 0 5 C-1.32 4.67 -2.64 4.34 -4 4 C-2.68 3.67 -1.36 3.34 0 3 C0 2.01 0 1.02 0 0 Z " fill="#4F5E8E" transform="translate(167,172)"/>
<path d="M0 0 C2.86724686 0.57344937 3.8614515 0.8614515 6 3 C5.625 5.125 5.625 5.125 5 7 C3.02 5.35 1.04 3.7 -1 2 C-0.67 1.34 -0.34 0.68 0 0 Z " fill="#35467D" transform="translate(164,262)"/>
<path d="M0 0 C1.65 0 3.3 0 5 0 C5 3.3 5 6.6 5 10 C0 2.5 0 2.5 0 0 Z " fill="#CBDCF4" transform="translate(275,135)"/>
<path d="M0 0 C0.66 0.99 1.32 1.98 2 3 C5.56769552 3.73606499 5.56769552 3.73606499 9 4 C9 4.66 9 5.32 9 6 C2.9453125 6.1953125 2.9453125 6.1953125 1 6 C0.34 5.34 -0.32 4.68 -1 4 C-0.625 1.875 -0.625 1.875 0 0 Z " fill="#1E3B6C" transform="translate(320,379)"/>
<path d="M0 0 C1.65 0 3.3 0 5 0 C5.33 1.32 5.66 2.64 6 4 C3.69 4 1.38 4 -1 4 C-0.67 2.68 -0.34 1.36 0 0 Z " fill="#CFD6DE" transform="translate(233,374)"/>
<path d="M0 0 C2.31 0 4.62 0 7 0 C7.33 0.66 7.66 1.32 8 2 C6.02 2 4.04 2 2 2 C2 3.65 2 5.3 2 7 C1.34 7 0.68 7 0 7 C0 4.69 0 2.38 0 0 Z " fill="#A1AEC0" transform="translate(309,329)"/>
<path d="M0 0 C0.33 0.99 0.66 1.98 1 3 C1.99 3 2.98 3 4 3 C4 3.66 4 4.32 4 5 C3.01 5 2.02 5 1 5 C1 5.99 1 6.98 1 8 C0.34 8 -0.32 8 -1 8 C-1 7.01 -1 6.02 -1 5 C-1.66 5 -2.32 5 -3 5 C-3 4.34 -3 3.68 -3 3 C-2.34 3 -1.68 3 -1 3 C-0.67 2.01 -0.34 1.02 0 0 Z " fill="#546391" transform="translate(139,211)"/>
<path d="M0 0 C0.66 0.33 1.32 0.66 2 1 C2.125 3.375 2.125 3.375 2 6 C1.34 6.66 0.68 7.32 0 8 C-2.625 7.625 -2.625 7.625 -5 7 C-4.360625 6.5875 -3.72125 6.175 -3.0625 5.75 C-0.79009069 3.82189513 -0.39803561 2.88575819 0 0 Z " fill="#92A1B7" transform="translate(325,346)"/>
<path d="M0 0 C0.99 0 1.98 0 3 0 C3 2.64 3 5.28 3 8 C2.01 8 1.02 8 0 8 C0 5.36 0 2.72 0 0 Z " fill="#2A3D77" transform="translate(302,112)"/>
<path d="M0 0 C0.66 0 1.32 0 2 0 C2 0.99 2 1.98 2 3 C2.66 3 3.32 3 4 3 C4 3.66 4 4.32 4 5 C3.34 5 2.68 5 2 5 C2 5.99 2 6.98 2 8 C1.34 8 0.68 8 0 8 C0 7.01 0 6.02 0 5 C-0.99 4.67 -1.98 4.34 -3 4 C-2.01 4 -1.02 4 0 4 C0 2.68 0 1.36 0 0 Z " fill="#4F5F8E" transform="translate(361,211)"/>
<path d="M0 0 C0.66 0.66 1.32 1.32 2 2 C1.46428571 5.53571429 1.46428571 5.53571429 0 7 C-1.66617115 7.04063832 -3.33388095 7.042721 -5 7 C-5 6.34 -5 5.68 -5 5 C-4.360625 4.731875 -3.72125 4.46375 -3.0625 4.1875 C-0.66868314 3.11332248 -0.66868314 3.11332248 0 0 Z " fill="#99A7BB" transform="translate(357,347)"/>
<path d="M0 0 C0.99 0 1.98 0 3 0 C3 2.31 3 4.62 3 7 C2.01 7 1.02 7 0 7 C0 4.69 0 2.38 0 0 Z " fill="#243773" transform="translate(302,126)"/>
<path d="M0 0 C2.31 0 4.62 0 7 0 C7 0.99 7 1.98 7 3 C4.69 3 2.38 3 0 3 C0 2.01 0 1.02 0 0 Z " fill="#243773" transform="translate(293,121)"/>
<path d="M0 0 C0.66 0.33 1.32 0.66 2 1 C1.25 2.9375 1.25 2.9375 0 5 C-2.125 5.75 -2.125 5.75 -4 6 C-4.33 5.34 -4.66 4.68 -5 4 C-3.35 2.68 -1.7 1.36 0 0 Z " fill="#96A4B9" transform="translate(164,326)"/>
<path d="M0 0 C3.16115776 1.36983503 3.9927092 1.9890638 6 5 C4.68 5 3.36 5 2 5 C0.25 3 0.25 3 -1 1 C-0.67 0.67 -0.34 0.34 0 0 Z " fill="#243773" transform="translate(174,272)"/>
<path d="M0 0 C1.65 0 3.3 0 5 0 C5.33 0.66 5.66 1.32 6 2 C3.69 2.66 1.38 3.32 -1 4 C-0.67 2.68 -0.34 1.36 0 0 Z " fill="#8898B0" transform="translate(152,328)"/>
<path d="M0 0 C0.33 1.32 0.66 2.64 1 4 C2.32 4.33 3.64 4.66 5 5 C3.68 5 2.36 5 1 5 C0.67 6.32 0.34 7.64 0 9 C0 7.68 0 6.36 0 5 C-1.32 4.67 -2.64 4.34 -4 4 C-2.68 4 -1.36 4 0 4 C0 2.68 0 1.36 0 0 Z " fill="#253873" transform="translate(333,172)"/>
</svg>
